<svg xmlns="http://www.w3.org/2000/svg" xmlns:xlink="http://www.w3.org/1999/xlink" width="500" zoomAndPan="magnify" viewBox="0 0 375 374.999991" height="500" preserveAspectRatio="xMidYMid meet" version="1.0"><defs><clipPath id="c1a1602e19"><path d="M 48 0 L 327.328125 0 L 327.328125 250 L 48 250 Z M 48 0 " clip-rule="nonzero"/></clipPath></defs><path fill="#100f0d" d="M 76.199219 292.058594 C 76.199219 281.503906 90.957031 279.769531 107.105469 289.003906 L 112.632812 274.378906 C 106.710938 270.90625 102.085938 268.777344 93.875 268.058594 L 93.875 253.898438 C 89.175781 255.585938 84.574219 257.160156 79.484375 258.804688 L 79.484375 268.960938 C 66.921875 271.902344 58.480469 281.273438 58.480469 293.746094 C 58.480469 308.234375 69.722656 315.175781 83.253906 320.496094 C 111.847656 332.089844 92.347656 357.847656 61.972656 337.574219 L 56.652344 352.433594 C 62.296875 356.460938 68.703125 359.445312 78.511719 360.230469 L 78.511719 374.417969 L 93.039062 374.417969 L 93.039062 359.421875 C 116.152344 354.007812 120.429688 329.382812 108.886719 316.308594 C 97.4375 303.28125 76.199219 303.90625 76.199219 292.058594 " fill-opacity="1" fill-rule="nonzero"/><path fill="#100f0d" d="M 143.332031 232.90625 L 143.332031 374.554688 L 175.234375 374.554688 C 175.234375 354.609375 175.234375 234.875 175.234375 214.878906 C 164.941406 221.3125 154.4375 227.238281 143.332031 232.90625 " fill-opacity="1" fill-rule="nonzero"/><g clip-path="url(#c1a1602e19)"><path fill="#100f0d" d="M 312.230469 -0.148438 C 301.496094 6.144531 275.886719 21.164062 268.371094 25.585938 L 280.816406 30.375 C 285.558594 27.550781 283.035156 29.054688 293.585938 22.785156 C 256.386719 139.09375 143.054688 211.824219 48.230469 232.90625 C 50.429688 243.207031 49.617188 239.386719 51.792969 249.664062 C 80.222656 243.644531 257.265625 193.3125 310.101562 27.367188 C 314.175781 40.488281 313.015625 36.714844 315.097656 43.378906 L 327.269531 48.101562 C 313.875 5.128906 317.875 17.949219 312.230469 -0.148438 " fill-opacity="1" fill-rule="nonzero"/></g><path fill="#100f0d" d="M 203.59375 374.554688 L 235.496094 374.554688 C 235.496094 348.9375 235.496094 194.261719 235.496094 168.34375 C 225.574219 177.832031 214.929688 186.878906 203.59375 195.417969 C 203.59375 272.527344 203.59375 297.980469 203.59375 374.554688 " fill-opacity="1" fill-rule="nonzero"/><path fill="#100f0d" d="M 263.859375 374.554688 L 295.757812 374.554688 C 295.757812 307.675781 295.757812 152.421875 295.757812 89.109375 C 286.761719 106.117188 276.121094 122.269531 263.859375 137.519531 C 263.859375 166.191406 263.859375 345.929688 263.859375 374.554688 " fill-opacity="1" fill-rule="nonzero"/></svg>