<svg xmlns="http://www.w3.org/2000/svg" xmlns:xlink="http://www.w3.org/1999/xlink" width="500" zoomAndPan="magnify" viewBox="0 0 375 374.999991" height="500" preserveAspectRatio="xMidYMid meet" version="1.0"><path fill="#231f20" d="M 112.265625 351.195312 C 112.136719 354.058594 112.007812 356.921875 111.875 359.78125 C 111.746094 363.230469 117.082031 363.230469 117.210938 359.78125 C 117.339844 356.921875 117.472656 354.058594 117.601562 351.195312 C 117.796875 347.75 112.460938 347.75 112.265625 351.195312 Z M 112.265625 351.195312 " fill-opacity="1" fill-rule="nonzero"/><path fill="#231f20" d="M 108.167969 269.429688 C 120.335938 291.09375 117.144531 316.785156 114.023438 340.269531 C 113.566406 343.652344 118.707031 345.082031 119.164062 341.699219 C 122.546875 316.65625 125.734375 289.726562 112.785156 266.699219 C 111.09375 263.773438 106.476562 266.4375 108.167969 269.429688 Z M 108.167969 269.429688 " fill-opacity="1" fill-rule="nonzero"/><path fill="#231f20" d="M 66.265625 205.683594 C 52.796875 156.898438 62.6875 118.714844 94.894531 95.167969 C 96.324219 94.128906 96.652344 92.109375 95.609375 90.679688 C 94.570312 89.25 92.550781 88.921875 91.121094 89.964844 C 56.570312 115.269531 45.835938 155.859375 60.085938 207.441406 C 64.703125 224.222656 71.664062 235.996094 78.367188 247.316406 C 92.160156 270.601562 105.109375 292.523438 95.152344 356.402344 C 94.894531 358.15625 96.066406 359.78125 97.820312 360.042969 C 98.015625 360.042969 98.148438 360.109375 98.34375 360.109375 C 99.902344 360.109375 101.269531 359.003906 101.53125 357.375 C 111.875 291.222656 98.277344 268.324219 83.898438 244.0625 C 77.390625 233.070312 70.691406 221.6875 66.265625 205.683594 Z M 66.265625 205.683594 " fill-opacity="1" fill-rule="nonzero"/><path fill="#231f20" d="M 278.441406 190.007812 C 283.386719 186.105469 285.925781 179.796875 285.925781 171.144531 C 285.925781 149.417969 277.269531 129.058594 260.9375 112.082031 C 259.703125 110.78125 257.6875 110.78125 256.382812 112.015625 C 255.082031 113.25 255.082031 115.269531 256.320312 116.570312 C 271.480469 132.246094 279.546875 151.175781 279.546875 171.144531 C 279.546875 177.777344 277.921875 182.332031 274.539062 185 C 265.882812 191.765625 245.519531 186.820312 223.980469 181.550781 C 195.160156 174.460938 162.429688 166.460938 141.023438 181.355469 C 129.832031 189.164062 120.855469 198.984375 113.632812 206.921875 C 107.125 214.074219 100.359375 221.492188 97.367188 220.515625 C 96.585938 220.253906 94.570312 218.890625 92.292969 211.539062 C 90.210938 204.839844 88.386719 194.496094 86.628906 179.992188 C 84.808594 164.835938 87.410156 150.980469 94.570312 137.578125 C 95.414062 136.019531 94.828125 134.066406 93.265625 133.222656 C 91.707031 132.375 89.753906 132.960938 88.90625 134.523438 C 81.101562 149.09375 78.238281 164.25 80.253906 180.769531 C 83.964844 211.863281 88.0625 224.289062 95.347656 226.628906 C 96.195312 226.890625 97.042969 227.019531 97.820312 227.019531 C 103.9375 227.019531 110.117188 220.191406 118.316406 211.214844 C 125.34375 203.539062 133.996094 193.976562 144.601562 186.558594 C 163.667969 173.289062 194.832031 180.964844 222.421875 187.730469 C 246.558594 193.652344 267.378906 198.722656 278.441406 190.007812 Z M 278.441406 190.007812 " fill-opacity="1" fill-rule="nonzero"/><path fill="#231f20" d="M 295.292969 244.191406 C 300.5 240.160156 307.332031 238.339844 313.835938 239.183594 C 317.21875 239.640625 318.652344 234.5 315.269531 234.046875 C 306.613281 232.875 298.417969 235.085938 291.519531 240.421875 C 288.785156 242.5 292.625 246.273438 295.292969 244.191406 Z M 295.292969 244.191406 " fill-opacity="1" fill-rule="nonzero"/><path fill="#231f20" d="M 193.011719 295.839844 C 189.367188 293.628906 185.660156 291.417969 182.015625 289.269531 C 179.085938 287.515625 176.355469 292.132812 179.347656 293.890625 C 182.992188 296.101562 186.699219 298.3125 190.34375 300.460938 C 193.273438 302.214844 195.9375 297.597656 193.011719 295.839844 Z M 193.011719 295.839844 " fill-opacity="1" fill-rule="nonzero"/><path fill="#231f20" d="M 322.683594 212.058594 C 316.375 202.628906 309.671875 194.429688 307.394531 191.632812 C 307.589844 186.105469 307.980469 164.117188 301.605469 139.660156 C 297.375 123.269531 290.933594 109.21875 282.539062 97.835938 C 271.933594 83.523438 258.207031 73.570312 241.746094 68.171875 C 240.054688 67.652344 238.230469 68.5625 237.710938 70.253906 C 237.191406 71.945312 238.101562 73.765625 239.792969 74.289062 C 267.445312 83.265625 286.183594 105.769531 295.359375 141.09375 C 302.320312 167.828125 300.953125 192.285156 300.890625 192.542969 L 300.824219 193.847656 L 301.667969 194.820312 C 301.734375 194.886719 309.933594 204.578125 317.351562 215.636719 C 330.558594 235.28125 329.582031 241.460938 328.929688 242.890625 C 328.738281 243.28125 328.214844 244.453125 325.027344 244.648438 C 300.109375 245.820312 294.640625 251.867188 293.863281 253.039062 L 293.339844 253.820312 L 293.277344 254.730469 C 291.128906 300.394531 288.332031 311.648438 287.421875 314.25 C 252.285156 323.488281 205.828125 299.222656 205.375 298.964844 C 203.8125 298.117188 201.859375 298.703125 201.015625 300.265625 C 200.167969 301.824219 200.753906 303.777344 202.316406 304.558594 C 203.488281 305.144531 219.492188 313.535156 240.054688 318.738281 C 237.710938 326.480469 232.503906 345.796875 234.457031 362.125 C 234.652344 363.75 236.019531 364.921875 237.644531 364.921875 C 237.777344 364.921875 237.90625 364.921875 238.035156 364.921875 C 239.792969 364.726562 241.027344 363.101562 240.835938 361.34375 C 239.011719 346.121094 244.21875 327.128906 246.363281 320.167969 C 253.910156 321.730469 261.851562 322.769531 269.789062 322.769531 C 276.683594 322.769531 283.515625 321.988281 290.089844 320.167969 C 292.753906 319.714844 293.863281 316.265625 295.03125 309.828125 C 296.855469 299.546875 298.417969 281.59375 299.652344 256.421875 C 301.539062 255.1875 307.914062 251.933594 325.417969 251.089844 C 331.339844 250.828125 333.875 247.902344 334.917969 245.492188 C 337.585938 239.25 333.617188 228.320312 322.683594 212.058594 Z M 322.683594 212.058594 " fill-opacity="1" fill-rule="nonzero"/><path fill="#231f20" d="M 232.570312 80.664062 C 230.035156 78.320312 227.300781 75.980469 224.308594 73.636719 C 226.390625 70.449219 228.210938 67.328125 229.773438 64.269531 C 237.582031 48.984375 238.492188 36.625 232.179688 29.40625 C 225.867188 22.183594 213.507812 21.339844 197.304688 27.0625 C 195.027344 27.84375 192.75 28.753906 190.410156 29.792969 C 189.691406 28.296875 188.914062 26.867188 188.132812 25.4375 C 191.90625 23.03125 194.378906 18.738281 194.378906 13.988281 C 194.378906 6.441406 188.261719 0.328125 180.714844 0.328125 C 176.613281 0.328125 172.90625 2.148438 170.433594 5.011719 C 166.53125 2.800781 162.625 1.890625 158.789062 2.476562 C 149.351562 3.90625 141.9375 13.859375 138.03125 30.574219 C 137.382812 33.4375 136.796875 36.429688 136.339844 39.550781 C 133.347656 39.292969 130.417969 39.160156 127.621094 39.160156 L 127.164062 39.160156 C 109.925781 39.226562 98.539062 44.171875 95.023438 53.082031 C 91.511719 61.992188 96.457031 73.378906 109.011719 85.152344 C 111.550781 87.492188 114.28125 89.835938 117.277344 92.175781 C 116.039062 94.0625 114.867188 96.011719 113.828125 97.898438 C 112.785156 97.640625 111.617188 97.511719 110.507812 97.511719 C 102.960938 97.511719 96.847656 103.625 96.847656 111.167969 C 96.847656 116.894531 100.359375 121.773438 105.304688 123.789062 C 105.238281 128.929688 106.671875 133.222656 109.46875 136.410156 C 112.980469 140.441406 118.449219 142.523438 125.472656 142.523438 C 130.941406 142.523438 137.25 141.285156 144.40625 138.816406 C 146.683594 138.035156 148.960938 137.125 151.304688 136.082031 C 152.410156 138.359375 153.582031 140.570312 154.820312 142.652344 C 162.757812 156.3125 171.867188 163.597656 180.585938 163.597656 C 181.363281 163.597656 182.144531 163.535156 182.863281 163.402344 C 192.296875 161.972656 199.714844 152.019531 203.617188 135.300781 C 204.269531 132.441406 204.851562 129.449219 205.308594 126.324219 C 207.847656 126.519531 210.320312 126.652344 212.726562 126.714844 C 213.375 133.675781 219.234375 139.140625 226.324219 139.140625 C 233.871094 139.140625 239.988281 133.027344 239.988281 125.480469 C 239.988281 123.984375 239.726562 122.554688 239.273438 121.1875 C 242.722656 118.976562 245.191406 116.179688 246.496094 112.859375 C 250.007812 103.820312 245.0625 92.4375 232.570312 80.664062 Z M 198.996094 32.070312 C 205.503906 29.792969 211.292969 28.625 216.109375 28.625 C 221.511719 28.625 225.609375 30.054688 228.082031 32.917969 C 232.765625 38.316406 231.59375 48.855469 224.957031 61.863281 C 223.527344 64.726562 221.835938 67.585938 219.949219 70.515625 C 214.15625 66.480469 207.714844 62.578125 200.753906 59.066406 C 198.542969 50.21875 195.746094 42.023438 192.554688 34.609375 C 194.769531 33.632812 196.914062 32.785156 198.996094 32.070312 Z M 160.21875 109.671875 C 155.078125 107.65625 150.132812 105.445312 145.382812 103.105469 C 144.148438 97.964844 143.105469 92.632812 142.324219 87.167969 C 141.546875 81.964844 141.023438 76.824219 140.632812 71.816406 C 144.148438 68.238281 147.921875 64.660156 151.890625 61.214844 C 156.25 57.375 160.738281 53.863281 165.230469 50.609375 C 170.5625 52.171875 175.964844 54.058594 181.363281 56.140625 C 186.503906 58.15625 191.449219 60.367188 196.199219 62.710938 C 197.4375 67.847656 198.476562 73.183594 199.257812 78.644531 C 200.039062 83.851562 200.558594 88.988281 200.949219 93.996094 C 197.4375 97.574219 193.664062 101.152344 189.691406 104.601562 C 185.332031 108.4375 180.84375 111.949219 176.355469 115.269531 C 171.019531 113.640625 165.621094 111.753906 160.21875 109.671875 Z M 170.824219 119.105469 C 165.097656 122.945312 159.371094 126.261719 153.84375 128.992188 C 151.304688 123.136719 149.027344 116.699219 147.140625 109.867188 C 150.785156 111.558594 154.492188 113.1875 158.265625 114.683594 C 162.429688 116.242188 166.660156 117.738281 170.824219 119.105469 Z M 140.894531 45.40625 C 146.554688 46.121094 152.542969 47.292969 158.65625 48.789062 C 155.207031 51.457031 151.761719 54.253906 148.378906 57.179688 C 145.578125 59.585938 142.910156 62.125 140.308594 64.59375 C 140.113281 57.894531 140.308594 51.457031 140.894531 45.40625 Z M 137.054688 87.949219 C 137.640625 91.980469 138.355469 96.011719 139.203125 99.917969 C 133.933594 97.054688 129.054688 94.0625 124.628906 90.875 C 127.882812 86.257812 131.589844 81.636719 135.753906 77.085938 C 136.015625 80.597656 136.46875 84.238281 137.054688 87.949219 Z M 170.757812 46.707031 C 176.484375 42.871094 182.210938 39.550781 187.742188 36.820312 C 190.277344 42.675781 192.554688 49.113281 194.441406 55.945312 C 190.800781 54.253906 187.089844 52.625 183.316406 51.128906 C 179.085938 49.503906 174.921875 48.007812 170.757812 46.707031 Z M 193.207031 108.566406 C 196.003906 106.160156 198.671875 103.625 201.273438 101.152344 C 201.46875 107.851562 201.273438 114.355469 200.625 120.40625 C 194.964844 119.691406 188.976562 118.519531 182.863281 117.023438 C 186.308594 114.355469 189.824219 111.558594 193.207031 108.566406 Z M 204.527344 77.867188 C 203.941406 73.832031 203.226562 69.800781 202.378906 65.894531 C 207.652344 68.757812 212.53125 71.75 216.957031 74.9375 C 213.703125 79.554688 209.992188 84.175781 205.828125 88.726562 C 205.503906 85.152344 205.046875 81.507812 204.527344 77.867188 Z M 180.648438 5.597656 C 185.269531 5.597656 188.976562 9.304688 188.976562 13.921875 C 188.976562 16.785156 187.546875 19.320312 185.332031 20.816406 C 183.96875 21.730469 182.339844 22.3125 180.648438 22.3125 C 180.390625 22.3125 180.195312 22.3125 179.933594 22.3125 C 175.640625 21.988281 172.320312 18.347656 172.320312 13.988281 C 172.320312 13.664062 172.320312 13.402344 172.386719 13.144531 C 172.582031 11.191406 173.492188 9.433594 174.792969 8.132812 C 176.289062 6.507812 178.371094 5.597656 180.648438 5.597656 Z M 143.171875 31.746094 C 146.554688 17.5 152.476562 8.71875 159.566406 7.679688 C 160.023438 7.613281 160.542969 7.546875 161.066406 7.546875 C 163.210938 7.546875 165.488281 8.199219 167.765625 9.566406 C 167.3125 10.929688 167.050781 12.425781 167.050781 13.921875 C 167.050781 21.46875 173.167969 27.582031 180.714844 27.582031 C 181.558594 27.582031 182.339844 27.519531 183.121094 27.386719 C 183.96875 28.882812 184.75 30.378906 185.527344 32.007812 C 178.566406 35.390625 171.34375 39.683594 164.1875 44.757812 C 156.378906 42.609375 148.765625 40.984375 141.609375 40.074219 C 142 37.144531 142.519531 34.414062 143.171875 31.746094 Z M 112.65625 81.246094 C 101.984375 71.164062 97.367188 61.667969 99.96875 55.035156 C 102.636719 48.398438 112.527344 44.5625 127.101562 44.496094 C 129.832031 44.496094 132.632812 44.625 135.558594 44.820312 C 134.777344 52.625 134.648438 61.019531 135.105469 69.800781 C 129.507812 75.71875 124.5 81.703125 120.203125 87.6875 C 117.535156 85.605469 115 83.394531 112.65625 81.246094 Z M 102.117188 111.105469 C 102.117188 106.488281 105.824219 102.777344 110.445312 102.777344 C 110.703125 102.777344 110.898438 102.777344 111.160156 102.777344 C 113.046875 102.910156 114.738281 103.753906 116.039062 104.925781 C 117.730469 106.421875 118.773438 108.632812 118.773438 111.105469 C 118.773438 115.527344 115.324219 119.105469 110.964844 119.429688 C 110.769531 119.429688 110.574219 119.429688 110.378906 119.429688 C 108.6875 119.429688 107.0625 118.910156 105.757812 118.066406 C 103.613281 116.503906 102.117188 113.96875 102.117188 111.105469 Z M 142.519531 133.675781 C 128.726562 138.488281 118.121094 138.230469 113.4375 132.832031 C 111.679688 130.8125 110.769531 128.082031 110.640625 124.699219 C 118.121094 124.632812 124.171875 118.519531 124.171875 111.039062 C 124.171875 106.550781 122.027344 102.582031 118.707031 100.113281 C 119.617188 98.484375 120.59375 96.859375 121.699219 95.234375 C 124.5625 97.25 127.554688 99.199219 130.746094 101.085938 C 133.996094 103.039062 137.382812 104.925781 140.894531 106.679688 C 143.105469 115.527344 145.90625 123.722656 149.09375 131.140625 C 146.816406 132.117188 144.667969 132.960938 142.519531 133.675781 Z M 198.410156 134.066406 C 195.027344 148.3125 189.109375 157.09375 182.015625 158.132812 C 174.988281 159.175781 166.726562 152.539062 159.308594 139.921875 C 158.203125 137.96875 157.097656 135.953125 156.054688 133.804688 C 163.015625 130.425781 170.238281 126.132812 177.394531 121.058594 C 185.203125 123.203125 192.816406 124.828125 200.039062 125.742188 C 199.519531 128.601562 198.996094 131.398438 198.410156 134.066406 Z M 234.585938 125.351562 C 234.585938 129.96875 230.878906 133.675781 226.257812 133.675781 C 222.09375 133.675781 218.582031 130.554688 217.996094 126.519531 C 217.929688 126.132812 217.929688 125.742188 217.929688 125.351562 C 217.929688 123.789062 218.320312 122.359375 219.101562 121.121094 C 220.535156 118.648438 223.203125 117.023438 226.257812 117.023438 C 228.210938 117.023438 230.035156 117.738281 231.464844 118.84375 C 232.894531 120.015625 233.9375 121.578125 234.394531 123.464844 C 234.523438 124.050781 234.585938 124.699219 234.585938 125.351562 Z M 241.550781 110.78125 C 240.703125 112.992188 239.011719 114.878906 236.605469 116.4375 C 234.066406 113.511719 230.421875 111.691406 226.257812 111.691406 C 220.144531 111.691406 214.9375 115.722656 213.179688 121.316406 C 210.839844 121.316406 208.367188 121.1875 205.894531 120.992188 C 206.675781 113.1875 206.804688 104.796875 206.351562 96.011719 C 211.945312 90.09375 216.957031 84.109375 221.25 78.125 C 223.980469 80.273438 226.585938 82.417969 228.863281 84.566406 C 239.53125 94.582031 244.152344 104.144531 241.550781 110.78125 Z M 241.550781 110.78125 " fill-opacity="1" fill-rule="nonzero"/><path fill="#231f20" d="M 170.5625 67.914062 C 163.015625 67.914062 156.902344 74.027344 156.902344 81.574219 C 156.902344 89.117188 163.015625 95.234375 170.5625 95.234375 C 178.113281 95.234375 184.226562 89.117188 184.226562 81.574219 C 184.226562 74.027344 178.113281 67.914062 170.5625 67.914062 Z M 170.5625 89.964844 C 165.945312 89.964844 162.234375 86.257812 162.234375 81.636719 C 162.234375 77.019531 165.945312 73.3125 170.5625 73.3125 C 175.183594 73.3125 178.890625 77.019531 178.890625 81.636719 C 178.890625 86.191406 175.183594 89.964844 170.5625 89.964844 Z M 170.5625 89.964844 " fill-opacity="1" fill-rule="nonzero"/></svg>