<svg xmlns="http://www.w3.org/2000/svg" xmlns:xlink="http://www.w3.org/1999/xlink" width="500" zoomAndPan="magnify" viewBox="0 0 375 374.999991" height="500" preserveAspectRatio="xMidYMid meet" version="1.0"><path fill="#000000" d="M 187.5 0 C 184.429688 0 181.363281 0.0742188 178.300781 0.226562 C 175.234375 0.375 172.175781 0.601562 169.121094 0.902344 C 166.066406 1.203125 163.023438 1.578125 159.988281 2.03125 C 156.953125 2.480469 153.929688 3.003906 150.921875 3.601562 C 147.910156 4.203125 144.917969 4.875 141.941406 5.617188 C 138.964844 6.363281 136.007812 7.183594 133.070312 8.074219 C 130.136719 8.964844 127.222656 9.925781 124.332031 10.960938 C 121.445312 11.996094 118.582031 13.097656 115.746094 14.273438 C 112.910156 15.445312 110.105469 16.691406 107.332031 18.003906 C 104.558594 19.3125 101.820312 20.691406 99.113281 22.140625 C 96.40625 23.585938 93.738281 25.097656 91.105469 26.675781 C 88.472656 28.253906 85.882812 29.894531 83.332031 31.597656 C 80.777344 33.304688 78.269531 35.070312 75.804688 36.898438 C 73.339844 38.726562 70.921875 40.613281 68.550781 42.558594 C 66.179688 44.507812 63.855469 46.511719 61.582031 48.570312 C 59.308594 50.632812 57.085938 52.746094 54.917969 54.917969 C 52.746094 57.085938 50.632812 59.308594 48.570312 61.582031 C 46.511719 63.855469 44.507812 66.179688 42.558594 68.550781 C 40.613281 70.921875 38.726562 73.339844 36.898438 75.804688 C 35.070312 78.269531 33.304688 80.777344 31.597656 83.332031 C 29.894531 85.882812 28.253906 88.472656 26.675781 91.105469 C 25.097656 93.738281 23.585938 96.40625 22.140625 99.113281 C 20.691406 101.820312 19.3125 104.558594 18.003906 107.332031 C 16.691406 110.105469 15.445312 112.910156 14.273438 115.746094 C 13.097656 118.582031 11.996094 121.445312 10.960938 124.332031 C 9.925781 127.222656 8.964844 130.136719 8.074219 133.070312 C 7.183594 136.007812 6.363281 138.964844 5.617188 141.941406 C 4.875 144.917969 4.203125 147.910156 3.601562 150.921875 C 3.003906 153.929688 2.480469 156.953125 2.03125 159.988281 C 1.578125 163.023438 1.203125 166.066406 0.902344 169.121094 C 0.601562 172.175781 0.375 175.234375 0.226562 178.300781 C 0.0742188 181.363281 0 184.429688 0 187.5 C 0 190.570312 0.0742188 193.636719 0.226562 196.699219 C 0.375 199.765625 0.601562 202.824219 0.902344 205.878906 C 1.203125 208.933594 1.578125 211.976562 2.03125 215.011719 C 2.480469 218.046875 3.003906 221.070312 3.601562 224.078125 C 4.203125 227.089844 4.875 230.082031 5.617188 233.058594 C 6.363281 236.035156 7.183594 238.992188 8.074219 241.929688 C 8.964844 244.863281 9.925781 247.777344 10.960938 250.667969 C 11.996094 253.554688 13.097656 256.417969 14.273438 259.253906 C 15.445312 262.089844 16.691406 264.890625 18.003906 267.667969 C 19.3125 270.441406 20.691406 273.179688 22.140625 275.886719 C 23.585938 278.59375 25.097656 281.261719 26.675781 283.894531 C 28.253906 286.527344 29.894531 289.117188 31.597656 291.667969 C 33.304688 294.222656 35.070312 296.730469 36.898438 299.195312 C 38.726562 301.660156 40.613281 304.078125 42.558594 306.449219 C 44.507812 308.820312 46.511719 311.144531 48.570312 313.417969 C 50.632812 315.691406 52.746094 317.914062 54.917969 320.082031 C 57.085938 322.253906 59.308594 324.367188 61.582031 326.429688 C 63.855469 328.488281 66.179688 330.492188 68.550781 332.4375 C 70.921875 334.386719 73.339844 336.273438 75.804688 338.101562 C 78.269531 339.929688 80.777344 341.695312 83.332031 343.402344 C 85.882812 345.105469 88.472656 346.746094 91.105469 348.324219 C 93.738281 349.902344 96.40625 351.414062 99.113281 352.859375 C 101.820312 354.308594 104.558594 355.6875 107.332031 356.996094 C 110.105469 358.308594 112.910156 359.554688 115.746094 360.726562 C 118.582031 361.902344 121.445312 363.003906 124.332031 364.039062 C 127.222656 365.074219 130.136719 366.035156 133.070312 366.925781 C 136.007812 367.816406 138.964844 368.636719 141.941406 369.378906 C 144.917969 370.125 147.910156 370.796875 150.921875 371.398438 C 153.929688 371.996094 156.953125 372.519531 159.988281 372.96875 C 163.023438 373.421875 166.066406 373.796875 169.121094 374.097656 C 172.175781 374.398438 175.234375 374.625 178.300781 374.773438 C 181.363281 374.925781 184.429688 375 187.5 375 C 190.570312 375 193.636719 374.925781 196.699219 374.773438 C 199.765625 374.625 202.824219 374.398438 205.878906 374.097656 C 208.933594 373.796875 211.976562 373.421875 215.011719 372.96875 C 218.046875 372.519531 221.070312 371.996094 224.078125 371.398438 C 227.089844 370.796875 230.082031 370.125 233.058594 369.378906 C 236.035156 368.636719 238.992188 367.816406 241.929688 366.925781 C 244.863281 366.035156 247.777344 365.074219 250.667969 364.039062 C 253.554688 363.003906 256.417969 361.902344 259.253906 360.726562 C 262.089844 359.554688 264.890625 358.308594 267.667969 356.996094 C 270.441406 355.6875 273.179688 354.308594 275.886719 352.859375 C 278.59375 351.414062 281.261719 349.902344 283.894531 348.324219 C 286.527344 346.746094 289.117188 345.105469 291.667969 343.402344 C 294.222656 341.695312 296.730469 339.929688 299.195312 338.101562 C 301.660156 336.273438 304.078125 334.386719 306.449219 332.4375 C 308.820312 330.492188 311.144531 328.488281 313.417969 326.429688 C 315.691406 324.367188 317.914062 322.253906 320.082031 320.082031 C 322.253906 317.914062 324.367188 315.691406 326.429688 313.417969 C 328.488281 311.144531 330.492188 308.820312 332.4375 306.449219 C 334.386719 304.078125 336.273438 301.660156 338.101562 299.195312 C 339.929688 296.730469 341.695312 294.222656 343.402344 291.667969 C 345.105469 289.117188 346.746094 286.527344 348.324219 283.894531 C 349.902344 281.261719 351.414062 278.59375 352.859375 275.886719 C 354.308594 273.179688 355.6875 270.441406 356.996094 267.667969 C 358.308594 264.890625 359.554688 262.089844 360.726562 259.253906 C 361.902344 256.417969 363.003906 253.554688 364.039062 250.667969 C 365.074219 247.777344 366.035156 244.863281 366.925781 241.929688 C 367.816406 238.992188 368.636719 236.035156 369.378906 233.058594 C 370.125 230.082031 370.796875 227.089844 371.398438 224.078125 C 371.996094 221.070312 372.519531 218.046875 372.96875 215.011719 C 373.421875 211.976562 373.796875 208.933594 374.097656 205.878906 C 374.398438 202.824219 374.625 199.765625 374.773438 196.699219 C 374.925781 193.636719 375 190.570312 375 187.5 C 374.996094 184.433594 374.917969 181.367188 374.765625 178.304688 C 374.609375 175.238281 374.382812 172.179688 374.078125 169.128906 C 373.773438 166.074219 373.394531 163.03125 372.941406 160 C 372.492188 156.964844 371.964844 153.941406 371.363281 150.933594 C 370.761719 147.925781 370.085938 144.933594 369.339844 141.960938 C 368.589844 138.984375 367.773438 136.03125 366.878906 133.09375 C 365.988281 130.160156 365.023438 127.25 363.988281 124.359375 C 362.953125 121.472656 361.847656 118.613281 360.671875 115.78125 C 359.496094 112.945312 358.25 110.144531 356.9375 107.371094 C 355.625 104.597656 354.246094 101.859375 352.796875 99.15625 C 351.351562 96.449219 349.839844 93.78125 348.261719 91.152344 C 346.683594 88.519531 345.039062 85.929688 343.335938 83.378906 C 341.632812 80.832031 339.863281 78.324219 338.035156 75.859375 C 336.207031 73.394531 334.320312 70.980469 332.375 68.609375 C 330.429688 66.238281 328.425781 63.914062 326.363281 61.640625 C 324.304688 59.371094 322.191406 57.148438 320.019531 54.980469 C 317.851562 52.808594 315.628906 50.695312 313.359375 48.636719 C 311.085938 46.574219 308.761719 44.570312 306.390625 42.625 C 304.019531 40.679688 301.605469 38.792969 299.140625 36.964844 C 296.675781 35.136719 294.167969 33.367188 291.621094 31.664062 C 289.070312 29.960938 286.480469 28.316406 283.847656 26.738281 C 281.21875 25.160156 278.550781 23.648438 275.84375 22.203125 C 273.140625 20.753906 270.402344 19.375 267.628906 18.0625 C 264.855469 16.75 262.054688 15.503906 259.21875 14.328125 C 256.386719 13.152344 253.527344 12.046875 250.640625 11.011719 C 247.75 9.976562 244.839844 9.011719 241.90625 8.121094 C 238.96875 7.226562 236.015625 6.410156 233.039062 5.660156 C 230.066406 4.914062 227.074219 4.238281 224.066406 3.636719 C 221.054688 3.035156 218.035156 2.507812 215 2.058594 C 211.96875 1.605469 208.925781 1.226562 205.871094 0.921875 C 202.820312 0.617188 199.761719 0.390625 196.695312 0.234375 C 193.632812 0.0820312 190.566406 0.00390625 187.5 0 Z M 191.328125 160.988281 C 192.117188 161.101562 192.898438 161.25 193.671875 161.433594 C 194.449219 161.617188 195.214844 161.835938 195.972656 162.085938 C 196.726562 162.339844 197.472656 162.625 198.203125 162.945312 C 198.933594 163.261719 199.648438 163.613281 200.347656 163.996094 C 201.046875 164.378906 201.726562 164.789062 202.390625 165.234375 C 203.050781 165.675781 203.695312 166.148438 204.3125 166.648438 C 204.933594 167.148438 205.53125 167.675781 206.105469 168.230469 C 206.679688 168.78125 207.226562 169.363281 207.75 169.964844 C 208.269531 170.566406 208.765625 171.191406 209.230469 171.835938 C 209.695312 172.484375 210.132812 173.152344 210.539062 173.835938 C 210.945312 174.523438 211.320312 175.222656 211.664062 175.945312 C 212.007812 176.664062 212.320312 177.394531 212.597656 178.140625 C 212.875 178.890625 213.121094 179.648438 213.332031 180.414062 C 213.542969 181.183594 213.71875 181.960938 213.859375 182.746094 C 214 183.53125 214.109375 184.320312 214.179688 185.113281 C 214.25 185.90625 214.285156 186.703125 214.285156 187.5 C 214.285156 188.296875 214.25 189.09375 214.179688 189.886719 C 214.109375 190.679688 214 191.46875 213.859375 192.253906 C 213.71875 193.039062 213.542969 193.816406 213.332031 194.585938 C 213.121094 195.351562 212.875 196.109375 212.597656 196.859375 C 212.320312 197.605469 212.007812 198.335938 211.664062 199.054688 C 211.320312 199.777344 210.945312 200.476562 210.539062 201.164062 C 210.132812 201.847656 209.695312 202.515625 209.230469 203.164062 C 208.765625 203.808594 208.269531 204.433594 207.75 205.035156 C 207.226562 205.636719 206.679688 206.214844 206.105469 206.769531 C 205.53125 207.324219 204.933594 207.851562 204.3125 208.351562 C 203.695312 208.851562 203.050781 209.324219 202.390625 209.765625 C 201.726562 210.210938 201.046875 210.621094 200.347656 211.003906 C 199.648438 211.386719 198.933594 211.738281 198.203125 212.054688 C 197.472656 212.375 196.726562 212.660156 195.972656 212.914062 C 195.214844 213.164062 194.449219 213.382812 193.671875 213.566406 C 192.898438 213.75 192.117188 213.898438 191.328125 214.011719 Z M 49.746094 229.59375 C 43.703125 229.738281 37.730469 230.472656 31.835938 231.796875 C 25.9375 233.121094 20.226562 235.007812 14.699219 237.460938 C 13.21875 232.316406 11.96875 227.113281 10.949219 221.855469 C 9.929688 216.601562 9.148438 211.308594 8.597656 205.980469 C 8.050781 200.652344 7.742188 195.3125 7.667969 189.957031 C 7.597656 184.605469 7.761719 179.257812 8.167969 173.917969 C 8.570312 168.578125 9.210938 163.265625 10.089844 157.984375 C 10.96875 152.699219 12.078125 147.464844 13.421875 142.28125 C 14.765625 137.097656 16.335938 131.984375 18.132812 126.941406 C 19.933594 121.898438 21.953125 116.941406 24.191406 112.078125 C 26.441406 118.332031 29.503906 124.160156 33.378906 129.558594 C 37.257812 134.957031 41.800781 139.71875 47.007812 143.847656 C 54.640625 150.953125 61.222656 157.09375 61.222656 164.539062 C 61.222656 179.324219 72.007812 185.925781 80.671875 191.234375 C 87.589844 195.46875 91.835938 198.300781 91.835938 202.804688 C 91.835938 215.707031 78.667969 229.59375 49.746094 229.59375 Z M 118.621094 130.101562 C 105.476562 130.101562 99.488281 116.214844 99.488281 103.316406 C 99.488281 90.128906 106.230469 61.222656 126.277344 61.222656 C 127.175781 61.125 128.078125 61.078125 128.984375 61.078125 C 129.890625 61.082031 130.796875 61.132812 131.695312 61.238281 C 132.597656 61.339844 133.488281 61.492188 134.371094 61.695312 C 135.253906 61.898438 136.121094 62.152344 136.976562 62.453125 C 137.832031 62.753906 138.667969 63.101562 139.484375 63.496094 C 140.300781 63.886719 141.09375 64.328125 141.859375 64.808594 C 142.625 65.292969 143.363281 65.816406 144.070312 66.382812 C 144.78125 66.945312 145.453125 67.550781 146.09375 68.191406 C 146.734375 68.832031 147.339844 69.503906 147.90625 70.214844 C 148.46875 70.921875 148.992188 71.660156 149.476562 72.425781 C 149.957031 73.195312 150.398438 73.984375 150.792969 74.800781 C 151.183594 75.617188 151.53125 76.453125 151.832031 77.308594 C 152.132812 78.164062 152.386719 79.03125 152.589844 79.914062 C 152.792969 80.796875 152.945312 81.691406 153.046875 82.589844 C 153.152344 83.492188 153.203125 84.394531 153.207031 85.300781 C 153.207031 86.207031 153.160156 87.109375 153.0625 88.011719 C 153.0625 95.484375 148.90625 97.925781 141.574219 101.59375 C 137.761719 103.253906 134.308594 105.476562 131.222656 108.265625 C 129.625 110.136719 128.367188 112.214844 127.457031 114.5 C 126.542969 116.785156 126.019531 119.15625 125.886719 121.617188 C 124.886719 128.203125 124.347656 130.101562 118.621094 130.101562 Z M 167.964844 331.195312 C 164.554688 323.742188 161.554688 316.128906 158.957031 308.355469 C 155.875 296.945312 150.984375 286.371094 144.285156 276.632812 C 142.09375 274.207031 140.132812 271.609375 138.40625 268.839844 C 136.675781 266.066406 135.207031 263.164062 133.996094 260.128906 C 132.785156 257.09375 131.851562 253.972656 131.199219 250.773438 C 130.542969 247.570312 130.179688 244.339844 130.101562 241.070312 C 130.101562 229.527344 134.960938 214.148438 158.097656 206.433594 C 161 205.175781 163.75 203.648438 166.347656 201.847656 C 168.945312 200.042969 171.339844 198.007812 173.535156 195.730469 C 175.730469 193.457031 177.679688 190.988281 179.386719 188.324219 C 181.09375 185.664062 182.523438 182.863281 183.671875 179.917969 L 183.671875 348.957031 C 180.390625 346.660156 177.421875 344.011719 174.765625 341.007812 C 172.109375 338.007812 169.84375 334.738281 167.964844 331.195312 Z M 191.328125 367.25 L 191.328125 321.234375 C 194.457031 321.148438 197.585938 320.949219 200.703125 320.644531 C 203.820312 320.335938 206.925781 319.921875 210.015625 319.394531 C 213.105469 318.871094 216.171875 318.238281 219.214844 317.496094 C 222.261719 316.757812 225.277344 315.910156 228.261719 314.957031 C 231.246094 314.007812 234.195312 312.949219 237.105469 311.792969 C 240.015625 310.632812 242.882812 309.371094 245.707031 308.011719 C 248.53125 306.652344 251.300781 305.191406 254.023438 303.636719 C 256.742188 302.082031 259.40625 300.433594 262.007812 298.691406 C 264.613281 296.949219 267.152344 295.117188 269.628906 293.195312 C 272.105469 291.273438 274.511719 289.269531 276.847656 287.179688 C 279.179688 285.089844 281.441406 282.921875 283.621094 280.671875 C 285.804688 278.425781 287.90625 276.101562 289.925781 273.707031 C 291.945312 271.3125 293.878906 268.847656 295.726562 266.316406 C 297.570312 263.785156 299.328125 261.191406 300.992188 258.535156 C 302.65625 255.878906 304.222656 253.167969 305.699219 250.40625 C 307.171875 247.640625 308.546875 244.824219 309.824219 241.964844 C 311.101562 239.101562 312.273438 236.199219 313.347656 233.253906 C 314.417969 230.308594 315.386719 227.332031 316.25 224.320312 C 317.113281 221.308594 317.871094 218.269531 318.519531 215.203125 C 319.167969 212.136719 319.710938 209.054688 320.144531 205.949219 C 320.578125 202.847656 320.902344 199.730469 321.113281 196.605469 C 321.328125 193.476562 321.433594 190.347656 321.429688 187.214844 C 321.421875 184.082031 321.308594 180.953125 321.082031 177.828125 C 320.855469 174.699219 320.523438 171.585938 320.078125 168.484375 C 319.632812 165.382812 319.082031 162.300781 318.421875 159.238281 C 317.761719 156.175781 316.992188 153.136719 316.121094 150.128906 C 315.246094 147.121094 314.265625 144.144531 313.183594 141.203125 C 312.101562 138.265625 310.917969 135.363281 309.628906 132.507812 C 308.34375 129.648438 306.960938 126.839844 305.476562 124.082031 C 303.992188 121.320312 302.414062 118.617188 300.738281 115.96875 C 299.066406 113.320312 297.300781 110.730469 295.445312 108.207031 C 293.589844 105.679688 291.648438 103.222656 289.621094 100.835938 C 289.292969 100.445312 288.902344 100.136719 288.449219 99.902344 C 288 99.667969 287.519531 99.53125 287.011719 99.488281 C 286.503906 99.445312 286.011719 99.503906 285.527344 99.660156 C 285.042969 99.8125 284.605469 100.058594 284.21875 100.386719 C 283.832031 100.714844 283.519531 101.105469 283.289062 101.558594 C 283.058594 102.011719 282.921875 102.492188 282.882812 103 C 282.84375 103.507812 282.902344 104 283.058594 104.484375 C 283.214844 104.96875 283.460938 105.402344 283.792969 105.789062 C 285.703125 108.042969 287.53125 110.359375 289.277344 112.738281 C 291.027344 115.117188 292.6875 117.558594 294.265625 120.054688 C 295.84375 122.550781 297.328125 125.101562 298.726562 127.703125 C 300.125 130.300781 301.429688 132.949219 302.644531 135.640625 C 303.855469 138.335938 304.972656 141.066406 305.992188 143.839844 C 307.011719 146.609375 307.933594 149.414062 308.757812 152.25 C 309.582031 155.085938 310.308594 157.945312 310.929688 160.832031 C 311.554688 163.71875 312.074219 166.625 312.496094 169.546875 C 312.914062 172.46875 313.230469 175.402344 313.445312 178.347656 C 313.65625 181.292969 313.769531 184.242188 313.773438 187.195312 C 313.78125 190.148438 313.683594 193.101562 313.484375 196.046875 C 313.285156 198.992188 312.980469 201.929688 312.574219 204.851562 C 312.167969 207.777344 311.660156 210.683594 311.050781 213.574219 C 310.441406 216.464844 309.730469 219.328125 308.917969 222.167969 C 308.109375 225.007812 307.199219 227.816406 306.191406 230.589844 C 305.183594 233.367188 304.078125 236.105469 302.878906 238.800781 C 301.679688 241.5 300.386719 244.152344 299 246.761719 C 297.613281 249.367188 296.140625 251.925781 294.574219 254.429688 C 293.007812 256.933594 291.355469 259.378906 289.621094 261.765625 C 287.882812 264.15625 286.066406 266.480469 284.164062 268.742188 C 282.265625 271 280.289062 273.191406 278.234375 275.316406 C 276.179688 277.4375 274.054688 279.484375 271.859375 281.457031 C 269.660156 283.429688 267.398438 285.324219 265.066406 287.136719 C 262.738281 288.953125 260.347656 290.683594 257.894531 292.328125 C 255.441406 293.976562 252.9375 295.535156 250.375 297.003906 C 247.816406 298.476562 245.207031 299.855469 242.546875 301.140625 C 239.890625 302.429688 237.191406 303.621094 234.449219 304.71875 C 231.707031 305.820312 228.933594 306.820312 226.121094 307.722656 C 223.308594 308.625 220.46875 309.429688 217.601562 310.132812 C 214.734375 310.839844 211.84375 311.441406 208.933594 311.941406 C 206.023438 312.445312 203.097656 312.84375 200.160156 313.140625 C 197.222656 313.4375 194.277344 313.628906 191.328125 313.71875 L 191.328125 267.707031 C 195.320312 267.53125 199.277344 267.058594 203.203125 266.289062 C 207.125 265.515625 210.96875 264.457031 214.730469 263.105469 C 218.492188 261.757812 222.132812 260.132812 225.652344 258.234375 C 229.171875 256.332031 232.527344 254.183594 235.71875 251.777344 C 236.125 251.472656 236.457031 251.101562 236.714844 250.664062 C 236.972656 250.226562 237.140625 249.757812 237.210938 249.253906 C 237.28125 248.75 237.253906 248.253906 237.125 247.761719 C 237 247.269531 236.785156 246.820312 236.480469 246.414062 C 236.171875 246.007812 235.800781 245.675781 235.363281 245.417969 C 234.925781 245.160156 234.457031 244.996094 233.953125 244.925781 C 233.453125 244.855469 232.953125 244.882812 232.464844 245.007812 C 231.972656 245.136719 231.523438 245.351562 231.117188 245.65625 C 228.253906 247.820312 225.246094 249.753906 222.09375 251.46875 C 218.941406 253.179688 215.679688 254.648438 212.308594 255.875 C 208.9375 257.097656 205.492188 258.066406 201.976562 258.773438 C 198.460938 259.484375 194.910156 259.929688 191.328125 260.105469 L 191.328125 221.550781 C 192.367188 221.441406 193.398438 221.28125 194.421875 221.078125 C 195.449219 220.871094 196.460938 220.621094 197.464844 220.320312 C 198.46875 220.023438 199.453125 219.679688 200.425781 219.292969 C 201.394531 218.902344 202.34375 218.46875 203.277344 217.996094 C 204.207031 217.519531 205.113281 217 206 216.441406 C 206.882812 215.882812 207.738281 215.285156 208.566406 214.648438 C 209.394531 214.011719 210.195312 213.335938 210.960938 212.625 C 211.730469 211.917969 212.460938 211.171875 213.160156 210.394531 C 213.859375 209.617188 214.523438 208.808594 215.148438 207.972656 C 215.773438 207.132812 216.355469 206.269531 216.902344 205.375 C 217.449219 204.484375 217.953125 203.570312 218.414062 202.632812 C 218.875 201.691406 219.292969 200.734375 219.667969 199.761719 C 220.042969 198.785156 220.371094 197.792969 220.65625 196.785156 C 220.9375 195.78125 221.175781 194.761719 221.367188 193.734375 C 221.558594 192.707031 221.699219 191.671875 221.796875 190.628906 C 221.890625 189.589844 221.9375 188.546875 221.9375 187.5 C 221.9375 186.453125 221.890625 185.410156 221.796875 184.371094 C 221.699219 183.328125 221.558594 182.292969 221.367188 181.265625 C 221.175781 180.238281 220.9375 179.21875 220.65625 178.214844 C 220.371094 177.207031 220.042969 176.214844 219.667969 175.238281 C 219.292969 174.265625 218.875 173.308594 218.414062 172.367188 C 217.953125 171.429688 217.449219 170.515625 216.902344 169.625 C 216.355469 168.730469 215.773438 167.867188 215.148438 167.027344 C 214.523438 166.191406 213.859375 165.382812 213.160156 164.605469 C 212.460938 163.828125 211.730469 163.082031 210.960938 162.375 C 210.195312 161.664062 209.394531 160.988281 208.566406 160.351562 C 207.738281 159.714844 206.882812 159.117188 206 158.558594 C 205.113281 158 204.207031 157.480469 203.277344 157.003906 C 202.34375 156.53125 201.394531 156.097656 200.425781 155.707031 C 199.453125 155.320312 198.46875 154.976562 197.464844 154.679688 C 196.460938 154.378906 195.449219 154.128906 194.421875 153.921875 C 193.398438 153.71875 192.367188 153.558594 191.328125 153.449219 L 191.328125 114.898438 C 192.871094 114.976562 194.410156 115.109375 195.949219 115.289062 C 197.484375 115.46875 199.011719 115.699219 200.535156 115.976562 C 202.054688 116.253906 203.566406 116.578125 205.066406 116.953125 C 206.570312 117.324219 208.054688 117.746094 209.53125 118.214844 C 211.003906 118.683594 212.460938 119.199219 213.902344 119.761719 C 215.34375 120.324219 216.765625 120.929688 218.167969 121.582031 C 219.570312 122.238281 220.949219 122.933594 222.308594 123.671875 C 223.664062 124.414062 225 125.199219 226.304688 126.023438 C 227.613281 126.847656 228.894531 127.714844 230.148438 128.621094 C 231.398438 129.53125 232.621094 130.476562 233.8125 131.460938 C 235.007812 132.445312 236.164062 133.46875 237.292969 134.527344 C 238.417969 135.589844 239.511719 136.683594 240.570312 137.8125 C 241.625 138.941406 242.644531 140.101562 243.628906 141.296875 C 244.613281 142.488281 245.554688 143.714844 246.460938 144.96875 C 247.367188 146.222656 248.230469 147.503906 249.054688 148.816406 C 249.875 150.125 250.65625 151.457031 251.394531 152.816406 C 252.132812 154.175781 252.828125 155.558594 253.476562 156.960938 C 254.125 158.367188 254.730469 159.789062 255.289062 161.230469 C 255.847656 162.671875 256.359375 164.132812 256.828125 165.605469 C 257.292969 167.082031 257.710938 168.570312 258.082031 170.070312 C 258.453125 171.574219 258.777344 173.085938 259.050781 174.605469 C 259.324219 176.128906 259.550781 177.65625 259.726562 179.195312 C 259.902344 180.730469 260.03125 182.273438 260.109375 183.816406 C 260.1875 185.359375 260.21875 186.90625 260.199219 188.453125 C 260.179688 190 260.109375 191.542969 259.988281 193.085938 C 259.871094 194.628906 259.703125 196.164062 259.488281 197.695312 C 259.269531 199.226562 259.003906 200.75 258.691406 202.265625 C 258.378906 203.78125 258.015625 205.28125 257.605469 206.773438 C 257.195312 208.265625 256.738281 209.742188 256.234375 211.203125 C 255.730469 212.667969 255.179688 214.113281 254.585938 215.539062 C 253.988281 216.964844 253.347656 218.375 252.660156 219.757812 C 251.976562 221.144531 251.246094 222.507812 250.472656 223.847656 C 250.21875 224.289062 250.058594 224.757812 249.992188 225.261719 C 249.925781 225.765625 249.957031 226.261719 250.085938 226.75 C 250.21875 227.242188 250.4375 227.6875 250.746094 228.089844 C 251.054688 228.492188 251.429688 228.820312 251.867188 229.078125 C 252.304688 229.332031 252.777344 229.492188 253.28125 229.558594 C 253.78125 229.625 254.28125 229.59375 254.769531 229.460938 C 255.261719 229.332031 255.707031 229.113281 256.109375 228.804688 C 256.511719 228.496094 256.839844 228.121094 257.09375 227.683594 C 257.953125 226.199219 258.761719 224.691406 259.519531 223.15625 C 260.28125 221.621094 260.992188 220.0625 261.652344 218.480469 C 262.3125 216.898438 262.921875 215.300781 263.480469 213.679688 C 264.035156 212.058594 264.542969 210.425781 264.996094 208.773438 C 265.449219 207.121094 265.847656 205.457031 266.195312 203.777344 C 266.542969 202.101562 266.835938 200.414062 267.074219 198.71875 C 267.3125 197.019531 267.496094 195.316406 267.625 193.609375 C 267.757812 191.902344 267.832031 190.191406 267.851562 188.476562 C 267.871094 186.765625 267.835938 185.054688 267.746094 183.34375 C 267.660156 181.632812 267.515625 179.925781 267.316406 178.222656 C 267.117188 176.523438 266.863281 174.828125 266.558594 173.144531 C 266.25 171.457031 265.890625 169.785156 265.476562 168.121094 C 265.0625 166.460938 264.59375 164.8125 264.074219 163.179688 C 263.554688 161.546875 262.984375 159.933594 262.363281 158.335938 C 261.738281 156.742188 261.066406 155.167969 260.339844 153.613281 C 259.617188 152.0625 258.84375 150.535156 258.023438 149.03125 C 257.203125 147.527344 256.332031 146.050781 255.417969 144.605469 C 254.5 143.15625 253.539062 141.738281 252.535156 140.355469 C 251.527344 138.96875 250.476562 137.617188 249.382812 136.296875 C 248.289062 134.976562 247.15625 133.695312 245.980469 132.449219 C 244.804688 131.203125 243.589844 129.996094 242.339844 128.828125 C 241.085938 127.65625 239.796875 126.53125 238.472656 125.445312 C 237.148438 124.359375 235.789062 123.316406 234.398438 122.316406 C 233.007812 121.316406 231.582031 120.363281 230.132812 119.457031 C 228.679688 118.546875 227.199219 117.6875 225.691406 116.875 C 224.183594 116.058594 222.652344 115.296875 221.09375 114.582031 C 219.539062 113.867188 217.960938 113.199219 216.359375 112.585938 C 214.761719 111.972656 213.144531 111.410156 211.507812 110.898438 C 209.875 110.386719 208.222656 109.929688 206.558594 109.527344 C 204.894531 109.121094 203.21875 108.769531 201.53125 108.472656 C 199.84375 108.171875 198.148438 107.929688 196.449219 107.742188 C 194.746094 107.550781 193.039062 107.417969 191.328125 107.335938 L 191.328125 61.28125 C 196.882812 61.441406 202.40625 61.972656 207.894531 62.867188 C 213.382812 63.757812 218.785156 65.011719 224.109375 66.621094 C 229.429688 68.230469 234.621094 70.183594 239.683594 72.480469 C 244.746094 74.78125 249.636719 77.402344 254.351562 80.347656 C 254.78125 80.617188 255.246094 80.792969 255.75 80.875 C 256.25 80.960938 256.746094 80.945312 257.242188 80.832031 C 257.734375 80.714844 258.1875 80.511719 258.601562 80.21875 C 259.015625 79.921875 259.355469 79.558594 259.625 79.128906 C 259.894531 78.699219 260.070312 78.234375 260.152344 77.734375 C 260.234375 77.234375 260.222656 76.734375 260.105469 76.242188 C 259.992188 75.746094 259.785156 75.292969 259.492188 74.878906 C 259.195312 74.46875 258.832031 74.128906 258.402344 73.859375 C 253.382812 70.730469 248.179688 67.945312 242.789062 65.511719 C 237.402344 63.074219 231.875 61.003906 226.210938 59.300781 C 220.546875 57.601562 214.792969 56.28125 208.953125 55.34375 C 203.113281 54.40625 197.238281 53.859375 191.328125 53.703125 L 191.328125 7.75 C 194.230469 7.8125 197.128906 7.941406 200.023438 8.144531 C 202.921875 8.34375 205.808594 8.617188 208.691406 8.957031 C 211.574219 9.296875 214.449219 9.710938 217.3125 10.191406 C 220.175781 10.671875 223.023438 11.21875 225.863281 11.839844 C 228.699219 12.457031 231.519531 13.144531 234.320312 13.898438 C 237.125 14.652344 239.90625 15.476562 242.671875 16.367188 C 245.433594 17.257812 248.175781 18.210938 250.890625 19.234375 C 253.609375 20.257812 256.296875 21.34375 258.964844 22.5 C 261.628906 23.652344 264.261719 24.867188 266.867188 26.148438 C 269.472656 27.429688 272.046875 28.773438 274.585938 30.179688 C 277.125 31.582031 279.632812 33.050781 282.101562 34.574219 C 284.570312 36.101562 287 37.6875 289.394531 39.332031 C 291.785156 40.976562 294.136719 42.679688 296.449219 44.4375 C 298.757812 46.195312 301.023438 48.007812 303.246094 49.875 C 305.46875 51.742188 307.644531 53.664062 309.773438 55.636719 C 311.902344 57.609375 313.984375 59.636719 316.015625 61.710938 C 318.042969 63.785156 320.023438 65.90625 321.953125 68.074219 C 323.882812 70.246094 325.757812 72.460938 327.578125 74.722656 C 329.398438 76.984375 331.164062 79.285156 332.871094 81.632812 C 334.582031 83.980469 336.234375 86.367188 337.828125 88.792969 C 339.421875 91.21875 340.957031 93.683594 342.429688 96.183594 C 343.90625 98.683594 345.316406 101.21875 346.667969 103.789062 C 348.019531 106.359375 349.308594 108.957031 350.535156 111.589844 C 351.761719 114.222656 352.921875 116.882812 354.019531 119.570312 C 355.117188 122.257812 356.148438 124.96875 357.113281 127.707031 C 358.078125 130.445312 358.976562 133.207031 359.808594 135.988281 C 360.640625 138.769531 361.40625 141.566406 362.101562 144.386719 C 362.796875 147.203125 363.425781 150.039062 363.984375 152.886719 C 364.542969 155.734375 365.03125 158.597656 365.453125 161.46875 C 365.875 164.339844 366.222656 167.222656 366.503906 170.113281 C 366.785156 173 366.996094 175.894531 367.136719 178.796875 C 367.277344 181.695312 367.347656 184.597656 367.347656 187.5 C 367.347656 190.402344 367.277344 193.304688 367.136719 196.203125 C 366.996094 199.105469 366.785156 202 366.503906 204.886719 C 366.222656 207.777344 365.875 210.660156 365.453125 213.53125 C 365.03125 216.402344 364.542969 219.265625 363.984375 222.113281 C 363.425781 224.960938 362.796875 227.796875 362.101562 230.613281 C 361.40625 233.433594 360.640625 236.230469 359.808594 239.011719 C 358.976562 241.792969 358.078125 244.554688 357.113281 247.292969 C 356.148438 250.03125 355.117188 252.742188 354.019531 255.429688 C 352.921875 258.117188 351.761719 260.777344 350.535156 263.410156 C 349.308594 266.042969 348.019531 268.640625 346.667969 271.210938 C 345.316406 273.78125 343.90625 276.316406 342.429688 278.816406 C 340.957031 281.316406 339.421875 283.78125 337.828125 286.207031 C 336.234375 288.632812 334.582031 291.019531 332.871094 293.367188 C 331.164062 295.714844 329.398438 298.015625 327.578125 300.277344 C 325.757812 302.539062 323.882812 304.753906 321.953125 306.925781 C 320.023438 309.09375 318.042969 311.214844 316.015625 313.289062 C 313.984375 315.363281 311.902344 317.390625 309.773438 319.363281 C 307.644531 321.335938 305.46875 323.257812 303.246094 325.125 C 301.023438 326.992188 298.757812 328.804688 296.449219 330.5625 C 294.136719 332.320312 291.785156 334.023438 289.394531 335.667969 C 287 337.3125 284.570312 338.898438 282.101562 340.425781 C 279.632812 341.949219 277.125 343.417969 274.585938 344.820312 C 272.046875 346.226562 269.472656 347.570312 266.867188 348.851562 C 264.261719 350.132812 261.628906 351.347656 258.964844 352.5 C 256.296875 353.65625 253.609375 354.742188 250.890625 355.765625 C 248.175781 356.789062 245.433594 357.742188 242.671875 358.632812 C 239.90625 359.523438 237.125 360.347656 234.320312 361.101562 C 231.519531 361.855469 228.699219 362.542969 225.863281 363.160156 C 223.023438 363.78125 220.175781 364.328125 217.3125 364.808594 C 214.449219 365.289062 211.574219 365.703125 208.691406 366.042969 C 205.808594 366.382812 202.921875 366.65625 200.023438 366.855469 C 197.128906 367.058594 194.230469 367.1875 191.328125 367.25 Z M 191.328125 367.25 " fill-opacity="1" fill-rule="nonzero"/></svg>