<svg xmlns="http://www.w3.org/2000/svg" xmlns:xlink="http://www.w3.org/1999/xlink" width="500" zoomAndPan="magnify" viewBox="0 0 375 374.999991" height="500" preserveAspectRatio="xMidYMid meet" version="1.0"><defs><clipPath id="c9fdeec7a7"><path d="M 138 310 L 225 310 L 225 357.5625 L 138 357.5625 Z M 138 310 " clip-rule="nonzero"/></clipPath></defs><path fill="#000000" d="M 54.320312 285.410156 C 53.15625 285.410156 51.980469 285.253906 50.808594 284.929688 L 10.074219 273.574219 C 6.660156 272.625 3.828125 270.394531 2.101562 267.296875 C 0.371094 264.199219 -0.0390625 260.613281 0.945312 257.207031 L 32.425781 147.910156 C 34.421875 140.980469 41.691406 136.917969 48.628906 138.855469 L 89.363281 150.210938 C 92.777344 151.160156 95.609375 153.390625 97.335938 156.488281 C 99.0625 159.585938 99.476562 163.171875 98.492188 166.578125 L 67.007812 275.875 C 65.351562 281.632812 60.046875 285.410156 54.320312 285.410156 Z M 53.089844 276.730469 C 55.554688 277.417969 58.132812 275.976562 58.839844 273.515625 L 90.324219 164.21875 C 90.671875 163.011719 90.527344 161.738281 89.914062 160.636719 C 89.300781 159.539062 88.296875 158.746094 87.082031 158.40625 L 46.347656 147.054688 C 43.886719 146.367188 41.304688 147.808594 40.597656 150.269531 L 9.113281 259.5625 C 8.761719 260.773438 8.910156 262.046875 9.523438 263.148438 C 10.136719 264.246094 11.140625 265.039062 12.351562 265.375 Z M 53.089844 276.730469 " fill-opacity="1" fill-rule="nonzero"/><path fill="#000000" d="M 39.441406 265.460938 C 38.15625 265.460938 36.867188 265.285156 35.59375 264.933594 C 31.925781 263.910156 28.875 261.519531 27 258.199219 C 25.128906 254.878906 24.660156 251.023438 25.683594 247.351562 C 26.703125 243.679688 29.09375 240.625 32.410156 238.75 C 35.726562 236.875 39.574219 236.402344 43.246094 237.429688 C 46.914062 238.453125 49.964844 240.84375 51.839844 244.164062 C 53.710938 247.484375 54.179688 251.335938 53.15625 255.007812 C 52.136719 258.683594 49.746094 261.738281 46.429688 263.613281 C 44.261719 264.835938 41.863281 265.460938 39.441406 265.460938 Z M 39.421875 245.414062 C 36.902344 245.414062 34.582031 247.085938 33.871094 249.632812 C 33.460938 251.117188 33.648438 252.671875 34.40625 254.011719 C 35.160156 255.355469 36.390625 256.320312 37.875 256.730469 C 39.359375 257.148438 40.910156 256.957031 42.25 256.199219 C 43.589844 255.441406 44.554688 254.210938 44.964844 252.726562 C 45.378906 251.242188 45.191406 249.6875 44.433594 248.347656 C 43.679688 247.003906 42.445312 246.039062 40.964844 245.625 C 40.449219 245.484375 39.929688 245.414062 39.421875 245.414062 Z M 39.421875 245.414062 " fill-opacity="1" fill-rule="nonzero"/><path fill="#000000" d="M 320.59375 285.410156 C 314.867188 285.410156 309.5625 281.632812 307.90625 275.871094 L 276.421875 166.578125 C 275.4375 163.167969 275.847656 159.585938 277.578125 156.488281 C 279.304688 153.390625 282.136719 151.160156 285.550781 150.207031 L 326.285156 138.855469 C 333.222656 136.921875 340.492188 140.980469 342.488281 147.910156 L 373.972656 257.207031 C 374.953125 260.613281 374.542969 264.199219 372.8125 267.296875 C 371.085938 270.394531 368.253906 272.625 364.839844 273.574219 L 324.105469 284.929688 C 322.9375 285.257812 321.757812 285.410156 320.59375 285.410156 Z M 329.8125 146.882812 C 329.402344 146.882812 328.980469 146.9375 328.566406 147.054688 L 287.832031 158.40625 C 286.617188 158.746094 285.613281 159.535156 285 160.636719 C 284.386719 161.738281 284.238281 163.011719 284.589844 164.21875 L 316.074219 273.515625 C 316.78125 275.976562 319.363281 277.417969 321.828125 276.730469 L 362.5625 265.375 C 363.773438 265.039062 364.777344 264.246094 365.390625 263.148438 C 366.007812 262.046875 366.152344 260.773438 365.800781 259.5625 L 334.320312 150.269531 C 333.730469 148.222656 331.847656 146.882812 329.8125 146.882812 Z M 327.425781 142.953125 L 327.433594 142.953125 Z M 327.425781 142.953125 " fill-opacity="1" fill-rule="nonzero"/><path fill="#000000" d="M 314.902344 191.394531 C 308.660156 191.394531 302.914062 187.253906 301.160156 180.949219 C 300.136719 177.273438 300.605469 173.421875 302.480469 170.101562 C 304.351562 166.78125 307.402344 164.390625 311.074219 163.367188 C 314.742188 162.34375 318.589844 162.8125 321.90625 164.6875 C 325.222656 166.558594 327.613281 169.617188 328.632812 173.289062 C 330.742188 180.871094 326.296875 188.757812 318.722656 190.871094 C 317.449219 191.226562 316.164062 191.394531 314.902344 191.394531 Z M 314.90625 171.351562 C 314.386719 171.351562 313.867188 171.421875 313.351562 171.566406 C 311.871094 171.980469 310.640625 172.945312 309.882812 174.285156 C 309.125 175.625 308.9375 177.183594 309.351562 178.664062 C 309.761719 180.148438 310.726562 181.382812 312.066406 182.140625 C 313.40625 182.894531 314.957031 183.085938 316.441406 182.671875 C 317.921875 182.257812 319.15625 181.292969 319.910156 179.953125 C 320.667969 178.613281 320.855469 177.054688 320.445312 175.574219 C 320.03125 174.089844 319.066406 172.855469 317.726562 172.097656 C 316.851562 171.605469 315.882812 171.351562 314.90625 171.351562 Z M 314.90625 171.351562 " fill-opacity="1" fill-rule="nonzero"/><path fill="#000000" d="M 270.351562 285.96875 C 268.074219 285.96875 266.191406 284.164062 266.105469 281.867188 C 266.023438 279.519531 267.851562 277.550781 270.195312 277.460938 C 270.40625 277.453125 291.417969 276.523438 307.828125 265.152344 C 309.757812 263.816406 312.40625 264.296875 313.742188 266.230469 C 315.078125 268.164062 314.59375 270.816406 312.664062 272.152344 C 294.160156 284.972656 271.464844 285.933594 270.507812 285.964844 C 270.457031 285.96875 270.402344 285.96875 270.351562 285.96875 Z M 270.351562 285.96875 " fill-opacity="1" fill-rule="nonzero"/><path fill="#000000" d="M 78.5625 281.027344 C 77.472656 281.027344 76.386719 280.609375 75.554688 279.78125 L 62.957031 267.167969 C 61.296875 265.503906 61.296875 262.808594 62.957031 261.148438 C 64.617188 259.488281 67.308594 259.488281 68.96875 261.148438 L 81.566406 273.761719 C 83.226562 275.421875 83.226562 278.117188 81.566406 279.78125 C 80.738281 280.609375 79.648438 281.027344 78.5625 281.027344 Z M 78.5625 281.027344 " fill-opacity="1" fill-rule="nonzero"/><g clip-path="url(#c9fdeec7a7)"><path fill="#000000" d="M 161.992188 357.316406 C 156.445312 357.316406 150.894531 355.203125 146.671875 350.972656 L 139.417969 343.714844 C 137.757812 342.050781 137.757812 339.355469 139.417969 337.695312 C 141.078125 336.035156 143.769531 336.035156 145.429688 337.695312 L 152.683594 344.957031 C 157.816406 350.09375 166.167969 350.09375 171.296875 344.957031 C 173.789062 342.476562 175.15625 339.171875 175.15625 335.640625 C 175.15625 333.929688 174.832031 332.257812 174.191406 330.675781 C 173.535156 329.046875 172.566406 327.582031 171.300781 326.320312 C 169.640625 324.65625 169.640625 321.960938 171.296875 320.300781 C 172.957031 318.636719 175.648438 318.636719 177.308594 320.300781 L 193.453125 336.453125 C 198.589844 341.589844 206.941406 341.589844 212.074219 336.453125 C 214.558594 333.964844 215.929688 330.652344 215.929688 327.128906 C 215.929688 323.613281 214.558594 320.304688 212.074219 317.816406 C 210.414062 316.152344 210.414062 313.460938 212.074219 311.796875 C 213.730469 310.136719 216.425781 310.136719 218.082031 311.796875 C 222.175781 315.894531 224.429688 321.339844 224.429688 327.132812 C 224.429688 332.925781 222.175781 338.375 218.082031 342.472656 C 209.636719 350.929688 195.890625 350.929688 187.441406 342.472656 L 183.472656 338.5 C 182.855469 343.222656 180.71875 347.578125 177.300781 350.980469 C 173.085938 355.203125 167.539062 357.316406 161.992188 357.316406 Z M 161.992188 357.316406 " fill-opacity="1" fill-rule="nonzero"/></g><path fill="#000000" d="M 234.484375 331.265625 C 228.695312 331.265625 223.257812 329.011719 219.164062 324.914062 L 179.507812 285.214844 C 177.847656 283.554688 177.847656 280.859375 179.507812 279.195312 C 181.167969 277.535156 183.859375 277.535156 185.519531 279.195312 L 225.175781 318.894531 C 227.664062 321.386719 230.96875 322.757812 234.484375 322.757812 C 238.003906 322.757812 241.308594 321.386719 243.796875 318.894531 C 248.929688 313.757812 248.929688 305.394531 243.796875 300.257812 L 204.140625 260.558594 C 202.480469 258.894531 202.480469 256.203125 204.140625 254.539062 C 205.796875 252.878906 208.492188 252.878906 210.148438 254.539062 L 249.804688 294.238281 C 258.253906 302.695312 258.253906 316.457031 249.804688 324.914062 C 245.714844 329.011719 240.273438 331.265625 234.484375 331.265625 Z M 234.484375 331.265625 " fill-opacity="1" fill-rule="nonzero"/><path fill="#000000" d="M 253.167969 300.652344 C 247.378906 300.652344 241.9375 298.394531 237.84375 294.296875 C 236.183594 292.636719 236.183594 289.941406 237.847656 288.277344 C 239.507812 286.617188 242.195312 286.617188 243.855469 288.277344 C 246.34375 290.769531 249.648438 292.140625 253.167969 292.140625 C 256.683594 292.140625 259.988281 290.769531 262.476562 288.277344 C 264.449219 286.296875 265.726562 283.792969 266.15625 281.050781 C 266.273438 280.347656 266.328125 279.660156 266.328125 278.957031 C 266.328125 275.441406 264.960938 272.128906 262.472656 269.632812 L 199.511719 206.605469 C 194.929688 202.019531 188.210938 200.261719 181.972656 202.015625 C 178.773438 202.917969 175.894531 204.691406 173.640625 207.136719 L 154.019531 228.46875 C 153.980469 228.511719 153.941406 228.550781 153.898438 228.59375 C 144.671875 237.832031 129.652344 237.832031 120.421875 228.59375 C 113.011719 221.171875 111.335938 209.972656 116.25 200.722656 C 122.554688 188.859375 133.453125 172.589844 149.574219 162.421875 C 149.632812 162.382812 149.695312 162.347656 149.753906 162.3125 C 163.011719 154.007812 177.535156 151.214844 192.929688 154.007812 C 195.238281 154.34375 227.273438 159.273438 252.402344 176.515625 L 279.628906 164.734375 C 281.78125 163.804688 284.289062 164.796875 285.21875 166.953125 C 286.148438 169.109375 285.15625 171.617188 283.003906 172.546875 L 253.589844 185.277344 C 252.210938 185.871094 250.625 185.695312 249.410156 184.816406 C 225.320312 167.378906 191.980469 162.46875 191.644531 162.421875 C 191.589844 162.414062 191.535156 162.40625 191.480469 162.394531 C 178.152344 159.960938 165.582031 162.390625 154.113281 169.625 C 154.058594 169.65625 154.003906 169.691406 153.945312 169.722656 C 139.492188 178.902344 129.554688 193.8125 123.757812 204.71875 C 120.605469 210.644531 121.683594 217.820312 126.433594 222.574219 C 132.328125 228.476562 141.90625 228.496094 147.828125 222.632812 L 167.386719 201.371094 C 170.707031 197.765625 174.953125 195.152344 179.667969 193.828125 C 188.863281 191.234375 198.769531 193.824219 205.523438 200.585938 L 268.488281 263.621094 C 272.578125 267.726562 274.832031 273.171875 274.832031 278.957031 C 274.832031 280.132812 274.734375 281.296875 274.546875 282.421875 C 273.84375 286.902344 271.746094 291.023438 268.492188 294.292969 C 264.394531 298.394531 258.953125 300.652344 253.167969 300.652344 Z M 253.167969 300.652344 " fill-opacity="1" fill-rule="nonzero"/><path fill="#000000" d="M 92.828125 175.636719 C 90.886719 175.636719 89.136719 174.296875 88.6875 172.324219 C 88.167969 170.03125 89.597656 167.75 91.886719 167.230469 C 119.523438 160.929688 150.601562 161.730469 151.949219 161.769531 C 154.246094 161.824219 156.097656 163.707031 156.097656 166.023438 C 156.097656 168.414062 154.117188 170.339844 151.722656 170.277344 C 150.441406 170.238281 120.390625 169.460938 93.777344 175.527344 C 93.457031 175.601562 93.140625 175.636719 92.828125 175.636719 Z M 92.828125 175.636719 " fill-opacity="1" fill-rule="nonzero"/><path fill="#000000" d="M 227.410156 172.375 C 225.957031 172.375 224.546875 171.632812 223.75 170.292969 C 222.550781 168.273438 223.214844 165.660156 225.234375 164.460938 C 247.609375 151.148438 261.511719 126.714844 261.511719 100.691406 C 261.511719 60.121094 228.554688 26.871094 188.042969 26.570312 C 187.980469 26.570312 187.917969 26.566406 187.855469 26.566406 C 187.722656 26.558594 187.597656 26.558594 187.460938 26.558594 C 187.332031 26.558594 187.203125 26.558594 187.070312 26.566406 C 187.007812 26.566406 186.945312 26.570312 186.882812 26.570312 C 146.363281 26.871094 113.402344 60.121094 113.402344 100.691406 C 113.402344 113.730469 116.832031 126.542969 123.316406 137.746094 C 129 147.601562 137.007812 156.140625 146.476562 162.445312 C 148.429688 163.746094 148.960938 166.386719 147.660156 168.34375 C 146.363281 170.300781 143.722656 170.832031 141.769531 169.53125 C 131.214844 162.503906 122.289062 152.988281 115.957031 142.007812 C 108.726562 129.515625 104.902344 115.230469 104.902344 100.691406 C 104.902344 78.726562 113.414062 58.046875 128.871094 42.464844 C 144.300781 26.910156 164.847656 18.246094 186.738281 18.0625 C 187.222656 18.042969 187.703125 18.042969 188.191406 18.0625 C 210.070312 18.246094 230.617188 26.910156 246.042969 42.464844 C 261.5 58.050781 270.011719 78.726562 270.011719 100.691406 C 270.011719 129.703125 254.519531 156.941406 229.578125 171.777344 C 228.894531 172.183594 228.148438 172.375 227.410156 172.375 Z M 227.410156 172.375 " fill-opacity="1" fill-rule="nonzero"/><path fill="#000000" d="M 209.496094 166.304688 C 208.785156 166.304688 208.0625 166.125 207.402344 165.75 C 205.359375 164.59375 204.644531 161.996094 205.800781 159.949219 C 209.113281 154.097656 211.878906 146.984375 214.019531 138.804688 C 217.019531 127.277344 218.609375 114.097656 218.609375 100.691406 C 218.609375 87.3125 217.023438 74.140625 214.027344 62.609375 C 208.40625 41.101562 198.15625 26.953125 187.914062 26.566406 C 187.71875 26.558594 187.59375 26.5625 187.460938 26.5625 C 187.328125 26.5625 187.203125 26.558594 187.070312 26.566406 C 176.761719 26.953125 166.507812 41.101562 160.886719 62.613281 C 157.886719 74.140625 156.304688 87.3125 156.304688 100.691406 C 156.304688 114.097656 157.890625 127.277344 160.894531 138.804688 C 162.8125 146.113281 165.238281 152.59375 168.097656 158.0625 C 169.1875 160.144531 168.386719 162.714844 166.304688 163.804688 C 164.226562 164.898438 161.65625 164.09375 160.566406 162.011719 C 157.410156 155.976562 154.753906 148.894531 152.671875 140.960938 C 149.484375 128.734375 147.800781 114.8125 147.800781 100.691406 C 147.800781 86.597656 149.480469 72.6875 152.660156 60.464844 C 159.457031 34.457031 172.175781 18.605469 186.691406 18.0625 C 187.132812 18.039062 187.726562 18.035156 188.292969 18.066406 C 202.738281 18.605469 215.457031 34.453125 222.25 60.460938 C 225.429688 72.6875 227.109375 86.597656 227.109375 100.691406 C 227.109375 114.8125 225.425781 128.734375 222.242188 140.953125 C 219.917969 149.851562 216.871094 157.65625 213.195312 164.148438 C 212.414062 165.53125 210.976562 166.304688 209.496094 166.304688 Z M 209.496094 166.304688 " fill-opacity="1" fill-rule="nonzero"/><path fill="#000000" d="M 265.761719 104.945312 L 109.15625 104.945312 C 106.808594 104.945312 104.902344 103.039062 104.902344 100.6875 C 104.902344 98.339844 106.808594 96.433594 109.15625 96.433594 L 265.761719 96.433594 C 268.109375 96.433594 270.011719 98.339844 270.011719 100.6875 C 270.011719 103.039062 268.109375 104.945312 265.761719 104.945312 Z M 265.761719 104.945312 " fill-opacity="1" fill-rule="nonzero"/><path fill="#000000" d="M 255.277344 144.140625 L 119.636719 144.140625 C 117.289062 144.140625 115.386719 142.234375 115.386719 139.882812 C 115.386719 137.535156 117.289062 135.628906 119.636719 135.628906 L 255.277344 135.628906 C 257.625 135.628906 259.53125 137.535156 259.53125 139.882812 C 259.53125 142.234375 257.625 144.140625 255.277344 144.140625 Z M 255.277344 144.140625 " fill-opacity="1" fill-rule="nonzero"/><path fill="#000000" d="M 255.308594 65.789062 L 119.609375 65.789062 C 117.261719 65.789062 115.355469 63.882812 115.355469 61.53125 C 115.355469 59.183594 117.261719 57.277344 119.609375 57.277344 L 255.308594 57.277344 C 257.65625 57.277344 259.558594 59.183594 259.558594 61.53125 C 259.558594 63.882812 257.65625 65.789062 255.308594 65.789062 Z M 255.308594 65.789062 " fill-opacity="1" fill-rule="nonzero"/><path fill="#000000" d="M 88.445312 297.945312 C 84.28125 297.945312 80.367188 296.320312 77.421875 293.371094 C 74.476562 290.421875 72.851562 286.503906 72.851562 282.332031 C 72.851562 278.164062 74.476562 274.242188 77.421875 271.292969 L 90.835938 257.867188 C 96.914062 251.777344 106.804688 251.78125 112.886719 257.863281 C 115.832031 260.8125 117.453125 264.734375 117.453125 268.902344 C 117.453125 273.074219 115.832031 276.996094 112.886719 279.945312 C 111.226562 281.605469 108.535156 281.605469 106.875 279.941406 C 105.214844 278.28125 105.214844 275.585938 106.875 273.925781 C 108.214844 272.585938 108.953125 270.800781 108.953125 268.90625 C 108.953125 267.007812 108.214844 265.226562 106.875 263.886719 C 104.109375 261.117188 99.609375 261.117188 96.84375 263.886719 L 83.429688 277.3125 C 82.089844 278.652344 81.355469 280.4375 81.355469 282.332031 C 81.355469 284.230469 82.09375 286.011719 83.429688 287.351562 C 84.769531 288.695312 86.550781 289.433594 88.445312 289.433594 C 90.339844 289.433594 92.121094 288.695312 93.460938 287.355469 C 95.121094 285.691406 97.8125 285.691406 99.472656 287.351562 C 101.132812 289.015625 101.132812 291.710938 99.472656 293.371094 C 96.527344 296.320312 92.613281 297.945312 88.445312 297.945312 Z M 88.445312 297.945312 " fill-opacity="1" fill-rule="nonzero"/><path fill="#000000" d="M 99.707031 318.78125 C 95.714844 318.78125 91.71875 317.261719 88.679688 314.21875 C 85.734375 311.269531 84.113281 307.347656 84.113281 303.179688 C 84.113281 299.007812 85.734375 295.089844 88.679688 292.140625 L 106.875 273.925781 C 112.957031 267.835938 122.847656 267.839844 128.929688 273.925781 C 131.875 276.875 133.496094 280.792969 133.496094 284.964844 C 133.496094 289.132812 131.875 293.054688 128.929688 296.003906 C 127.269531 297.664062 124.578125 297.664062 122.917969 296 C 121.257812 294.339844 121.257812 291.644531 122.917969 289.984375 C 124.253906 288.644531 124.992188 286.859375 124.992188 284.964844 C 124.992188 283.066406 124.253906 281.285156 122.917969 279.945312 C 120.152344 277.175781 115.652344 277.175781 112.886719 279.945312 L 94.691406 298.160156 C 93.351562 299.5 92.613281 301.28125 92.613281 303.179688 C 92.613281 305.074219 93.351562 306.859375 94.691406 308.199219 C 97.457031 310.96875 101.957031 310.96875 104.722656 308.199219 C 106.382812 306.539062 109.074219 306.539062 110.734375 308.199219 C 112.394531 309.859375 112.394531 312.554688 110.734375 314.21875 C 107.691406 317.261719 103.699219 318.78125 99.707031 318.78125 Z M 99.707031 318.78125 " fill-opacity="1" fill-rule="nonzero"/><path fill="#000000" d="M 110.464844 340.128906 C 106.472656 340.128906 102.480469 338.609375 99.441406 335.566406 C 96.496094 332.617188 94.875 328.695312 94.875 324.527344 C 94.875 320.355469 96.496094 316.4375 99.441406 313.488281 L 122.917969 289.984375 C 129 283.898438 138.894531 283.898438 144.972656 289.984375 C 147.917969 292.933594 149.539062 296.851562 149.539062 301.023438 C 149.539062 305.191406 147.917969 309.113281 144.972656 312.0625 L 121.492188 335.566406 C 118.453125 338.609375 114.457031 340.128906 110.464844 340.128906 Z M 105.449219 329.546875 C 108.214844 332.316406 112.714844 332.316406 115.480469 329.546875 L 138.960938 306.042969 C 140.300781 304.703125 141.035156 302.917969 141.035156 301.023438 C 141.035156 299.128906 140.296875 297.34375 138.960938 296.003906 C 136.195312 293.234375 131.695312 293.234375 128.929688 296.003906 L 105.453125 319.507812 C 104.113281 320.847656 103.375 322.632812 103.375 324.527344 C 103.375 326.421875 104.109375 328.207031 105.449219 329.546875 Z M 105.449219 329.546875 " fill-opacity="1" fill-rule="nonzero"/><path fill="#000000" d="M 133.320312 349.371094 C 129.324219 349.371094 125.332031 347.847656 122.292969 344.804688 C 119.347656 341.855469 117.726562 337.9375 117.726562 333.765625 C 117.726562 329.597656 119.347656 325.675781 122.292969 322.726562 C 123.953125 321.066406 126.644531 321.066406 128.304688 322.726562 C 129.964844 324.390625 129.964844 327.082031 128.304688 328.746094 C 126.964844 330.085938 126.226562 331.871094 126.226562 333.765625 C 126.226562 335.660156 126.964844 337.445312 128.304688 338.785156 C 131.070312 341.554688 135.570312 341.554688 138.335938 338.785156 L 155 322.101562 C 156.339844 320.761719 157.078125 318.976562 157.078125 317.082031 C 157.078125 315.183594 156.339844 313.402344 155 312.058594 C 152.234375 309.292969 147.734375 309.292969 144.96875 312.0625 C 143.308594 313.722656 140.617188 313.722656 138.957031 312.058594 C 137.296875 310.398438 137.296875 307.703125 138.957031 306.042969 C 145.039062 299.957031 154.929688 299.957031 161.011719 306.042969 C 163.957031 308.992188 165.578125 312.910156 165.578125 317.082031 C 165.578125 321.25 163.957031 325.171875 161.011719 328.121094 L 144.34375 344.804688 C 141.304688 347.847656 137.3125 349.371094 133.320312 349.371094 Z M 133.320312 349.371094 " fill-opacity="1" fill-rule="nonzero"/></svg>