<svg xmlns="http://www.w3.org/2000/svg" xmlns:xlink="http://www.w3.org/1999/xlink" width="500" zoomAndPan="magnify" viewBox="0 0 375 374.999991" height="500" preserveAspectRatio="xMidYMid meet" version="1.0"><defs><clipPath id="bba098734a"><path d="M 175 269 L 187 269 L 187 369.65625 L 175 369.65625 Z M 175 269 " clip-rule="nonzero"/></clipPath><clipPath id="58f809821e"><path d="M 154 5.15625 L 220 5.15625 L 220 135 L 154 135 Z M 154 5.15625 " clip-rule="nonzero"/></clipPath></defs><path fill="#393536" d="M 370.84375 221.585938 C 368.953125 224.164062 365.324219 224.714844 362.753906 222.828125 C 360.175781 220.945312 359.617188 217.316406 361.503906 214.75 C 363.394531 212.171875 367.019531 211.613281 369.589844 213.503906 C 368.949219 213.027344 368.3125 212.558594 369.589844 213.503906 C 370.058594 213.839844 370.269531 213.996094 370.316406 214.035156 C 370.234375 213.972656 369.917969 213.738281 369.597656 213.507812 C 372.171875 215.394531 372.726562 219.015625 370.84375 221.585938 Z M 358.238281 170.480469 C 361.433594 170.472656 364.027344 173.066406 364.03125 176.257812 C 364.035156 179.449219 361.4375 182.039062 358.246094 182.039062 C 355.050781 182.046875 352.460938 179.460938 352.460938 176.257812 C 352.449219 173.078125 355.042969 170.480469 358.238281 170.480469 Z M 370.640625 212.066406 C 367.808594 209.996094 364.003906 210.191406 361.40625 212.3125 L 350.070312 204.167969 L 291.953125 204.195312 L 306.84375 178.070312 L 350.898438 178.046875 C 351.703125 181.351562 354.6875 183.820312 358.246094 183.8125 C 362.417969 183.820312 365.808594 180.425781 365.808594 176.257812 C 365.800781 172.089844 362.410156 168.703125 358.238281 168.707031 C 354.679688 168.714844 351.695312 171.183594 350.894531 174.492188 L 304.769531 174.519531 L 287.859375 204.207031 L 254.601562 204.230469 L 254.601562 209.648438 L 285.1875 230.882812 L 316.996094 230.863281 C 317.78125 233.6875 320.359375 235.757812 323.433594 235.757812 C 327.117188 235.757812 330.105469 232.765625 330.101562 229.078125 C 330.097656 225.394531 327.109375 222.40625 323.425781 222.414062 C 320.355469 222.417969 317.773438 224.488281 316.996094 227.3125 L 286.300781 227.335938 L 258.125 207.777344 L 348.910156 207.710938 L 359.257812 215.136719 C 357.863281 218.308594 358.792969 222.128906 361.703125 224.265625 C 365.070312 226.726562 369.800781 225.992188 372.269531 222.636719 C 374.734375 219.277344 374.011719 214.53125 370.640625 212.066406 " fill-opacity="1" fill-rule="nonzero"/><path fill="#393536" d="M 5.402344 213.507812 C 5.082031 213.738281 4.765625 213.972656 4.683594 214.035156 C 4.734375 213.996094 4.945312 213.839844 5.410156 213.503906 C 6.683594 212.558594 6.050781 213.027344 5.410156 213.503906 C 7.984375 211.613281 11.609375 212.171875 13.496094 214.75 C 15.382812 217.316406 14.824219 220.945312 12.25 222.828125 C 9.675781 224.714844 6.046875 224.164062 4.160156 221.585938 C 2.273438 219.015625 2.832031 215.394531 5.402344 213.507812 Z M 22.542969 176.257812 C 22.542969 179.460938 19.945312 182.046875 16.753906 182.039062 C 13.5625 182.039062 10.96875 179.449219 10.972656 176.257812 C 10.972656 173.066406 13.570312 170.472656 16.765625 170.480469 C 19.957031 170.480469 22.546875 173.078125 22.542969 176.257812 Z M 2.730469 222.636719 C 5.195312 225.992188 9.933594 226.726562 13.292969 224.265625 C 16.210938 222.128906 17.136719 218.308594 15.746094 215.136719 L 26.089844 207.710938 L 116.875 207.777344 L 88.703125 227.335938 L 58.007812 227.3125 C 57.230469 224.488281 54.648438 222.417969 51.578125 222.414062 C 47.894531 222.40625 44.902344 225.394531 44.902344 229.078125 C 44.898438 232.765625 47.886719 235.757812 51.566406 235.757812 C 54.636719 235.757812 57.21875 233.6875 58.007812 230.863281 L 89.8125 230.882812 L 120.398438 209.648438 L 120.398438 204.230469 L 87.140625 204.207031 L 70.226562 174.519531 L 24.101562 174.492188 C 23.308594 171.183594 20.324219 168.714844 16.765625 168.707031 C 12.589844 168.703125 9.203125 172.089844 9.195312 176.257812 C 9.195312 180.425781 12.582031 183.820312 16.753906 183.8125 C 20.3125 183.820312 23.296875 181.351562 24.097656 178.046875 L 68.160156 178.070312 L 83.046875 204.195312 L 24.929688 204.167969 L 13.597656 212.3125 C 10.992188 210.191406 7.1875 209.996094 4.355469 212.066406 C 0.992188 214.53125 0.269531 219.277344 2.730469 222.636719 " fill-opacity="1" fill-rule="nonzero"/><path fill="#393536" d="M 195.617188 349.363281 L 195.304688 270.699219 C 194.375 270.707031 193.4375 270.699219 192.503906 270.671875 L 192.820312 349.398438 C 190.613281 350.03125 188.996094 352.085938 189.023438 354.503906 C 189.0625 357.402344 191.4375 359.726562 194.347656 359.691406 C 197.242188 359.660156 199.574219 357.277344 199.542969 354.375 C 199.511719 351.960938 197.847656 349.953125 195.617188 349.363281 " fill-opacity="1" fill-rule="nonzero"/><path fill="#393536" d="M 228.652344 293.074219 C 226.933594 291.375 224.347656 291.101562 222.332031 292.238281 L 218.75 288.671875 L 219.082031 263.914062 C 218.214844 264.691406 217.277344 265.382812 216.265625 266.007812 L 215.964844 289.847656 L 220.371094 294.226562 C 219.238281 296.238281 219.519531 298.828125 221.238281 300.53125 C 223.296875 302.578125 226.628906 302.566406 228.671875 300.515625 C 230.722656 298.453125 230.714844 295.117188 228.652344 293.074219 " fill-opacity="1" fill-rule="nonzero"/><path fill="#393536" d="M 206.398438 331.023438 C 203.882812 331.054688 201.8125 329.035156 201.78125 326.523438 C 201.753906 324.015625 203.777344 321.945312 206.289062 321.914062 C 208.804688 321.882812 210.867188 323.902344 210.898438 326.417969 C 210.929688 328.933594 208.914062 331 206.398438 331.023438 Z M 207.679688 320.667969 L 207.65625 269.394531 C 206.742188 269.609375 205.8125 269.792969 204.863281 269.953125 L 204.878906 320.707031 C 202.269531 321.367188 200.355469 323.738281 200.386719 326.542969 C 200.421875 329.820312 203.132812 332.464844 206.410156 332.421875 C 209.699219 332.386719 212.339844 329.679688 212.304688 326.398438 C 212.265625 323.597656 210.292969 321.273438 207.679688 320.667969 " fill-opacity="1" fill-rule="nonzero"/><g clip-path="url(#bba098734a)"><path fill="#393536" d="M 182.441406 359.359375 L 181.996094 269.882812 C 181.0625 269.773438 180.128906 269.652344 179.203125 269.523438 L 179.640625 359.390625 C 177.425781 360.03125 175.8125 362.078125 175.839844 364.503906 C 175.867188 367.40625 178.253906 369.730469 181.164062 369.695312 C 184.066406 369.660156 186.394531 367.277344 186.363281 364.375 C 186.335938 361.957031 184.671875 359.949219 182.441406 359.359375 " fill-opacity="1" fill-rule="nonzero"/></g><path fill="#393536" d="M 158.109375 265.613281 C 157.132812 265.402344 156.207031 265.203125 155.324219 265.011719 L 155.050781 295.132812 L 151.546875 298.785156 C 149.511719 297.683594 146.929688 298.023438 145.253906 299.765625 C 143.242188 301.863281 143.3125 305.191406 145.410156 307.203125 C 147.496094 309.203125 150.828125 309.136719 152.835938 307.042969 C 154.515625 305.300781 154.734375 302.695312 153.566406 300.71875 L 157.855469 296.242188 L 158.109375 265.613281 " fill-opacity="1" fill-rule="nonzero"/><path fill="#393536" d="M 168.539062 349.8125 C 166.023438 349.839844 163.953125 347.820312 163.929688 345.316406 C 163.898438 342.796875 165.914062 340.730469 168.429688 340.699219 C 170.949219 340.667969 173.011719 342.691406 173.042969 345.195312 C 173.070312 347.710938 171.050781 349.785156 168.539062 349.8125 Z M 169.8125 339.457031 L 169.597656 267.960938 C 168.648438 267.789062 167.710938 267.605469 166.796875 267.425781 L 167.023438 339.488281 C 164.414062 340.148438 162.496094 342.523438 162.53125 345.324219 C 162.566406 348.605469 165.273438 351.25 168.554688 351.210938 C 171.835938 351.171875 174.484375 348.46875 174.441406 345.191406 C 174.40625 342.382812 172.4375 340.066406 169.8125 339.457031 " fill-opacity="1" fill-rule="nonzero"/><path fill="#393536" d="M 47.601562 140.589844 L 121.976562 178.550781 C 122.421875 177.675781 122.882812 176.796875 123.363281 175.925781 L 48.933594 137.9375 C 49.410156 135.539062 48.257812 133.023438 45.964844 131.871094 C 43.214844 130.492188 39.863281 131.609375 38.480469 134.363281 C 37.101562 137.109375 38.210938 140.464844 40.96875 141.84375 C 43.261719 142.992188 45.964844 142.40625 47.601562 140.589844 " fill-opacity="1" fill-rule="nonzero"/><path fill="#393536" d="M 59.664062 159.660156 C 60.859375 157.28125 63.769531 156.3125 66.15625 157.511719 C 68.53125 158.699219 69.507812 161.613281 68.3125 163.996094 C 67.117188 166.382812 64.207031 167.34375 61.824219 166.152344 C 59.429688 164.953125 58.464844 162.046875 59.664062 159.660156 Z M 68.808594 165.90625 L 117.191406 190.832031 C 117.4375 189.863281 117.71875 188.902344 118.03125 187.925781 L 70.132812 163.257812 C 70.78125 160.476562 69.472656 157.519531 66.816406 156.183594 C 63.703125 154.621094 59.894531 155.886719 58.335938 159 C 56.773438 162.117188 58.035156 165.921875 61.15625 167.484375 C 63.820312 168.804688 66.972656 168.082031 68.808594 165.90625 " fill-opacity="1" fill-rule="nonzero"/><path fill="#393536" d="M 298.542969 99.128906 L 232.519531 151.832031 C 233.140625 152.613281 233.757812 153.398438 234.363281 154.207031 L 300.433594 101.460938 C 302.445312 102.898438 305.246094 102.890625 307.269531 101.257812 C 309.683594 99.289062 310.050781 95.742188 308.089844 93.316406 C 306.132812 90.902344 302.578125 90.527344 300.148438 92.492188 C 298.136719 94.128906 297.554688 96.863281 298.542969 99.128906 " fill-opacity="1" fill-rule="nonzero"/><path fill="#393536" d="M 229.128906 108.863281 C 228.84375 111.441406 230.34375 113.804688 232.636719 114.730469 L 232.023438 120.128906 L 210.957031 136.347656 C 212.183594 136.566406 213.398438 136.894531 214.589844 137.332031 L 234.871094 121.6875 L 235.621094 115.0625 C 238.0625 114.679688 240.058594 112.707031 240.351562 110.136719 C 240.703125 107.035156 238.472656 104.238281 235.378906 103.890625 C 232.277344 103.542969 229.480469 105.769531 229.128906 108.863281 " fill-opacity="1" fill-rule="nonzero"/><path fill="#393536" d="M 275.917969 102.289062 C 277.621094 104.386719 277.300781 107.472656 275.203125 109.171875 C 273.109375 110.867188 270.015625 110.554688 268.320312 108.457031 C 266.617188 106.359375 266.941406 103.277344 269.039062 101.574219 C 271.140625 99.875 274.21875 100.191406 275.917969 102.289062 Z M 266.347656 108.113281 L 223.179688 142.308594 C 223.972656 142.933594 224.75 143.597656 225.519531 144.292969 L 268.242188 110.441406 C 270.539062 112.191406 273.8125 112.226562 276.148438 110.335938 C 278.886719 108.117188 279.304688 104.078125 277.082031 101.34375 C 274.859375 98.605469 270.828125 98.1875 268.085938 100.40625 C 265.753906 102.304688 265.109375 105.515625 266.347656 108.113281 " fill-opacity="1" fill-rule="nonzero"/><path fill="#393536" d="M 315.746094 103.550781 L 240.699219 163.566406 C 241.226562 164.429688 241.75 165.292969 242.265625 166.160156 L 317.640625 105.890625 C 319.660156 107.328125 322.453125 107.320312 324.472656 105.679688 C 326.902344 103.71875 327.269531 100.167969 325.296875 97.738281 C 323.335938 95.324219 319.78125 94.957031 317.355469 96.914062 C 315.339844 98.546875 314.757812 101.285156 315.746094 103.550781 " fill-opacity="1" fill-rule="nonzero"/><path fill="#393536" d="M 253.019531 186.507812 C 253.496094 187.46875 253.945312 188.386719 254.378906 189.25 L 279.925781 169.40625 L 285.335938 169.921875 C 285.765625 172.363281 287.765625 174.3125 290.351562 174.558594 C 293.460938 174.855469 296.214844 172.578125 296.515625 169.472656 C 296.800781 166.378906 294.53125 163.625 291.425781 163.332031 C 288.839844 163.078125 286.5 164.628906 285.613281 166.933594 L 278.988281 166.308594 L 253.019531 186.507812 " fill-opacity="1" fill-rule="nonzero"/><path fill="#393536" d="M 316.976562 121.613281 C 318.675781 123.710938 318.351562 126.792969 316.261719 128.488281 C 314.15625 130.195312 311.074219 129.875 309.375 127.777344 C 307.671875 125.679688 307.996094 122.597656 310.082031 120.902344 C 312.183594 119.203125 315.273438 119.515625 316.976562 121.613281 Z M 307.402344 127.441406 L 247.34375 175.277344 C 247.832031 176.195312 248.304688 177.101562 248.765625 177.992188 L 309.289062 129.769531 C 311.585938 131.519531 314.867188 131.558594 317.195312 129.652344 C 319.941406 127.4375 320.355469 123.398438 318.140625 120.664062 C 315.921875 117.933594 311.882812 117.511719 309.152344 119.730469 C 306.808594 121.625 306.167969 124.835938 307.402344 127.441406 " fill-opacity="1" fill-rule="nonzero"/><g clip-path="url(#58f809821e)"><path fill="#393536" d="M 193.617188 56.09375 C 191.101562 57.230469 188.136719 56.101562 187 53.59375 C 185.871094 51.078125 186.992188 48.109375 189.511719 46.980469 C 192.023438 45.847656 194.988281 46.96875 196.117188 49.488281 C 197.257812 52 196.132812 54.964844 193.617188 56.09375 Z M 179.089844 9.996094 C 178.199219 6.933594 175 5.179688 171.945312 6.058594 C 168.882812 6.945312 167.121094 10.132812 168.003906 13.191406 C 168.738281 15.742188 171.082031 17.390625 173.617188 17.359375 L 179.351562 37.191406 L 161.972656 58.695312 L 173.183594 84.636719 L 154.148438 109.089844 L 162.546875 134.675781 L 201.035156 134.695312 L 219.839844 110.523438 L 195.578125 56.683594 C 197.898438 54.871094 198.777344 51.652344 197.523438 48.855469 C 197.65625 49.148438 197.785156 49.4375 197.871094 49.621094 C 197.796875 49.472656 197.695312 49.238281 197.523438 48.855469 C 197.257812 48.265625 197.132812 48 197.101562 47.925781 C 197.148438 48.023438 197.335938 48.433594 197.523438 48.855469 C 196.039062 45.566406 192.15625 44.101562 188.882812 45.578125 C 185.589844 47.058594 184.125 50.941406 185.601562 54.222656 C 186.875 57.027344 189.890625 58.503906 192.785156 57.949219 L 216.28125 110.101562 L 199.53125 131.628906 L 164.769531 131.613281 L 157.582031 109.683594 L 176.722656 85.078125 L 165.523438 59.183594 L 169.761719 53.925781 L 184.835938 84.070312 L 163.78125 111.136719 L 170.328125 124.789062 L 195.816406 124.757812 L 206.980469 110.339844 L 203.675781 102.699219 C 205.648438 101.113281 206.414062 98.363281 205.367188 95.917969 C 204.113281 93 200.710938 91.660156 197.785156 92.914062 C 194.859375 94.175781 193.515625 97.566406 194.773438 100.492188 C 195.824219 102.933594 198.355469 104.257812 200.863281 103.910156 L 203.445312 109.894531 L 194.378906 121.609375 L 172.308594 121.828125 L 167.363281 111.515625 L 188.449219 84.429688 L 171.878906 51.304688 L 182.75 37.871094 L 176.558594 16.503906 C 178.71875 15.179688 179.824219 12.539062 179.089844 9.996094 " fill-opacity="1" fill-rule="nonzero"/></g><path fill="#393536" d="M 90.582031 88.757812 C 89.410156 91.378906 86.332031 92.574219 83.703125 91.410156 C 81.078125 90.246094 79.886719 87.160156 81.050781 84.535156 C 82.214844 81.910156 85.300781 80.722656 87.929688 81.894531 C 90.558594 83.050781 91.746094 86.136719 90.582031 88.757812 Z M 47.242188 63.050781 C 44.429688 61.292969 40.722656 62.148438 38.957031 64.957031 C 37.199219 67.773438 38.042969 71.46875 40.859375 73.230469 C 43.207031 74.699219 46.167969 74.351562 48.109375 72.574219 L 66.363281 83.988281 L 67.808594 112.761719 L 94.558594 125.117188 L 96.785156 157.332031 L 121.089844 171.363281 L 150.988281 144.644531 L 148.792969 112.8125 L 92.511719 87.855469 C 93.054688 84.832031 91.5 81.71875 88.574219 80.421875 C 88.886719 80.566406 89.1875 80.6875 89.382812 80.777344 C 89.226562 80.710938 88.976562 80.597656 88.574219 80.421875 C 87.960938 80.148438 87.683594 80.03125 87.605469 79.996094 C 87.707031 80.039062 88.140625 80.226562 88.574219 80.421875 C 85.140625 78.898438 81.109375 80.457031 79.589844 83.882812 C 78.0625 87.3125 79.625 91.347656 83.054688 92.871094 C 85.988281 94.167969 89.359375 93.214844 91.230469 90.777344 L 145.734375 114.957031 L 147.695312 143.3125 L 120.6875 167.4375 L 99.855469 155.40625 L 97.617188 123 L 70.910156 110.667969 L 70.550781 103.640625 L 103.214844 116.585938 L 105.679688 152.226562 L 120.253906 158.285156 L 140.023438 140.554688 L 138.679688 121.605469 L 130.796875 117.964844 C 131.226562 115.363281 129.90625 112.691406 127.394531 111.519531 C 124.390625 110.128906 120.816406 111.449219 119.414062 114.457031 C 118.027344 117.46875 119.332031 121.039062 122.351562 122.433594 C 124.859375 123.601562 127.753906 122.871094 129.453125 120.859375 L 135.617188 123.710938 L 136.722656 139.105469 L 119.738281 154.605469 L 108.730469 150.035156 L 106.269531 114.351562 L 70.371094 100.132812 L 69.46875 82.15625 L 49.804688 69.859375 C 50.5625 67.335938 49.585938 64.519531 47.242188 63.050781 " fill-opacity="1" fill-rule="nonzero"/><path fill="#393536" d="M 292.257812 307.269531 C 293.152344 304.546875 296.101562 303.046875 298.835938 303.945312 C 301.566406 304.84375 303.058594 307.789062 302.164062 310.515625 C 301.265625 313.246094 298.316406 314.734375 295.582031 313.839844 C 292.847656 312.949219 291.359375 309.996094 292.257812 307.269531 Z M 337.949219 328.511719 C 340.925781 329.980469 344.535156 328.761719 346.003906 325.785156 C 347.476562 322.8125 346.257812 319.21875 343.28125 317.742188 C 340.800781 316.519531 337.890625 317.167969 336.128906 319.128906 L 316.835938 309.59375 L 312.515625 281.113281 L 284.660156 271.492188 L 279.222656 239.664062 L 253.632812 228.128906 L 226.550781 257.707031 L 231.929688 289.164062 L 290.429688 308.363281 C 290.1875 311.425781 292.050781 314.363281 295.082031 315.363281 C 294.761719 315.253906 294.449219 315.160156 294.25 315.089844 C 294.40625 315.140625 294.664062 315.230469 295.082031 315.363281 C 295.722656 315.574219 296.015625 315.667969 296.09375 315.691406 C 295.988281 315.660156 295.535156 315.519531 295.082031 315.363281 C 298.65625 316.535156 302.511719 314.582031 303.679688 311.019531 C 304.855469 307.449219 302.898438 303.597656 299.335938 302.421875 C 296.277344 301.429688 293.019531 302.707031 291.410156 305.328125 L 234.753906 286.722656 L 229.964844 258.707031 L 254.421875 231.996094 L 276.351562 241.882812 L 281.832031 273.898438 L 309.636719 283.503906 L 310.695312 290.460938 L 276.898438 280.847656 L 270.878906 245.636719 L 255.773438 241.066406 L 237.867188 260.679688 L 241.113281 279.402344 L 249.316406 282.234375 C 249.152344 284.867188 250.730469 287.390625 253.34375 288.300781 C 256.476562 289.386719 259.898438 287.71875 260.988281 284.585938 C 262.078125 281.449219 260.417969 278.027344 257.273438 276.941406 C 254.660156 276.035156 251.851562 277.042969 250.359375 279.21875 L 243.949219 277 L 241.304688 261.792969 L 256.65625 244.667969 L 268.066406 248.117188 L 274.082031 283.371094 L 311.226562 293.925781 L 313.929688 311.726562 L 334.71875 321.992188 C 334.21875 324.582031 335.472656 327.289062 337.949219 328.511719 " fill-opacity="1" fill-rule="nonzero"/><path fill="#393536" d="M 82.039062 311.773438 C 79.425781 312.652344 76.589844 311.246094 75.703125 308.628906 C 74.820312 306.023438 76.238281 303.179688 78.851562 302.300781 C 81.464844 301.425781 84.304688 302.832031 85.1875 305.441406 C 86.070312 308.054688 84.65625 310.898438 82.039062 311.773438 Z M 44.546875 319.867188 L 64.421875 309.871094 L 66.890625 292.773438 L 102.457031 282.386719 L 107.988281 248.523438 L 118.917969 245.132812 L 133.761719 261.457031 L 131.332031 276.0625 L 125.195312 278.242188 C 123.742188 276.167969 121.042969 275.214844 118.542969 276.101562 C 115.539062 277.167969 113.964844 280.457031 115.03125 283.464844 C 116.101562 286.460938 119.394531 288.042969 122.390625 286.972656 C 124.898438 286.082031 126.394531 283.652344 126.21875 281.125 L 134.066406 278.351562 L 137.050781 260.363281 L 119.742188 241.660156 L 105.277344 246.15625 L 99.734375 279.988281 L 67.375 289.441406 L 68.34375 282.757812 L 94.960938 273.351562 L 99.996094 242.597656 L 120.972656 232.957031 L 144.621094 258.417969 L 140.214844 285.332031 L 85.984375 303.570312 C 84.414062 301.078125 81.285156 299.867188 78.359375 300.84375 C 74.949219 301.992188 73.101562 305.710938 74.253906 309.125 C 75.402344 312.53125 79.109375 314.378906 82.527344 313.230469 C 82.097656 313.378906 81.664062 313.523438 81.566406 313.550781 C 81.640625 313.53125 81.917969 313.441406 82.527344 313.230469 C 82.925781 313.101562 83.175781 313.015625 83.328125 312.964844 C 83.132812 313.027344 82.832031 313.128906 82.527344 313.230469 C 85.4375 312.253906 87.199219 309.417969 86.953125 306.480469 L 142.953125 287.648438 L 147.894531 257.433594 L 121.707031 229.238281 L 97.222656 240.484375 L 92.226562 271.066406 L 65.570312 280.484375 L 61.621094 307.84375 L 43.164062 317.128906 C 41.46875 315.253906 38.667969 314.660156 36.300781 315.851562 C 33.449219 317.28125 32.304688 320.742188 33.746094 323.585938 C 35.171875 326.421875 38.636719 327.574219 41.488281 326.144531 C 43.855469 324.953125 45.042969 322.347656 44.546875 319.867188 " fill-opacity="1" fill-rule="nonzero"/><path fill="#393536" d="M 186.992188 135.976562 C 150.4375 135.976562 120.707031 165.699219 120.707031 202.230469 C 120.707031 238.769531 150.4375 268.488281 186.992188 268.488281 C 223.550781 268.488281 253.289062 238.769531 253.289062 202.230469 C 253.289062 165.699219 223.550781 135.976562 186.992188 135.976562 Z M 186.992188 273.8125 C 147.503906 273.8125 115.378906 241.699219 115.378906 202.230469 C 115.378906 162.765625 147.503906 130.652344 186.992188 130.652344 C 226.484375 130.652344 258.609375 162.765625 258.609375 202.230469 C 258.609375 241.699219 226.484375 273.8125 186.992188 273.8125 " fill-opacity="1" fill-rule="nonzero"/></svg>