<svg xmlns="http://www.w3.org/2000/svg" xmlns:xlink="http://www.w3.org/1999/xlink" width="500" zoomAndPan="magnify" viewBox="0 0 375 374.999991" height="500" preserveAspectRatio="xMidYMid meet" version="1.0"><defs><clipPath id="308abdf57b"><path d="M 17.578125 0 L 357 0 L 357 375 L 17.578125 375 Z M 17.578125 0 " clip-rule="nonzero"/></clipPath></defs><g clip-path="url(#308abdf57b)"><path fill="#000000" d="M 26.957031 287.8125 L 178.902344 372.734375 C 181.175781 374.003906 183.683594 374.691406 186.226562 374.867188 C 186.625 374.953125 187.03125 375 187.453125 375 C 187.875 375 188.28125 374.953125 188.679688 374.867188 C 191.21875 374.691406 193.730469 374.003906 196.003906 372.734375 L 347.949219 287.8125 C 353.488281 284.714844 356.929688 278.847656 356.929688 272.5 L 356.929688 103.316406 C 356.929688 96.96875 353.488281 91.101562 347.949219 88.007812 L 196.007812 3.089844 C 190.730469 0.136719 184.175781 0.140625 178.902344 3.089844 L 26.957031 88.007812 C 21.417969 91.101562 17.976562 96.96875 17.976562 103.316406 L 17.976562 272.5 C 17.976562 278.847656 21.417969 284.714844 26.957031 287.8125 Z M 345.242188 272.5 C 345.242188 274.617188 344.09375 276.574219 342.25 277.605469 L 193.296875 360.855469 L 193.296875 197.453125 L 273.351562 238.300781 C 270.671875 239.425781 269.175781 242.375 269.980469 245.242188 C 270.703125 247.824219 273.050781 249.511719 275.605469 249.511719 C 276.128906 249.511719 276.65625 249.441406 277.1875 249.292969 L 290.167969 245.652344 C 293.152344 244.8125 294.964844 241.792969 294.300781 238.769531 L 291.59375 226.433594 C 290.902344 223.277344 287.785156 221.273438 284.632812 221.976562 C 281.578125 222.644531 279.632812 225.59375 280.144531 228.644531 L 199.816406 187.65625 L 345.242188 105.773438 Z M 181.71875 14.90625 L 181.511719 108.195312 C 179.300781 106.53125 176.160156 106.621094 174.054688 108.554688 C 171.675781 110.738281 171.515625 114.4375 173.699219 116.816406 L 182.820312 126.75 C 183.96875 128.003906 185.546875 128.644531 187.128906 128.644531 C 188.433594 128.644531 189.742188 128.207031 190.824219 127.324219 L 200.601562 119.328125 C 203.097656 117.285156 203.46875 113.601562 201.425781 111.101562 C 199.382812 108.605469 195.699219 108.234375 193.203125 110.277344 L 193.195312 110.28125 L 193.40625 15.03125 L 338.53125 96.136719 L 187.453125 181.203125 L 36.375 96.136719 Z M 29.664062 105.773438 L 175.941406 188.136719 L 96.550781 228.648438 C 97.0625 225.59375 95.117188 222.644531 92.0625 221.976562 C 88.914062 221.273438 85.792969 223.277344 85.101562 226.433594 L 82.394531 238.769531 C 81.730469 241.792969 83.542969 244.8125 86.527344 245.652344 L 99.511719 249.292969 C 100.039062 249.441406 100.570312 249.511719 101.09375 249.511719 C 103.644531 249.511719 105.992188 247.824219 106.714844 245.242188 C 107.519531 242.375 106.023438 239.425781 103.347656 238.300781 L 181.609375 198.367188 L 181.609375 360.855469 L 32.65625 277.605469 C 30.8125 276.574219 29.664062 274.617188 29.664062 272.5 Z M 29.664062 105.773438 " fill-opacity="1" fill-rule="nonzero"/></g></svg>