<svg xmlns="http://www.w3.org/2000/svg" xmlns:xlink="http://www.w3.org/1999/xlink" width="500" zoomAndPan="magnify" viewBox="0 0 375 374.999991" height="500" preserveAspectRatio="xMidYMid meet" version="1.0"><defs><clipPath id="18f82bf2dc"><path d="M 59.0625 0 L 316.3125 0 L 316.3125 375 L 59.0625 375 Z M 59.0625 0 " clip-rule="nonzero"/></clipPath></defs><g clip-path="url(#18f82bf2dc)"><path fill="#000000" d="M 176.339844 270.929688 L 176.339844 299.261719 L 199.035156 299.261719 L 199.035156 270.929688 C 191.308594 270.929688 184.066406 270.929688 176.339844 270.929688 Z M 187.6875 0.214844 C 216.988281 30.839844 216.988281 79.136719 187.6875 109.761719 C 158.386719 79.136719 158.386719 30.839844 187.6875 0.214844 Z M 195.253906 255.820312 L 195.253906 240.710938 C 195.253906 204.832031 225.269531 180.269531 259.566406 180.269531 L 259.566406 195.378906 C 259.566406 231.257812 229.550781 255.820312 195.253906 255.820312 Z M 180.121094 240.710938 L 180.121094 255.820312 C 145.824219 255.820312 115.808594 231.257812 115.808594 195.378906 L 115.808594 180.269531 C 150.105469 180.269531 180.121094 204.832031 180.121094 240.710938 Z M 180.121094 153.824219 L 180.121094 172.710938 C 145.824219 172.710938 115.808594 148.148438 115.808594 112.273438 L 115.808594 93.382812 C 150.105469 93.382812 180.121094 117.945312 180.121094 153.824219 Z M 195.253906 172.710938 L 195.253906 153.824219 C 195.253906 117.945312 225.269531 93.382812 259.566406 93.382812 L 259.566406 112.273438 C 259.566406 148.148438 229.550781 172.710938 195.253906 172.710938 Z M 66.628906 374.816406 C 62.449219 374.816406 59.0625 371.429688 59.0625 367.257812 C 59.0625 338.050781 82.773438 314.371094 112.027344 314.371094 L 263.347656 314.371094 C 292.601562 314.371094 316.3125 338.050781 316.3125 367.257812 C 316.3125 371.429688 312.925781 374.816406 308.746094 374.816406 Z M 66.628906 374.816406 " fill-opacity="1" fill-rule="evenodd"/></g></svg>