<svg xmlns="http://www.w3.org/2000/svg" xmlns:xlink="http://www.w3.org/1999/xlink" width="500" zoomAndPan="magnify" viewBox="0 0 375 374.999991" height="500" preserveAspectRatio="xMidYMid meet" version="1.0"><defs><clipPath id="74b471cd9a"><path d="M 0 26.71875 L 375 26.71875 L 375 337.21875 L 0 337.21875 Z M 0 26.71875 " clip-rule="nonzero"/></clipPath></defs><g clip-path="url(#74b471cd9a)"><path fill="#000000" d="M 374.816406 192.929688 C 373.09375 176.855469 362.992188 163.59375 349.113281 157.253906 C 353.40625 152.691406 356.042969 146.558594 356.042969 139.816406 C 356.042969 125.765625 344.601562 114.335938 330.539062 114.335938 C 323.5625 114.335938 317.230469 117.152344 312.621094 121.707031 C 307.457031 112.433594 299.402344 105.183594 289.769531 100.996094 C 294.742188 96.027344 297.820312 89.167969 297.820312 81.601562 C 297.820312 66.472656 285.496094 54.160156 270.351562 54.160156 C 255.207031 54.160156 242.886719 66.472656 242.886719 81.601562 C 242.886719 89.1875 245.980469 96.058594 250.976562 101.03125 C 245.984375 103.214844 241.378906 106.21875 237.371094 109.9375 C 232.710938 95.15625 221.730469 83.382812 207.703125 77.539062 C 213.378906 72.171875 216.933594 64.585938 216.933594 56.183594 C 216.933594 39.96875 203.730469 26.777344 187.503906 26.777344 C 171.273438 26.777344 158.070312 39.96875 158.070312 56.183594 C 158.070312 64.585938 161.625 72.171875 167.300781 77.539062 C 153.273438 83.382812 142.292969 95.15625 137.632812 109.9375 C 133.625 106.21875 129.019531 103.214844 124.027344 101.03125 C 129.023438 96.058594 132.117188 89.1875 132.117188 81.601562 C 132.117188 66.472656 119.796875 54.160156 104.652344 54.160156 C 89.507812 54.160156 77.183594 66.472656 77.183594 81.601562 C 77.183594 89.167969 80.261719 96.027344 85.234375 100.996094 C 75.597656 105.183594 67.546875 112.433594 62.382812 121.707031 C 57.769531 117.152344 51.441406 114.335938 44.460938 114.335938 C 30.398438 114.335938 18.960938 125.769531 18.960938 139.816406 C 18.960938 146.558594 21.597656 152.691406 25.890625 157.253906 C 12.011719 163.59375 1.910156 176.855469 0.1875 192.929688 C 0.00390625 194.636719 0.554688 196.335938 1.703125 197.609375 C 2.847656 198.882812 4.480469 199.613281 6.195312 199.613281 L 75.472656 199.613281 C 73.914062 207.117188 73.09375 214.890625 73.09375 222.855469 C 73.09375 285.882812 124.417969 337.160156 187.503906 337.160156 C 250.585938 337.160156 301.910156 285.882812 301.910156 222.855469 C 301.910156 214.890625 301.089844 207.117188 299.53125 199.613281 L 368.808594 199.613281 C 370.523438 199.613281 372.15625 198.882812 373.300781 197.609375 C 374.445312 196.335938 374.996094 194.636719 374.816406 192.929688 Z M 330.539062 126.414062 C 337.9375 126.414062 343.957031 132.425781 343.957031 139.816406 C 343.957031 147.207031 337.9375 153.222656 330.539062 153.222656 C 323.140625 153.222656 317.125 147.207031 317.125 139.816406 C 317.125 132.425781 323.140625 126.414062 330.539062 126.414062 Z M 254.972656 81.605469 C 254.972656 73.128906 261.871094 66.238281 270.351562 66.238281 C 278.832031 66.238281 285.730469 73.128906 285.730469 81.605469 C 285.730469 90.074219 278.835938 96.964844 270.355469 96.96875 C 270.355469 96.96875 270.351562 96.96875 270.351562 96.96875 C 270.351562 96.96875 270.347656 96.96875 270.347656 96.96875 C 261.867188 96.964844 254.972656 90.074219 254.972656 81.605469 Z M 270.347656 109.046875 C 270.347656 109.046875 270.351562 109.046875 270.351562 109.046875 C 270.355469 109.046875 270.355469 109.046875 270.359375 109.046875 C 286.503906 109.050781 300.488281 119.507812 305.109375 134.75 L 260.308594 134.75 C 254.6875 130.101562 248.617188 125.984375 242.171875 122.46875 C 249.007812 114.078125 259.320312 109.046875 270.347656 109.046875 Z M 170.15625 56.183594 C 170.15625 46.628906 177.9375 38.855469 187.5 38.855469 C 197.0625 38.855469 204.84375 46.628906 204.84375 56.183594 C 204.84375 65.738281 197.066406 73.511719 187.5 73.511719 C 177.933594 73.511719 170.15625 65.738281 170.15625 56.183594 Z M 187.5 85.589844 C 205.996094 85.589844 221.730469 98.011719 226.34375 115.335938 C 214.210938 110.949219 201.128906 108.550781 187.5 108.550781 C 173.871094 108.550781 160.789062 110.949219 148.65625 115.335938 C 153.269531 98.011719 169.003906 85.589844 187.5 85.589844 Z M 89.269531 81.605469 C 89.269531 73.128906 96.167969 66.238281 104.648438 66.238281 C 113.128906 66.238281 120.027344 73.128906 120.027344 81.605469 C 120.027344 90.078125 113.128906 96.96875 104.648438 96.96875 C 96.167969 96.96875 89.269531 90.078125 89.269531 81.605469 Z M 104.648438 109.046875 C 115.675781 109.046875 125.992188 114.078125 132.828125 122.46875 C 126.382812 125.984375 120.3125 130.105469 114.691406 134.75 L 69.890625 134.75 C 74.511719 119.507812 88.5 109.046875 104.648438 109.046875 Z M 31.042969 139.816406 C 31.042969 132.425781 37.0625 126.414062 44.460938 126.414062 C 51.859375 126.414062 57.875 132.425781 57.875 139.816406 C 57.875 147.207031 51.859375 153.21875 44.464844 153.222656 C 44.464844 153.222656 44.460938 153.222656 44.460938 153.222656 C 44.457031 153.222656 44.457031 153.222656 44.453125 153.222656 C 37.058594 153.21875 31.042969 147.207031 31.042969 139.816406 Z M 13.636719 187.535156 C 17.917969 174.484375 30.167969 165.300781 44.453125 165.296875 C 44.457031 165.296875 44.457031 165.296875 44.460938 165.296875 C 44.464844 165.296875 44.464844 165.296875 44.46875 165.296875 C 58.753906 165.300781 71.003906 174.484375 75.285156 187.535156 Z M 63.03125 157.253906 C 65.777344 154.335938 67.839844 150.777344 68.976562 146.824219 L 102.148438 146.824219 C 94.46875 155.417969 88.066406 165.171875 83.242188 175.792969 C 78.636719 167.636719 71.546875 161.144531 63.03125 157.253906 Z M 187.5 325.082031 C 131.078125 325.082031 85.179688 279.222656 85.179688 222.855469 C 85.179688 166.484375 131.078125 120.625 187.5 120.625 C 243.921875 120.625 289.820312 166.484375 289.820312 222.855469 C 289.820312 279.222656 243.921875 325.082031 187.5 325.082031 Z M 272.851562 146.824219 L 306.023438 146.824219 C 307.160156 150.777344 309.222656 154.335938 311.96875 157.253906 C 303.453125 161.144531 296.363281 167.636719 291.757812 175.792969 C 286.933594 165.171875 280.527344 155.417969 272.851562 146.824219 Z M 299.714844 187.535156 C 303.996094 174.484375 316.25 165.296875 330.539062 165.296875 C 344.828125 165.296875 357.082031 174.484375 361.363281 187.535156 Z M 203.769531 178.492188 C 204.84375 177.089844 205.929688 175.75 207.011719 174.496094 C 207.695312 174.660156 208.394531 174.757812 209.097656 174.757812 C 209.875 174.757812 210.660156 174.65625 211.429688 174.449219 C 213.738281 173.832031 215.660156 172.355469 216.851562 170.296875 L 221.523438 162.214844 C 222.714844 160.15625 223.027344 157.75 222.410156 155.449219 C 221.792969 153.144531 220.316406 151.21875 218.253906 150.03125 L 182.707031 129.527344 C 178.445312 127.066406 172.972656 128.53125 170.511719 132.792969 L 165.84375 140.871094 C 164.652344 142.933594 164.335938 145.335938 164.953125 147.640625 C 165.347656 149.109375 166.089844 150.417969 167.113281 151.488281 C 165.140625 157.113281 162.285156 163.273438 158.832031 169.253906 C 155.410156 175.171875 151.535156 180.695312 147.679688 185.191406 C 146.234375 184.832031 144.710938 184.839844 143.226562 185.238281 C 140.921875 185.855469 138.996094 187.328125 137.804688 189.390625 L 133.136719 197.46875 C 131.945312 199.53125 131.628906 201.9375 132.246094 204.238281 C 132.863281 206.542969 134.339844 208.464844 136.402344 209.65625 L 171.949219 230.160156 C 173.324219 230.953125 174.847656 231.355469 176.394531 231.355469 C 177.171875 231.355469 177.953125 231.253906 178.726562 231.046875 C 181.03125 230.429688 182.957031 228.957031 184.148438 226.894531 L 188.816406 218.8125 C 190.847656 215.300781 190.199219 210.972656 187.523438 208.183594 C 188.074219 206.621094 188.691406 205.019531 189.375 203.390625 C 196.460938 207.691406 203.539062 212.046875 210.429688 216.289062 C 225.332031 225.460938 240.738281 234.945312 256.738281 244.175781 C 258.253906 245.050781 259.9375 245.496094 261.648438 245.496094 C 262.507812 245.496094 263.371094 245.382812 264.226562 245.15625 C 266.773438 244.472656 268.902344 242.84375 270.21875 240.566406 L 276.410156 229.851562 C 277.722656 227.574219 278.074219 224.917969 277.390625 222.371094 C 276.707031 219.824219 275.078125 217.699219 272.796875 216.382812 C 256.800781 207.15625 240.875 198.566406 225.472656 190.261719 C 218.351562 186.421875 211.039062 182.476562 203.769531 178.492188 Z M 179.398438 141.5625 L 209.476562 158.910156 L 207.964844 161.527344 L 177.886719 144.175781 Z M 169.296875 175.289062 C 172.671875 169.449219 175.476562 163.578125 177.613281 157.960938 L 196.152344 168.65625 C 192.351562 173.3125 188.664062 178.675781 185.289062 184.515625 C 181.945312 190.304688 179.15625 196.132812 177.023438 201.710938 L 158.523438 191.039062 C 162.292969 186.40625 165.949219 181.082031 169.296875 175.289062 Z M 175.257812 218.121094 L 145.183594 200.773438 L 146.691406 198.160156 L 176.769531 215.507812 Z M 260.859375 232.605469 C 245.691406 223.8125 231 214.765625 216.769531 206.003906 C 209.546875 201.558594 202.121094 196.992188 194.675781 192.480469 C 195.035156 191.839844 195.386719 191.191406 195.757812 190.554688 C 196.152344 189.875 196.550781 189.199219 196.957031 188.53125 C 204.589844 192.71875 212.261719 196.859375 219.730469 200.886719 C 234.4375 208.820312 249.625 217.007812 264.828125 225.734375 Z M 186.226562 251.824219 L 183.179688 251.824219 L 183.179688 242.558594 C 183.179688 239.222656 180.472656 236.519531 177.136719 236.519531 L 129.371094 236.519531 C 126.035156 236.519531 123.328125 239.222656 123.328125 242.558594 L 123.328125 251.824219 L 119.429688 251.824219 C 115.042969 251.824219 111.472656 255.390625 111.472656 259.777344 L 111.472656 277.933594 C 111.472656 282.320312 115.042969 285.886719 119.429688 285.886719 L 186.226562 285.886719 C 190.613281 285.886719 194.183594 282.320312 194.183594 277.933594 L 194.183594 259.777344 C 194.183594 255.390625 190.613281 251.824219 186.226562 251.824219 Z M 135.414062 248.59375 L 171.09375 248.59375 L 171.09375 251.824219 L 135.414062 251.824219 Z M 182.097656 273.808594 L 123.558594 273.808594 L 123.558594 263.902344 L 182.097656 263.902344 Z M 182.097656 273.808594 " fill-opacity="1" fill-rule="nonzero"/></g></svg>