<svg xmlns="http://www.w3.org/2000/svg" version="1.1" xmlns:xlink="http://www.w3.org/1999/xlink" xmlns:svgjs="http://svgjs.dev/svgjs" viewBox="0 0 1422 800"><defs><linearGradient x1="50%" y1="0%" x2="50%" y2="100%" id="oooscillate-grad"><stop stop-color="hsl(27, 98%, 48%)" stop-opacity="1" offset="0%"></stop><stop stop-color="hsl(146, 42%, 52%)" stop-opacity="1" offset="100%"></stop></linearGradient></defs><g stroke-width="2" stroke="url(#oooscillate-grad)" fill="none" stroke-linecap="round"><path d="M 0 4002 Q 355.5 -100 711 400 Q 1066.5 900 1422 4002" opacity="0.05"></path><path d="M 0 3933 Q 355.5 -100 711 400 Q 1066.5 900 1422 3933" opacity="0.07"></path><path d="M 0 3864 Q 355.5 -100 711 400 Q 1066.5 900 1422 3864" opacity="0.08"></path><path d="M 0 3795 Q 355.5 -100 711 400 Q 1066.5 900 1422 3795" opacity="0.10"></path><path d="M 0 3726 Q 355.5 -100 711 400 Q 1066.5 900 1422 3726" opacity="0.12"></path><path d="M 0 3657 Q 355.5 -100 711 400 Q 1066.5 900 1422 3657" opacity="0.13"></path><path d="M 0 3588 Q 355.5 -100 711 400 Q 1066.5 900 1422 3588" opacity="0.15"></path><path d="M 0 3519 Q 355.5 -100 711 400 Q 1066.5 900 1422 3519" opacity="0.17"></path><path d="M 0 3450 Q 355.5 -100 711 400 Q 1066.5 900 1422 3450" opacity="0.18"></path><path d="M 0 3381 Q 355.5 -100 711 400 Q 1066.5 900 1422 3381" opacity="0.20"></path><path d="M 0 3312 Q 355.5 -100 711 400 Q 1066.5 900 1422 3312" opacity="0.22"></path><path d="M 0 3243 Q 355.5 -100 711 400 Q 1066.5 900 1422 3243" opacity="0.23"></path><path d="M 0 3174 Q 355.5 -100 711 400 Q 1066.5 900 1422 3174" opacity="0.25"></path><path d="M 0 3105 Q 355.5 -100 711 400 Q 1066.5 900 1422 3105" opacity="0.27"></path><path d="M 0 3036 Q 355.5 -100 711 400 Q 1066.5 900 1422 3036" opacity="0.28"></path><path d="M 0 2967 Q 355.5 -100 711 400 Q 1066.5 900 1422 2967" opacity="0.30"></path><path d="M 0 2898 Q 355.5 -100 711 400 Q 1066.5 900 1422 2898" opacity="0.32"></path><path d="M 0 2829 Q 355.5 -100 711 400 Q 1066.5 900 1422 2829" opacity="0.33"></path><path d="M 0 2760 Q 355.5 -100 711 400 Q 1066.5 900 1422 2760" opacity="0.35"></path><path d="M 0 2691 Q 355.5 -100 711 400 Q 1066.5 900 1422 2691" opacity="0.37"></path><path d="M 0 2622 Q 355.5 -100 711 400 Q 1066.5 900 1422 2622" opacity="0.38"></path><path d="M 0 2553 Q 355.5 -100 711 400 Q 1066.5 900 1422 2553" opacity="0.40"></path><path d="M 0 2484 Q 355.5 -100 711 400 Q 1066.5 900 1422 2484" opacity="0.42"></path><path d="M 0 2415 Q 355.5 -100 711 400 Q 1066.5 900 1422 2415" opacity="0.43"></path><path d="M 0 2346 Q 355.5 -100 711 400 Q 1066.5 900 1422 2346" opacity="0.45"></path><path d="M 0 2277 Q 355.5 -100 711 400 Q 1066.5 900 1422 2277" opacity="0.47"></path><path d="M 0 2208 Q 355.5 -100 711 400 Q 1066.5 900 1422 2208" opacity="0.48"></path><path d="M 0 2139 Q 355.5 -100 711 400 Q 1066.5 900 1422 2139" opacity="0.50"></path><path d="M 0 2070 Q 355.5 -100 711 400 Q 1066.5 900 1422 2070" opacity="0.52"></path><path d="M 0 2001 Q 355.5 -100 711 400 Q 1066.5 900 1422 2001" opacity="0.53"></path><path d="M 0 1932 Q 355.5 -100 711 400 Q 1066.5 900 1422 1932" opacity="0.55"></path><path d="M 0 1863 Q 355.5 -100 711 400 Q 1066.5 900 1422 1863" opacity="0.57"></path><path d="M 0 1794 Q 355.5 -100 711 400 Q 1066.5 900 1422 1794" opacity="0.58"></path><path d="M 0 1725 Q 355.5 -100 711 400 Q 1066.5 900 1422 1725" opacity="0.60"></path><path d="M 0 1656 Q 355.5 -100 711 400 Q 1066.5 900 1422 1656" opacity="0.62"></path><path d="M 0 1587 Q 355.5 -100 711 400 Q 1066.5 900 1422 1587" opacity="0.63"></path><path d="M 0 1518 Q 355.5 -100 711 400 Q 1066.5 900 1422 1518" opacity="0.65"></path><path d="M 0 1449 Q 355.5 -100 711 400 Q 1066.5 900 1422 1449" opacity="0.67"></path><path d="M 0 1380 Q 355.5 -100 711 400 Q 1066.5 900 1422 1380" opacity="0.68"></path><path d="M 0 1311 Q 355.5 -100 711 400 Q 1066.5 900 1422 1311" opacity="0.70"></path><path d="M 0 1242 Q 355.5 -100 711 400 Q 1066.5 900 1422 1242" opacity="0.72"></path><path d="M 0 1173 Q 355.5 -100 711 400 Q 1066.5 900 1422 1173" opacity="0.73"></path><path d="M 0 1104 Q 355.5 -100 711 400 Q 1066.5 900 1422 1104" opacity="0.75"></path><path d="M 0 1035 Q 355.5 -100 711 400 Q 1066.5 900 1422 1035" opacity="0.77"></path><path d="M 0 966 Q 355.5 -100 711 400 Q 1066.5 900 1422 966" opacity="0.78"></path><path d="M 0 897 Q 355.5 -100 711 400 Q 1066.5 900 1422 897" opacity="0.80"></path><path d="M 0 828 Q 355.5 -100 711 400 Q 1066.5 900 1422 828" opacity="0.82"></path><path d="M 0 759 Q 355.5 -100 711 400 Q 1066.5 900 1422 759" opacity="0.83"></path><path d="M 0 690 Q 355.5 -100 711 400 Q 1066.5 900 1422 690" opacity="0.85"></path><path d="M 0 621 Q 355.5 -100 711 400 Q 1066.5 900 1422 621" opacity="0.87"></path><path d="M 0 552 Q 355.5 -100 711 400 Q 1066.5 900 1422 552" opacity="0.88"></path><path d="M 0 483 Q 355.5 -100 711 400 Q 1066.5 900 1422 483" opacity="0.90"></path><path d="M 0 414 Q 355.5 -100 711 400 Q 1066.5 900 1422 414" opacity="0.92"></path><path d="M 0 345 Q 355.5 -100 711 400 Q 1066.5 900 1422 345" opacity="0.93"></path><path d="M 0 276 Q 355.5 -100 711 400 Q 1066.5 900 1422 276" opacity="0.95"></path><path d="M 0 207 Q 355.5 -100 711 400 Q 1066.5 900 1422 207" opacity="0.97"></path><path d="M 0 138 Q 355.5 -100 711 400 Q 1066.5 900 1422 138" opacity="0.98"></path></g></svg>