<svg xmlns="http://www.w3.org/2000/svg" version="1.1" xmlns:xlink="http://www.w3.org/1999/xlink" xmlns:svgjs="http://svgjs.dev/svgjs" viewBox="0 0 800 800" opacity="0.78"><defs><linearGradient x1="50%" y1="0%" x2="50%" y2="100%" id="wwwhirl-grad"><stop stop-color="hsl(27, 98%, 48%)" stop-opacity="1" offset="45%"></stop><stop stop-color="hsl(222.2, 47.4%, 11.2%)" stop-opacity="1" offset="100%"></stop></linearGradient></defs><g stroke-width="2" stroke="url(#wwwhirl-grad)" fill="none" stroke-linecap="round"><path d="M10.000000743865996 445.84148267465116C32.75000143814093 416.1242942677545 42.500001735687334 351.7742923039483 88.00000312423717 343.9539795652913C133.500004512787 336.13366682663434 120.50000411605848 419.02898185639856 166.00000550460834 419.02898185639856C211.50000689315823 419.02898185639856 198.50000649642965 340.8258544698285 244.00000788497954 343.9539795652913C289.5000092735294 347.0821046607541 276.50000887680085 419.4311693686724 322.0000102653507 429.7539821836996C367.5000116539006 440.0767949987268 354.500011257172 384.6642933076715 400.0000126457218 379.34648064538476C445.5000140342717 374.028667983098 432.50001363754313 418.7161693468523 478.000015026093 411.5214816272878C523.5000164146428 404.3267939077234 510.5000160179145 341.8536670011949 556.0000174064643 354.67897989259234C601.5000187950141 367.50429278398985 588.5000183982855 446.73523270192624 634.0000197868354 455.4939829692221C679.5000211753852 464.25273323651794 666.5000207786568 384.396168299489 712.0000221672066 384.70898080903527C757.5000235557563 385.02179331858156 767.2500238533029 435.60804486235145 790.0000245475778 456.5664830019522 " transform="rotate(195, 400, 400)"></path><path d="M17.50000072956088 444.9599168005321C39.81250141048437 415.81421278607576 49.37500170230874 352.70171086003506 94.00000306415569 345.0317887509676C138.62500442600265 337.3618666419002 125.8750040369035 418.6630409980151 170.50000539875046 418.6630409980151C215.12500676059744 418.6630409980151 202.37500637149833 341.9638199073406 247.00000773334529 345.0317887509676C291.6250090951923 348.0997575945946 278.8750087060931 419.0574941350529 323.5000100679401 429.1817913190219C368.1250114297871 439.3060885029909 355.37501104068787 384.95921184445587 400.0000124025349 379.74366481029C444.62501376438183 374.52811777612413 431.8750133752827 418.35624411365245 476.50001473712973 411.2999157733104C521.1250160989766 404.2435874329683 508.3750157098775 342.9718668131038 553.0000170717245 355.5505390719744C597.6250184335714 368.129211330845 584.8750180444724 445.83647932728263 629.5000194063193 454.4267920894382C674.1250207681662 463.01710485159373 661.3750203790672 384.69624308643074 706.0000217409141 385.0030399707934C750.6250231027611 385.3098368551561 760.1875233945854 434.9232758692381 782.500024075509 455.4786671215389 " transform="rotate(191.25, 400, 400)"></path><path d="M25.000000715255766 444.078350926413C46.875001382827804 415.504131304397 56.25000166893014 353.6291294161218 100.00000300407419 346.1095979366439C143.75000433921826 338.590066457166 131.2500039577485 418.29710013963165 175.00000529289264 418.29710013963165C218.75000662803672 418.29710013963165 206.25000624656698 343.1017853448528 250.0000075817111 346.1095979366439C293.75000891685517 349.1174105284351 281.25000853538546 418.68381890143337 325.00000987052954 428.6096004543442C368.7500112056736 438.535382007255 356.2500108242038 385.25413038124026 400.00001215934793 380.1408489751953C443.750013494492 375.02756756915034 431.25001311302225 417.9963188804526 475.0000144481663 411.0783499193329C518.7500157833105 404.16038095821324 506.25001540184076 344.0900666250127 550.0000167369848 356.42209825135643C593.7500180721288 368.75412987770017 581.2500176906592 444.937725952639 625.0000190258032 453.3596012096543C668.7500203609474 461.7814764666695 656.2500199794777 384.99631787337245 700.0000213146217 385.2970991325516C743.7500226497657 385.59788039173065 753.1250229358682 434.2385068761248 775.0000236034402 454.3908512411255 " transform="rotate(187.5, 400, 400)"></path><path d="M32.50000070095065 443.19678505229393C53.937501355171264 415.1940498227183 63.12500163555154 354.55654797220853 106.00000294399271 347.1874071223202C148.87500425243388 339.8182662724319 136.62500387859356 417.9311592812482 179.50000518703476 417.9311592812482C222.375006495476 417.9311592812482 210.12500612163564 344.2397507823649 253.00000743007683 347.1874071223202C295.8750087385181 350.1350634622756 283.6250083646777 418.3101436678139 326.50000967311894 428.0374095896665C369.37501098156014 437.7646755115191 357.1250106077198 385.5490489180246 400.00001191616093 380.53803314010054C442.8750132246022 375.5270173621765 430.6250128507618 417.6363936472527 473.5000141592029 410.85678406535544C516.3750154676442 404.0771744834581 504.125015093804 345.20826643692163 547.0000164022451 357.2936574307385C589.8750177106863 369.3790484245554 577.6250173368461 444.0389725779954 620.5000186452871 452.29241032987034C663.3750199537284 460.5458480817453 651.1250195798881 385.29639266031415 694.0000208883292 385.5911582943097C736.8750221967705 385.88592392830526 746.0625224771507 433.5537378830115 767.5000231313714 453.3030353607122 " transform="rotate(183.75, 400, 400)"></path><path d="M40.000000686645535 442.3152153634776C61.000001327514696 414.8839645263422 70.00000160217293 355.48396271359803 112.00000288391124 348.26521249329926C154.00000416564953 341.0464622730005 142.0000037994386 417.5652146081675 184.0000050811769 417.5652146081675C226.00000636291526 417.5652146081675 214.0000059967043 345.37771240517975 256.00000727844264 348.26521249329926C298.00000856018096 351.15271258141877 286.00000819397 417.93646461949714 328.00000947570834 427.46521491029154C370.00001075744666 436.99396520108587 358.00001039123566 385.8439636401117 400.000011672974 380.93521349030857C442.00001295471236 376.0264633405054 430.00001258850136 417.27646459935556 472.00001387023974 410.6352143966807C514.000015151978 403.9939641940058 502.0000147857671 346.3264624341333 544.0000160675054 358.1652127954233C586.0000173492438 370.00396315671327 574.0000169830329 443.14021538865455 616.0000182647711 451.2252156353892C658.0000195465094 459.3102158821238 646.0000191802985 385.59646363255865 688.0000204620369 385.88521364137057C730.0000217437752 386.17396365018254 739.0000220184334 432.8689650752009 760.0000226593025 452.2152156656016 " transform="rotate(180, 400, 400)"></path><path d="M47.50000067234042 441.4336494893585C68.06250129985814 414.5738830446635 76.87500156879433 356.4113812696848 118.00000282382973 349.34302167897556C159.12500407886517 342.2746620882663 147.3750037202836 417.199273749784 188.50000497531906 417.199273749784C229.6250062303545 417.199273749784 217.87500587177297 346.51567784269184 259.00000712680844 349.34302167897556C300.1250083818438 352.1703655152593 288.3750080232623 417.56278938587764 329.50000927829774 426.89302404561386C370.62501053333324 436.22325870534996 358.8750101747516 386.1388821768961 400.00001142978704 381.33239765521387C441.12501268482254 376.52591313353156 429.3750123262409 416.9165393661557 470.5000135812764 410.4136485427032C511.6250148363117 403.9107577192507 499.87501447773036 347.44466224604224 541.0000157327657 359.03677197480533C582.1250169878011 370.6288817035685 570.3750166292197 442.24146201401095 611.5000178842552 450.1580247556053C652.6250191392905 458.0745874971996 640.8750187807091 385.89653841950036 682.0000200357443 386.17927280312875C723.1250212907797 386.4620071867571 731.937521559716 432.18419608208757 752.5000221872338 451.1273997851883 " transform="rotate(176.25, 400, 400)"></path><path d="M55.000000658035304 440.55208361523944C75.12500127220159 414.26380156298467 83.75000153541572 357.3387998257715 124.00000276374828 350.42083086465186C164.2500039920808 343.5028619035322 152.75000364112864 416.8333328914006 193.0000048694612 416.8333328914006C233.25000609779377 416.8333328914006 221.75000574684162 347.653643280204 262.0000069751742 350.42083086465186C302.25000820350675 353.18801844909973 290.7500078525546 417.1891141522582 331.00000908088714 426.3208331809361C371.25001030921976 435.45255220961405 359.7500099582675 386.4338007136805 400.0000111866001 381.7295818201191C440.2500124149326 377.02536292655776 428.7500120639805 416.5566141329558 469.00001329231304 410.1920826887257C509.25001452064555 403.8275512444956 497.7500141696935 348.5628620579512 538.000015398026 359.9083311541874C578.2500166263585 371.25380025042364 566.7500162754066 441.34270863936734 607.0000175037391 449.0908338758214C647.2500187320716 456.8389591122754 635.7500183811195 386.19661320644207 676.000019609452 386.4733319648869C716.2500208377845 386.7500507233317 724.8750211009987 431.49942708897424 745.000021715165 450.03958390477493 " transform="rotate(172.5, 400, 400)"></path><path d="M62.50000064373019 439.67051392642304C82.18750124454503 413.9537162666087 90.62500150203712 358.266214567161 130.00000270366678 351.4986362356309C169.37500390529644 344.7310579041008 158.12500356197367 416.46738821831985 197.50000476360336 416.46738821831985C236.87500596523304 416.46738821831985 225.62500562191028 348.7916049030189 265.00000682353993 351.4986362356309C304.3750080251697 354.2056675682429 293.1250076818469 416.8154351039414 332.5000088834766 425.7486385015611C371.8750100851062 434.6818418991809 360.62500974178346 386.7287154357676 400.00001094341314 382.12676217032714C439.3750121450428 377.52480890488664 428.12501180172 416.1966850850587 467.5000130033497 409.970513020051C506.8750142049794 403.7443409550433 495.6250138616567 349.6810580551628 535.0000150632864 360.77988651887216C574.375016264916 371.8787149825815 563.1250159215933 440.4439514500265 602.500017123223 448.02363918134023C641.8750183248526 455.6033269126539 630.6250179815299 386.49668417868656 670.0000191831596 386.76738731194774C709.3750203847892 387.038090445209 717.8125206422812 430.8146542811637 737.5000212430962 448.95176420966436 " transform="rotate(168.75, 400, 400)"></path><path d="M70.00000062942507 438.78894805230397C89.25000121688848 413.64363478492993 97.50000146865852 359.19363312324776 136.00000264358528 352.5764454213072C174.50000381851208 345.95925771936663 163.50000348281873 416.1014473599364 202.0000046577455 416.1014473599364C240.50000583267231 416.1014473599364 229.50000549697896 349.929570340531 268.0000066719058 352.5764454213072C306.50000784683255 355.2233205020834 295.5000075111392 416.4417598703219 334.000008686066 425.17644763688344C372.50000986099275 433.911135403445 361.5000095252994 387.023633972552 400.00001070022614 382.5239463352324C438.50001187515295 378.02425869791284 427.5000115394596 415.8367598518588 466.0000127143864 409.7489471660735C504.50001388931315 403.6611344802882 493.50001355361985 350.79925786707173 532.0000147285466 361.65144569825424C570.5000159034735 372.50363352943674 559.5000155677801 439.5451980753829 598.0000167427069 446.9564483015563C636.5000179176336 454.3676985277297 625.5000175819404 386.79675896562827 664.0000187568671 387.0614464737059C702.5000199317939 387.3261339817835 710.750020183564 430.1298852880504 730.0000207710274 447.863948329251 " transform="rotate(165, 400, 400)"></path><path d="M77.50000061511996 437.9073821781849C96.31250118923192 413.33355330325116 104.37500143527991 360.12105167933447 142.00000258350383 353.6542546069835C179.6250037317277 347.18745753463253 168.87500340366373 415.73550650155295 206.50000455188766 415.73550650155295C244.1250057001116 415.73550650155295 233.3750053720476 351.0675357780431 271.00000652027154 353.6542546069835C308.6250076684954 356.2409734359239 297.87500734043147 416.06808463670245 335.5000084886554 424.60425677220576C373.1250096368793 433.14042890770907 362.37500930881527 387.3185525093363 400.0000104570392 382.9211305001377C437.6250116052631 378.523708490939 426.8750112771991 415.4768346186589 464.5000124254231 409.527381312096C502.1250135736469 403.5779280055331 491.3750132455831 351.91745767898067 529.0000143938069 362.52300487763625C566.6250155420308 373.1285520762919 555.8750152139669 438.6464447007393 593.5000163621908 445.8892574217724C631.1250175104148 453.1320701428055 620.3750171823508 387.09683375257003 658.0000183305747 387.35550563546406C695.6250194787985 387.6141775183581 703.6875197248465 429.44511629493707 722.5000202989585 446.7761324488377 " transform="rotate(161.25, 400, 400)"></path><path d="M85.00000060081484 437.02581248936855C103.37500116157537 413.02346800687513 111.25000140190132 361.04846642072397 148.00000252342232 354.73205997796254C184.75000364494335 348.4156535352011 174.25000332450875 415.36956182847223 211.0000044460298 415.36956182847223C247.75000556755083 415.36956182847223 237.25000524711626 352.20549740085795 274.0000063686373 354.73205997796254C310.75000749015834 357.2586225550671 300.25000716972374 415.6944055883857 337.0000082912448 424.03206209283076C373.75000941276585 432.36971859727583 363.2500090923312 387.61346723142344 400.00001021385225 383.3183108503457C436.7500113353733 379.0231544692679 426.2500110149387 415.1169055707618 463.00001213645976 409.3058116434213C499.75001325798075 403.49471771608074 489.2500129375463 353.03565367619234 526.0000140590673 363.39456024232106C562.7500151805882 373.7534668084498 552.2500148601537 437.74768751139845 589.0000159816748 444.82206272729127C625.7500171031958 451.896437943184 615.2500167827612 387.3969047248145 652.0000179042822 387.6495609825249C688.7500190258032 387.9022172402354 696.6250192661292 428.7603434871265 715.0000198268897 445.6883127537271 " transform="rotate(157.5, 400, 400)"></path><path d="M92.50000058650973 436.1442466152495C110.4375011339188 412.71338652519637 118.1250013685227 361.97588497681073 154.00000246334085 355.80986916363884C189.875003558159 349.643853350467 179.6250032453538 415.0036209700888 215.50000434017196 415.0036209700888C251.3750054349901 415.0036209700888 241.12500512218492 353.3434628383701 277.00000621700303 355.80986916363884C312.87500731182126 358.2762754889076 302.625006999016 415.32073035476617 338.50000809383425 423.4598712281531C374.37500918865237 431.5990121015399 364.12500887584713 387.90838576820784 400.0000099706653 383.71549501525095C435.8750110654835 379.52260426229407 425.62501075267824 414.7569803375619 461.5000118474964 409.0842457894438C497.3750129423145 403.4115112413257 487.1250126295094 354.1538534881013 523.0000137243276 364.26611942170314C558.8750148191457 374.378385355305 548.6250145063406 436.84893413675485 584.5000156011587 443.75487184750733C620.3750166959768 450.6608095582598 610.1250163831718 387.69697951175624 646.0000174779898 387.9436201442831C681.8750185728079 388.19026077680996 689.5625188074118 428.07557449401315 707.5000193548209 444.6004968733138 " transform="rotate(153.75, 400, 400)"></path><path d="M100.00000057220461 435.2626807411304C117.50000110626225 412.4033050435176 125.0000013351441 362.90330353289744 160.00000240325937 356.88767834931514C195.0000034713746 350.87205316573284 185.00000316619884 414.6376801117053 220.0000042343141 414.6376801117053C255.00000530242937 414.6376801117053 245.0000049972536 354.4814282758822 280.0000060653689 356.88767834931514C315.00000713348413 359.2939284227481 305.0000068283083 414.9470551211467 340.00000789642365 422.8876803634754C375.0000089645389 430.828305605804 365.00000865936306 388.20330430499223 400.00000972747836 384.11267918015625C435.0000107955936 380.02205405532027 425.0000104904178 414.39705510436204 460.0000115585331 408.8626799354663C495.0000126266483 403.32830476657057 485.00001232147264 355.27205330001016 520.0000133895878 365.13767860108516C555.0000144577031 375.00330390216016 545.0000141525275 435.95018076211124 580.0000152206426 442.6876809677234C615.0000162887578 449.4251811733356 605.0000159835822 387.99705429869795 640.0000170516973 388.23767930604123C675.0000181198126 388.4783043133845 682.5000183486944 427.39080550089983 700.0000188827521 443.5126809929004 " transform="rotate(150, 400, 400)"></path><path d="M107.5000005578995 434.3811129596627C124.56250107860569 412.0932216544902 131.8750013017655 363.83072018163557 166.00000234317787 357.9654856276428C200.12500338459026 352.10025107365004 190.37500308704386 414.27173734597324 224.50000412845623 414.27173734597324C258.62500516986864 414.27173734597324 248.87500487232225 355.6193918060457 283.00000591373464 357.9654856276428C317.125006955147 360.3115794492399 307.37500665760064 414.5733779801786 341.50000769901305 422.315487591449C375.6250087404254 430.0575972027194 365.87500844287894 388.49822093442793 400.00000948429135 384.50986143771286C434.1250105257038 380.5215019409978 424.37501022815735 414.03712796381353 458.50001126956977 408.6411121741402C492.62501231098213 403.2450963844669 482.87501201343576 356.39025120457046 517.0000130548482 366.0092358731186C551.1250140962604 375.6282205416667 541.3750137987142 435.051425480119 575.5000148401266 441.6204881805909C609.625015881539 448.1895508810628 599.8750155839925 388.2971271782911 634.000016625405 388.5317365604508C668.1250176668173 388.7663459426105 675.4375178899771 426.7060346004379 692.5000184106833 442.4248632051385 " transform="rotate(146.25, 400, 400)"></path><path d="M115.00000054359438 433.49954899289224C131.62500105094915 411.7831420801601 138.75000126838688 364.75814064507097 172.0000022830964 359.04329672066774C205.2500032978059 353.3284527962645 195.7500030078889 413.9057983949384 229.00000402259838 413.9057983949384C262.2500050373079 413.9057983949384 252.7500047473909 356.75735915090644 286.0000057621004 359.04329672066774C319.2500067768099 361.32923429042904 309.75000648689297 414.1997046539077 343.00000750160245 421.7432986341199C376.250008516312 429.28689261433215 366.7500082263949 388.79314137856096 400.0000092411044 384.9070475099668C433.2500102558139 381.0209536413726 423.75000996589694 413.6772046379623 457.0000109806064 408.41954822751137C490.2500119953159 403.1618918170604 480.750011705399 357.50845292382803 514.0000127201084 366.88079695984925C547.2500137348179 376.2531409958705 537.750013444901 434.15267401282404 571.0000144596104 440.55329920815564C604.25001547432 446.9539244034872 594.7500151844031 388.5972038725814 628.0000161991125 388.82579762955754C661.2500172138219 389.05439138653367 668.3750174312597 426.0212675146732 685.0000179386145 441.33704923207375 " transform="rotate(142.5, 400, 400)"></path><path d="M122.50000052928927 432.6179793040759C138.68750102329258 411.47305678378405 145.6250012350083 365.6855553864604 178.00000222301492 360.1211020916468C210.37500321102152 354.55664879683314 201.12500292873392 413.5398537218577 233.50000391674052 413.5398537218577C265.8750049047472 413.5398537218577 256.6250046224595 357.8953207737213 289.0000056104662 360.1211020916468C321.37500659847285 362.34688340957223 312.12500631618525 413.826025605591 344.50000730419185 421.171103954745C376.87500829219846 428.516182303899 367.62500800991086 389.08805610064803 400.00000899791746 385.30422786017476C432.37500998592407 381.5203996197015 423.12500970363647 413.31727559006515 455.5000106916431 408.1979785588366C487.8750116796497 403.07868152760807 478.6250113973622 358.6266489210397 511.0000123853688 367.75235232453406C543.3750133733754 376.8780557280284 534.1250130910878 433.25391682348317 566.5000140790944 439.48610451367443C598.875015067101 445.7182922038657 589.6250147848135 388.89727484482586 622.0000157728201 389.1198529766184C654.3750167608267 389.34243110841095 661.3125169725424 425.3364947068626 677.5000174665457 440.2492295369632 " transform="rotate(138.75, 400, 400)"></path><path d="M130.00000051498415 431.73640961525956C145.75000099563601 411.162971487408 152.5000012016297 366.6129701278499 184.0000021629334 361.1989074626258C215.50000312423714 355.7848447974017 206.50000284957895 413.173909048777 238.00000381088267 413.173909048777C269.50000477218646 413.173909048777 260.50000449752827 359.03328239653615 292.000005458832 361.1989074626258C323.5000064201357 363.3645325287155 314.5000061454775 413.4523465572742 346.00000710678125 420.59890927537003C377.500008068085 427.7454719934658 368.5000077934268 389.38297082273516 400.0000087547305 385.7014082103828C431.50000971603424 382.01984559803043 422.500009441376 412.957346542168 454.0000104026798 407.97640889016185C485.5000113639835 402.9954712381557 476.50001108932537 359.7448449182514 508.0000120506291 368.6239076892188C539.5000130119329 377.5029704601863 530.5000127372746 432.3551596341423 562.0000136985783 438.4189098191933C593.500014659882 444.4826600042443 584.500014385224 389.19734581707036 616.0000153465276 389.4139083236793C647.5000163078313 389.6304708302883 654.250016513825 424.65172189905206 670.0000169944769 439.16140984185256 " transform="rotate(135, 400, 400)"></path><path d="M137.50000050067905 430.85484755583775C152.81250096797947 410.8528938204265 159.3750011682511 367.5403924986339 190.00000210285194 362.2767204629994C220.62500303745279 357.0130484273649 211.87500277042398 412.8079720050908 242.50000370502482 412.8079720050908C273.1250046396257 412.8079720050908 264.3750043725969 360.17125164874557 295.00000530719774 362.2767204629994C325.62500624179864 364.3821892772532 316.8750059747698 413.078675138352 347.50000690937065 420.02672222538956C378.1250078439715 426.97476931242716 369.3750075769427 389.6778931742168 400.0000085115435 386.09859618998536C430.6250094461444 382.51929920575384 421.8750091791156 412.5974251236654 452.5000101137165 407.7548468508817C483.1250110483173 402.9122685780979 474.37501078128855 360.8630485448575 505.00001171588934 369.49547068329815C535.6250126504901 378.1278928217388 526.8750123834615 431.45641007419596 557.5000133180622 437.3517227541066C588.1250142526632 443.2470354340173 579.3750139856345 389.49742441870933 610.0000149202352 389.7079713001347C640.625015854836 389.9185181815601 647.1875160551076 423.966956720636 662.5000165224081 438.0735977761365 " transform="rotate(131.25, 400, 400)"></path><path d="M144.99998522758486 429.97327786702135C159.87498568153384 410.54280852405054 166.24998587608343 368.4678072400234 195.9999867839814 363.3545258339784C225.74998769187937 358.24124442793345 217.24998743247994 412.44202733201007 246.9999883403779 412.44202733201007C276.74998924827594 412.44202733201007 268.24998898887645 361.30921327156045 297.9999898967745 363.3545258339784C327.7499908046725 365.3998383963964 319.249990545273 412.70499609003525 348.999991453171 419.4545275460146C378.74999236106896 426.204059001994 370.24999210166953 389.97280789630395 399.99999300956756 386.49577654019333C429.74999391746553 383.0187451840828 421.24999365806605 412.23749607576826 450.9999945659641 407.5332771822069C480.749995473862 402.82905828864557 472.2499952144627 361.9812445420692 501.99999612236064 370.36702604798296C531.7499970302586 378.7528075538967 523.2499967708592 430.5576528848551 552.9999976787572 436.2845280596255C582.7499985866551 442.01140323439586 574.2499983272558 389.7974953909538 603.9999992351536 390.00202664719563C633.7500001430517 390.2065579034374 640.1250003376013 423.2821839128254 655.0000007915503 436.9857780810259 " transform="rotate(127.5, 400, 400)"></path><path d="M152.49998521327973 429.09171199290233C166.93748565387727 410.2327270423717 173.12498584270483 369.39522579611014 201.9999867238999 364.4323350196547C230.874987605095 359.4694442431993 222.62498735332497 412.0760864736266 251.49998823452006 412.0760864736266C280.37498911571515 412.0760864736266 272.12498886394513 362.44717870907255 300.9999897451403 364.4323350196547C329.8749906263354 366.4174913302369 321.6249903745653 412.33132085641574 350.4999912557604 418.8823366813369C379.37499213695554 425.433352506258 371.12499188518547 390.2677264330883 399.99999276638056 386.89296070509863C428.87499364757565 383.5181949771089 420.62499339580563 411.8775708425684 449.4999942770008 407.3117113282294C478.3749951581958 402.74585181389045 470.12499490642585 363.09944435397813 498.99999578762095 371.238585227365C527.874996668816 379.37772610075183 519.6249964170461 429.6588995102115 548.4999972982412 435.21733717984154C577.3749981794361 440.77577484947165 569.1249979276662 390.09757017789553 597.9999988088613 390.29608580895376C626.8749996900563 390.494601440012 633.062499878884 422.5974149197121 647.5000003194814 435.8979622006126 " transform="rotate(123.75, 400, 400)"></path><path d="M159.99998519897463 428.21014611878326C173.99998562622073 409.922645560693 179.99998580932623 370.32264435219685 207.99998666381842 365.510144205331C235.9999875183106 360.6976440584652 227.99998727417 411.71014561524316 255.9999881286622 411.71014561524316C283.9999889831544 411.71014561524316 275.9999887390138 363.5851441465847 303.99998959350603 365.510144205331C331.99999044799824 367.43514426407734 323.99999020385764 411.9576456227963 351.9999910583498 418.3101458166592C379.99999191284206 424.6626460105221 371.99999166870134 390.5626449698727 399.9999925231936 387.29014487000387C427.9999933776858 384.0176447701351 419.99999313354516 411.51764560936857 447.99999398803743 407.0901454742519C475.9999948425296 402.6626453391354 467.99999459838904 364.21764416588707 495.9999954528812 372.11014440674705C523.9999963073734 380.00264464760704 515.9999960632329 428.7601461355679 543.9999969177251 434.15014630005766C571.9999977722173 439.54014646454743 563.9999975280766 390.39764496483724 591.9999983825688 390.5901449707119C619.999999237061 390.78264497658654 625.9999994201665 421.91264592659877 639.9999998474127 434.81014632019924 " transform="rotate(120, 400, 400)"></path><path d="M167.49998518466953 427.3285764299669C181.0624855985642 409.612560264317 186.8749857759476 371.25005909358634 213.99998660373694 366.58794957631005C241.12498743152628 361.92584005903376 233.37498719501502 411.34420094216244 260.49998802280436 411.34420094216244C287.6249888505937 411.34420094216244 279.87498861408244 364.7231057693995 306.9999894418718 366.58794957631005C334.1249902696611 368.4527933832206 326.3749900331499 411.5839665744795 353.49999086093925 417.7379511372842C380.6249916887286 423.89193570008894 372.8749914522173 390.85755969195975 399.9999922800066 387.6873252202119C427.124993107796 384.517090748464 419.37499287128475 411.1577165614714 446.4999936990741 406.8685758055772C473.62499452686336 402.579435049683 465.8749942903522 365.33584016309874 492.9999951181415 372.9816997714318C520.1249959459308 380.62755937976493 512.3749957094196 427.861388946227 539.499996537209 433.08295160557645C566.6249973649983 438.30451426492596 558.8749971284872 390.69771593708174 585.9999979562764 390.8842003177728C613.1249987840657 391.0706846984638 618.9374989614491 421.2278731187882 632.4999993753438 433.72232662508867 " transform="rotate(116.25, 400, 400)"></path><path d="M174.9999851703644 426.4470105558478C188.12498557090763 409.3024787826382 193.749985742569 372.1774776496731 219.99998654365547 367.66575876198635C246.2499873447419 363.1540398742996 238.74998711586005 410.978260083779 264.9999879169465 410.978260083779C291.24998871803297 410.978260083779 283.7499884891511 365.8610712069117 309.9999892902376 367.66575876198635C336.24999009132404 369.47044631706103 328.7499898624422 411.21029134086 354.99999066352865 417.1657602726065C381.24999146461516 423.121229204353 373.7499912357332 391.15247822874414 399.9999920368197 388.08450938511714C426.2499928379061 385.0165405414902 418.7499926090243 410.79779132827156 444.9999934101108 406.6470099515997C471.2499942111972 402.49622857492795 463.7499939823154 366.4540399750076 489.99999478340186 373.8532589508139C516.2499955844883 381.25247792662014 508.7499953556065 426.9626355715834 534.999996156693 432.0157607257926C561.2499969577793 437.06888588000174 553.7499967288975 390.99779072402345 579.999997529984 391.17825947953094C606.2499983310704 391.3587282350384 611.8749985027318 420.54310412567486 624.9999989032751 432.6345107446753 " transform="rotate(112.5, 400, 400)"></path><path d="M182.49998515605927 425.5654427743801C195.18748554325106 408.9923953936108 200.6249857091904 373.1048942984112 225.999986483574 368.743566040314C251.37498725795754 364.38223778221686 244.12498703670508 410.6123173180469 269.49998781108866 410.6123173180469C294.87498858547224 410.6123173180469 287.6249883642198 366.99903473707514 312.9999891386034 368.743566040314C338.37498991298696 370.4880973435529 331.12498969173447 410.8366141998919 356.4999904661181 416.5935675005802C381.8749912405017 422.35052080126843 374.62499101924914 391.4473948581799 399.9999917936327 388.4816916426738C425.3749925680163 385.5159884271677 418.12499234676386 410.43786418772305 443.49999312114744 406.4254421902736C468.87499389553096 402.4130201928242 461.6249936742786 367.5722378795679 486.99999444866216 374.72481622284727C512.3749952230457 381.87739456612667 505.1249950017933 426.06388028959117 530.4999957761768 430.94856793866C555.8749965505604 435.8332555877289 548.624996329308 391.2978636036166 573.9999971036916 391.47231673394043C599.3749978780751 391.64676986426434 604.8124980440144 419.8583332252129 617.4999984312062 431.5466929569134 " transform="rotate(108.75, 400, 400)"></path><path d="M189.99998514175417 424.68387499291237C202.24998551559452 408.6823120045834 207.4999856758118 374.0323109471493 231.9999864234925 369.8213733186417C256.4999871711732 365.61043569013407 249.4999869575501 410.2463745523148 273.9999877052308 410.2463745523148C298.4999884529115 410.2463745523148 291.4999882392884 368.13699826723865 315.99998898696913 369.8213733186417C340.49998973464983 371.5057483700447 333.4999895210268 410.4629370589238 357.9999902687075 416.02137472855384C382.49999101638815 421.5798123981839 375.49999080276507 391.7423114876156 399.99999155044577 388.8788739002305C424.4999922981265 386.0154363128453 417.4999920845034 410.07793704717454 441.9999928321841 406.20387442894753C466.49999357986474 402.3298118107205 459.49999336624177 368.6904357841282 483.9999941139224 375.5963734948807C508.49999486160306 382.5023112056332 501.4999946479801 425.16512500759893 525.9999953956608 429.8813751515275C550.4999961433415 434.59762529545606 543.4999959297185 391.59793648320965 567.999996677399 391.76637398835C592.4999974250798 391.93481149349026 597.749997585297 419.173562324751 609.9999979591374 430.4588751691514 " transform="rotate(105, 400, 400)"></path><path d="M197.49998512744907 423.8023091187933C209.31248548793798 408.37223052290466 214.37498564243322 374.9597295032361 237.999986363411 370.899182504318C261.6249870843888 366.8386355053999 254.87498687839513 409.88043369393137 278.49998759937296 409.88043369393137C302.1249883203508 409.88043369393137 295.3749881143571 369.27496370475075 318.9999888353349 370.899182504318C342.6249895563127 372.52340130388524 335.8749893503191 410.0892618253043 359.4999900712969 415.44918386387616C383.1249907922747 420.809105902448 376.374990586281 392.0372300244 399.9999913072588 389.2760580651357C423.62499202823665 386.5148861058714 416.8749918222429 409.71801181397467 440.4999925432208 405.98230857497003C464.12499326419857 402.2466053359654 457.37499305820495 369.80863559603716 480.9999937791827 376.4679326742628C504.62499450016054 383.12722975248835 497.8749942941669 424.2663716329553 521.4999950151447 428.81418427174356C545.1249957361225 433.36199691053184 538.3749955301289 391.8980112701514 561.9999962511067 392.0604331501081C585.6249969720845 392.2228550300648 590.6874971265797 418.4887933316377 602.4999974870686 429.3710592887381 " transform="rotate(101.25, 400, 400)"></path><path d="M204.99998511314394 422.9207432446742C216.3749854602814 408.0621490412259 221.2499856090546 375.8871480593228 243.99998630332954 371.9769916899943C266.7499869976044 368.0668353206658 260.24998679924016 409.5144928355479 282.9999874935151 409.5144928355479C305.74998818779005 409.5144928355479 299.2499879894258 370.4129291422629 321.99998868370074 371.9769916899943C344.7499893779756 373.5410542377257 338.24998917961136 409.7155865916848 360.9999898738863 414.8769929991984C383.74999056816125 420.0383994067121 377.24999036979693 392.3321485611844 399.9999910640719 389.673242230041C422.7499917583468 387.0143358988976 416.2499915599825 409.3580865807748 438.99999225425745 405.76074272099254C461.74999294853234 402.16339886121034 455.2499927501682 370.92683540794604 477.9999934444431 377.3394918536448C500.74999413871797 383.75214829934356 494.2499939403537 423.3676182583117 516.9999946346286 427.7469933919597C539.7499953289035 432.1263685256076 533.2499951305393 392.1980860570931 555.9999958248143 392.35449231186624C578.7499965190891 392.5108985666394 583.6249966678624 417.80402433852436 594.9999970149998 428.2832434083247 " transform="rotate(97.5, 400, 400)"></path><path d="M212.4999850988388 422.0391754632065C223.43748543262484 407.7520656521985 228.12498557567602 376.8145647080609 249.99998624324803 373.05479896832196C271.8749869108201 369.295033228583 265.6249867200852 409.1485500698158 287.49998738765726 409.1485500698158C309.3749880552293 409.1485500698158 303.1249878644944 371.55089267242636 324.9999885320665 373.05479896832196C346.87498919963855 374.55870526421756 340.62498900890364 409.3419094507167 362.4999896764757 414.3048002271721C384.3749903440478 419.26769100362753 378.12499015331287 392.6270651906201 399.99999082088493 390.0704244875976C421.87499148845694 387.51378378457514 415.6249912977221 408.9981594402263 437.4999919652941 405.53917495966647C459.37499263286617 402.0801904791066 453.1249924421313 372.04503331250635 474.9999931097033 378.21104912567824C496.87499377727534 384.3770649388501 490.62499358654054 422.46886297631954 512.4999942541126 426.67980060482716C534.3749949216847 430.8907382333348 528.1249947309498 392.4981589366862 549.9999953985218 392.6485495662758C571.8749960660938 392.7989401958653 576.562496209145 417.1192534380624 587.4999965429311 427.1954256205628 " transform="rotate(93.75, 400, 400)"></path><path d="M219.9999850845337 421.1576076817388C230.4999854049683 407.4419822631711 234.9999855422974 377.741981356799 255.99998618316656 374.13260624664963C276.9999868240357 370.52323113650027 270.9999866409302 408.78260730408374 291.9999872817994 408.78260730408374C312.99998792266854 408.78260730408374 306.9999877395631 372.6888562025899 327.9999883804322 374.13260624664963C348.9999890213014 375.5763562907094 342.9999888381959 408.9682323097486 363.9999894790651 413.73260745514574C384.9999901199343 418.49698260054294 378.9999899368288 392.92198182005586 399.99999057769793 390.4676067451543C420.9999912185671 388.0132316702527 414.9999910354616 408.6382322996778 435.9999916763308 405.31760719834034C456.99999231719994 401.9969820970029 450.9999921340945 373.16323121706665 471.99999277496363 379.08260639771163C492.9999934158328 385.00198157835666 486.9999932327274 421.5701076943273 507.9999938735965 425.6126078176946C528.9999945144657 429.65510794106194 522.9999943313602 392.7982318162793 543.9999949722294 392.9426068206853C564.9999956130985 393.08698182509124 569.4999957504276 416.43448253760045 579.9999960708622 426.1076078328008 " transform="rotate(90, 400, 400)"></path><path d="M227.4999850702286 420.2760418076197C237.56248537731173 407.13190078149233 241.8749855089188 378.66939991288575 261.9999861230851 375.21041543232593C282.12498673725133 371.7514309517661 276.37498656177524 408.4166664457003 296.49998717594156 408.4166664457003C316.6249877901078 408.4166664457003 310.8749876146318 373.826821640102 330.99998822879803 375.21041543232593C351.1249888429643 376.59400922454984 345.3749886674882 408.5945570761291 365.4999892816545 413.16041659046806C385.6249898958208 417.726276104807 379.87498972034473 393.21690035684026 399.999990334511 390.8647909100596C420.12499094867724 388.51268146327885 414.37499077320115 408.2783070664779 434.49999138736746 405.09604134436285C454.6249920015337 401.91377562224784 448.8749918260577 374.2814310289756 468.99999244022393 379.9541655770937C489.1249930543902 385.6269001252118 483.3749928789142 420.6713543196837 503.49999349308047 424.5454169379107C523.6249941072467 428.41947955613773 517.8749939317706 393.09830660322103 537.9999945459369 393.23666598244347C558.1249951601033 393.37502536166585 562.4374952917103 415.7497135444871 572.4999955987935 425.01979195238744 " transform="rotate(86.25, 400, 400)"></path><path d="M234.99998505592347 419.394474026152C244.62498534965516 406.82181739246494 248.7499854755402 379.5968165616239 267.9999860630036 376.2882227106536C287.249986650467 372.9796288596833 281.74998648262033 408.0507236799682 300.9999870700837 408.0507236799682C320.2499876575471 408.0507236799682 314.7499874897004 374.9647851702655 333.99998807716383 376.2882227106536C353.2499886646272 377.6116602510417 347.74998849678053 408.22087993516095 366.9999890842439 412.58822381844175C386.24998967170734 416.9555677017225 380.74998950386066 393.51181698627596 399.999990091324 391.2619731676162C419.2499906787874 389.0121293489564 413.74999051094073 407.9183799259294 432.99999109840417 404.8744735830367C452.2499916858675 401.8305672401441 446.74999151802086 375.3996289335359 465.99999210548424 380.8257228491271C485.24999269294767 386.25181676471834 479.749992525101 419.77259903769146 498.99999311256437 423.47822415077815C518.2499937000277 427.1838492638649 512.7499935321812 393.39837948281416 531.9999941196445 393.53072323685296C551.2499947071078 393.66306699089176 555.3749948329929 415.06494264402517 564.9999951267246 423.9319741646255 " transform="rotate(82.5, 400, 400)"></path><path d="M242.49998504161834 418.51290624468425C251.68748532199862 406.51173400343754 255.62498544216157 380.52423321036196 273.9999860029221 377.36602998898127C292.3749865636826 374.2078267676005 287.1249864034653 407.6847809142361 305.49998696422585 407.6847809142361C323.87498752498635 407.6847809142361 318.6249873647691 376.102748700429 336.9999879255296 377.36602998898127C355.37498848629014 378.62931127753353 350.1249883260728 407.84720279419287 368.4999888868333 412.0160310464154C386.87498944759386 416.18485929863795 381.62498928737654 393.8067336157117 399.99998984813703 391.65915542517286C418.3749904088976 389.51157723463393 413.1249902486803 407.5584527853809 431.4999908094408 404.65290582171065C449.8749913702013 401.7473588580404 444.62499120998405 376.51782683809614 462.9999917707446 381.69728012116053C481.37499233150504 386.8767334042249 476.1249921712878 418.8738437556992 494.4999927320483 422.41103136364563C512.8749932928088 425.94821897159204 507.62499313259156 393.69845236240724 525.999993693352 393.82478049126246C544.3749942541126 393.9511086201177 548.3124943742755 414.3801717435632 557.4999946546558 422.84415637686357 " transform="rotate(78.75, 400, 400)"></path><path d="M249.99998502731324 417.6313384632166C258.7499852943421 406.20165061441014 262.499985408783 381.4516498591001 279.9999859428406 378.44383726730894C297.49998647689824 375.4360246755178 292.4999863243104 407.318838148504 309.999986858368 407.318838148504C327.4999873924256 407.318838148504 322.49998723983776 377.24071223059246 339.9999877738954 378.44383726730894C357.499988307953 379.6469623040254 352.4999881553651 407.4735256532247 369.99998868942276 411.44383827438907C387.4999892234804 415.41415089555335 382.49998907089247 394.1016502451475 399.9999896049501 392.05633768272946C417.49999013900776 390.0110251203115 412.49998998641985 407.1985256448324 429.99999052047747 404.4313380603845C447.4999910545351 401.66415047593665 442.4999909019473 377.63602474265645 459.99999143600485 382.568837393194C477.49999197006247 387.50165004373144 472.49999181747467 417.975088473707 489.9999923515322 421.34383857651306C507.49999288558985 424.7125886793192 502.49999273300205 393.99852524200037 519.9999932670596 394.118837745672C537.4999938011172 394.23915024934365 541.2499939155582 413.6954008431013 549.999994182587 421.7563385891016 " transform="rotate(75, 400, 400)"></path><path d="M257.49998501300814 416.74977258909746C265.8124852666855 405.89156913273143 269.3749853754044 382.37906841518685 285.9999858827591 379.52164645298524C302.6249863901139 376.6642244907836 297.87498624515536 406.9528972901206 314.49998675251015 406.9528972901206C331.1249872598649 406.9528972901206 326.3749871149064 378.3786776681046 342.99998762226113 379.52164645298524C359.6249881296159 380.66461523786586 354.8749879846574 407.0998504196052 371.49998849201216 410.87164740971133C388.1249889993669 414.64344439981744 383.3749888544084 394.3965687819318 399.99998936176314 392.45352184763476C416.6249898691179 390.51047491333765 411.8749897241594 406.8386004116325 428.4999902315142 404.209772206407C445.12499073886886 401.5809440011816 440.3749905939104 378.7542245545654 456.99999110126515 383.440396572576C473.6249916086199 388.1265685905866 468.87499146366144 417.0763350990634 485.49999197101613 420.2766476967292C502.1249924783709 423.476960294395 497.3749923334125 394.2986000289421 513.9999928407672 394.41289690743014C530.624993348122 394.5271937859182 534.1874934568408 413.010631849988 542.4999937105182 420.6685227086883 " transform="rotate(71.25, 400, 400)"></path><path d="M264.999984998703 415.8682067149784C272.87498523902894 405.58148765105267 276.24998534202575 383.30648697127356 291.9999858226777 380.59945563866154C307.7499863033295 377.8924243060495 303.24998616600044 406.5869564317371 318.99998664665225 406.5869564317371C334.74998712730417 406.5869564317371 330.24998698997507 379.5166431056167 345.99998747062693 380.59945563866154C361.7499879512788 381.68226817170637 357.2499878139497 406.72617518598577 372.99998829460156 410.29945654503365C388.7499887752534 413.87273790408153 384.24998863792433 394.6914873187162 399.9999891185762 392.85070601254006C415.74998959922806 391.00992470636385 411.24998946189896 406.47867517843264 426.9999899425508 403.9882063524296C442.7499904232027 401.4977375264265 438.24999028587365 379.8724243664743 453.99999076652546 384.31195575195807C469.7499912471774 388.7514871374418 465.2499911098482 416.1775817244198 480.9999915905001 419.20945681694525C496.74999207115195 422.2413319094708 492.2499919338229 394.5986748158838 507.9999924144747 394.70695606918827C523.7499928951265 394.81523732249275 527.1249929981234 412.32586285687466 534.9999932384494 419.5807068282749 " transform="rotate(67.5, 400, 400)"></path><path d="M272.4999849843979 414.9866389335107C279.9374852113724 405.27140426202527 283.1249853086472 384.2339036200117 297.99998576259617 381.6772629169892C312.87498621654515 379.1206222139667 308.6249860868454 406.22101366600504 323.49998654079445 406.22101366600504C338.37498699474344 406.22101366600504 334.1249868650437 380.6546066357802 348.9999873189927 381.6772629169892C363.8749877729417 382.6999191981982 359.624987643242 406.3524980450176 374.49998809719096 409.7272637730073C389.37498855113995 413.102029500997 385.1249884214402 394.986403948152 399.99998887538925 393.24788827009667C414.87498932933823 391.50937259204136 410.6249891996385 406.11874803788413 425.4999896535875 403.76663859110346C440.37499010753646 401.4145291443228 436.1249899778368 380.99062227103457 450.9999904317858 385.18351302399145C465.87499088573475 389.37640377694834 461.62499075603506 415.27882644242754 476.49999120998405 418.14226402981274C491.37499166393303 421.00570161719793 487.12499153423335 394.8987476954769 501.9999919881823 395.0010133235978C516.8749924421313 395.1032789517187 520.0624925394061 411.6410919564127 527.4999927663806 418.492889040513 " transform="rotate(63.75, 400, 400)"></path><path d="M280.00000022888185 414.1050730593916C287.00000044250487 404.9613227803465 290.0000005340577 385.16132217609845 304.0000009613037 382.7550721026655C318.00000138854983 380.34882202923257 314.00000126647956 405.8550728076216 328.0000016937256 405.8550728076216C342.00000212097177 405.8550728076216 338.00000199890144 381.7925720732923 352.00000242614755 382.7550721026655C366.00000285339365 383.7175721320387 362.0000027313233 405.9788228113981 376.0000031585694 409.1550729083296C390.00000358581553 412.3313230052611 386.0000034637452 395.2813224849363 400.00000389099137 393.64507243500196C414.0000043182374 392.00882238506756 410.0000041961671 405.75882280468426 424.00000462341325 403.54507273712596C438.0000050506593 401.33132266956767 434.0000049285891 382.1088220829435 448.0000053558351 386.0550722033735C462.00000578308124 390.0013223238035 458.00000566101096 414.38007306778394 472.00000608825707 417.07507315002886C486.0000065155032 419.7700732322737 482.00000639343284 395.1988224824186 496.00000682067895 395.29507248535594C510.00000724792505 395.39132248829327 513.0000073394779 410.9563229632994 520.0000075531009 417.4050731600996 " transform="rotate(60, 400, 400)"></path><path d="M287.50000021457674 413.2235052779239C294.06250041484833 404.6512393913191 296.87500050067905 386.0887388248365 310.0000009012223 383.8328793809932C323.12500130176545 381.5770199371498 319.37500118732453 405.4891300418895 332.5000015878678 405.4891300418895C345.625001988411 405.4891300418895 341.87500187397006 382.93053560345584 355.00000227451335 383.8328793809932C368.1250026750565 384.7352231585305 364.3750025606156 405.60514567043003 377.5000029611589 408.5828801363033C390.6250033617021 411.5606146021765 386.87500324726113 395.5762391143721 400.0000036478044 394.0422546925586C413.1250040483476 392.5082702707451 409.37500393390667 405.39889566413575 422.50000433444995 403.3235049757999C435.6250047349931 401.248114287464 431.8750046205522 383.2270199875038 445.0000050210955 386.9266294754069C458.12500542163866 390.6262389633101 454.37500530719774 413.4813177857917 467.500005707741 416.0078803628963C480.6250061082842 418.5344429400009 476.8750059938433 395.49889536201175 490.0000063943865 395.58912973976544C503.12500679492973 395.6793641175192 505.93750688076045 410.27155206283743 512.5000070810321 416.3172553723377 " transform="rotate(56.25, 400, 400)"></path><path d="M295.00000020027164 412.3419384501305C301.1250003871918 404.341156955966 303.7500004673004 387.016156427249 316.0000008411408 384.91068761299516C328.2500012149811 382.80521879874135 324.7500011081696 405.1231882298317 337.0000014820099 405.1231882298317C349.2500018558503 405.1231882298317 345.75000174903874 384.0685000872936 358.0000021228791 384.91068761299516C370.25000249671945 385.7528751386967 366.75000238990793 405.2314694831362 379.0000027637483 408.01068831795124C391.2500031375886 410.78990715276626 387.75000303077707 395.87115669748215 400.0000034046174 394.43943790378955C412.25000377845777 393.00771911009696 408.75000367164625 405.03896947726156 421.00000404548655 403.1019381681481C433.2500044193269 401.16490685903455 429.75000431251544 384.34521884573843 442.00000468635574 387.79818770111467C454.25000506019603 391.2511565564909 450.7500049533846 412.5825634574738 463.0000053272249 414.94068852943803C475.2500057010653 417.29881360140234 471.75000559425376 395.79896919527914 484.00000596809406 395.8831879478493C496.2500063419344 395.9674067004195 498.87500642204304 409.5867821160498 505.00000660896325 415.22943853825 " transform="rotate(52.5, 400, 400)"></path><path d="M302.5000001859665 411.4603716223371C308.18750035953525 404.03107452061295 310.62500043392185 387.9435740296614 322.00000078105927 385.98849584499715C333.37500112819674 384.0334176603329 330.1250010290146 404.75724641777396 341.5000013761521 404.75724641777396C352.87500172328953 404.75724641777396 349.6250016241074 385.20646457113145 361.0000019712449 385.98849584499715C372.37500231838237 386.77052711886284 369.1250022192002 404.8577932958424 380.5000025663377 407.43849649959924C391.87500291347516 410.01919970335604 388.625002814293 396.16607428059217 400.00000316143047 394.8366211150205C411.37500350856794 393.5071679494488 408.1250034093858 404.67904329038737 419.50000375652326 402.88037136049627C430.8750041036607 401.08169943060517 427.6250040044786 385.46341770397305 439.0000043516161 388.66974592682243C450.3750046987535 391.87607414967175 447.1250045995714 411.68380912915586 458.5000049467088 413.87349669597984C469.8750052938463 416.0631842628038 466.6250051946642 396.0990430285466 478.00000554180167 396.1772461559331C489.3750058889391 396.2554492833197 491.81250596332575 408.90201216926215 497.50000613689446 414.1416217041624 " transform="rotate(48.75, 400, 400)"></path><path d="M310.0000001716614 410.5788038408694C315.2500003318787 403.72099113158555 317.50000040054323 388.8709906783995 328.0000007209778 387.0663031233248C338.50000104141236 385.26161556825014 335.50000094985967 404.39130365204187 346.0000012702942 404.39130365204187C356.5000015907288 404.39130365204187 353.50000149917605 386.34442810129497 364.00000181961065 387.0663031233248C374.50000214004524 387.78817814535466 371.5000020484925 404.4841161548743 382.0000023689271 406.86630372757287C392.5000026893617 409.2484913002715 389.50000259780893 396.46099091002793 400.00000291824347 395.23380337257714C410.5000032386781 394.00661583512635 407.5000031471253 404.31911614983886 418.00000346755996 402.65880359917014C428.5000037879945 400.9984910485015 425.5000036964418 386.5816156085333 436.00000401687635 389.5413031988558C446.50000433731094 392.50099078917833 443.5000042457582 410.7850538471636 454.0000045661928 412.8063039088473C464.5000048866274 414.82755397053097 461.50000479507463 396.39911590813966 472.0000051155092 396.47130341034267C482.50000543594376 396.5434909125456 484.75000550460834 408.21724126880025 490.0000056648256 413.0538039164004 " transform="rotate(45, 400, 400)"></path><path d="M317.5000001573563 409.697237013076C322.3125003042221 403.41090869623247 324.3750003671646 389.79840828081194 334.0000006608963 388.1441113553268C343.62500095462804 386.48981442984166 340.8750008707047 404.0253618399841 350.5000011644364 404.0253618399841C360.1250014581681 404.0253618399841 357.37500137424473 387.48239258513274 367.00000166797645 388.1441113553268C376.6250019617081 388.80583012552086 373.8750018777848 404.1104399675805 383.5000021715165 406.2941119092209C393.1250024652482 408.4777838508612 390.37500238132486 396.755908493138 400.0000026750565 395.6309865838081C409.62500296878824 394.5060646744782 406.8750028848649 403.95918996296473 416.5000031785966 402.4372367915184C426.1250034723283 400.91528362007205 423.37500338840493 387.6998144667679 433.00000368213665 390.4128614245636C442.62500397586837 393.12590838235917 439.875003891945 409.8862995188457 449.50000418567674 411.7391120753891C459.1250044794084 413.59192463193244 456.3750043954851 396.69918974140705 466.0000046892168 396.7653616184265C475.62500498294844 396.8315334954459 477.687505045891 407.5324713220126 482.5000051927568 411.9659870823128 " transform="rotate(41.25, 400, 400)"></path><path d="M325.0000001430511 408.8156701852826C329.3750002765656 403.1008262608794 331.25000033378603 390.7258258832244 340.0000006008148 389.2219195873288C348.75000086784365 387.7180132914332 346.2500007915497 403.65942002792633 355.0000010585785 403.65942002792633C363.75000132560734 403.65942002792633 361.2500012493134 388.6203570689706 370.0000015163422 389.2219195873288C378.75000178337103 389.823482105687 376.2500017070771 403.73676378028665 385.0000019741059 405.7219200908688C393.7500022411347 407.707076401451 391.2500021648408 397.05082607624803 400.0000024318696 396.02816979503905C408.7500026988984 395.00551351383007 406.2500026226045 403.59926377609054 415.00000288963327 402.2156699838666C423.75000315666205 400.83207619164267 421.2500030803682 388.81801332500254 430.00000334739696 391.2844196502713C438.75000361442574 393.75082597554 436.25000353813186 408.9875451905278 445.00000380516065 410.6719202419309C453.7500040721894 412.3562952933339 451.25000399589555 396.9992635746745 460.00000426292434 397.0594198265103C468.7500045299531 397.11957607834614 470.62500458717363 406.847701375225 475.000004720688 410.8781702482251 " transform="rotate(37.5, 400, 400)"></path><path d="M332.500000128746 407.9341024038149C336.43750024890903 402.790742871852 338.1250003004074 391.65324253196246 346.00000054073337 390.29972686565645C353.87500078105927 388.94621119935044 351.62500071239475 403.29347726219424 359.50000095272065 403.29347726219424C367.3750011930466 403.29347726219424 365.12500112438204 389.75832059913404 373.000001364708 390.29972686565645C380.87500160503396 390.84113313217887 378.6250015363694 403.36308663931857 386.5000017766953 405.1497273188425C394.37500201702125 406.93636799836645 392.1250019483567 397.3457427056838 400.00000218868263 396.4253520525957C407.87500242900853 395.5049613995076 405.625002360344 403.23933663554203 413.50000260067 401.99410222254045C421.3750028409959 400.7488678095389 419.12500277233136 389.93621122956284 427.00000301265726 392.1559769223047C434.8750032529832 394.3757426150466 432.62500318431864 408.08878990853555 440.50000342464455 409.6047274547983C448.3750036649705 411.12066500106107 446.125003596306 397.2993364542676 454.0000038366319 397.35347708091984C461.8750040769578 397.40761770757206 463.5625041284562 406.162930474763 467.50000424861923 409.79035246046317 " transform="rotate(33.75, 400, 400)"></path><path d="M339.99999629974366 407.05253652969583C343.49999640655517 402.4806613901732 344.9999964523316 392.5806610880492 351.9999966659546 391.37753605133275C358.9999968795777 390.1744110146163 356.9999968185425 402.9275364038108 363.99999703216554 402.9275364038108C370.9999972457886 402.9275364038108 368.99999718475345 390.8962860366462 375.99999739837654 391.37753605133275C382.99999761199956 391.8587860660193 380.9999975509644 402.98941140569906 387.9999977645874 404.57753645416483C394.9999979782105 406.16566150263054 392.99999791717534 397.6406612424682 399.9999981307984 396.82253621750095C406.99999834442144 396.0044111925338 404.9999982833863 402.87941140234216 411.99999849700936 401.772536368563C418.9999987106324 400.66566133478386 416.9999986495973 391.0544110414718 423.9999988632203 393.02753610168674C430.9999990768433 395.00066116190175 428.9999990158082 407.190036533892 435.9999992294313 408.5375365750144C442.9999994430543 409.88503661613686 440.99999938201915 397.59941124120934 447.9999995956422 397.647536242678C454.99999980926526 397.69566124414666 456.49999985504166 405.4781614816497 459.9999999618532 408.7025365800498 " transform="rotate(30, 400, 400)"></path><path d="M347.49999628543856 406.1709687482281C350.56249637889863 402.1705780011458 351.87499641895295 393.5080777367873 357.9999966058731 392.4553433296604C364.1249967927933 391.40260892253355 362.37499673938754 402.5615936380787 368.4999969263077 402.5615936380787C374.6249971132279 402.5615936380787 372.87499705982214 392.03424956680965 378.9999972467423 392.4553433296604C385.12499743366243 392.8764370925112 383.3749973802567 402.6157342647309 389.4999975671769 404.00534368213846C395.624997754097 405.394953099546 393.87499770069127 397.9355778719039 399.99999788761147 397.2197184750576C406.1249980745316 396.5038590782113 404.37499802112586 402.51948426179365 410.499998208046 401.5509686072369C416.62499839496616 400.5824529526801 414.87499834156046 392.172608946032 420.9999985284806 393.8990933737202C427.12499871540075 395.6255778014083 425.37499866199505 406.29128125189976 431.4999988489152 407.47034378788186C437.62499903583534 408.649406323864 435.8749989824296 397.8994841208024 441.99999916934973 397.94159349708747C448.12499935626994 397.9837028733726 449.43749939632426 404.79339058118774 452.4999994897844 407.6147187922878 " transform="rotate(26.25, 400, 400)"></path><path d="M354.99999627113345 405.28940192043467C357.6249963512421 401.8604955657928 358.7499963855744 394.43549533919975 363.99999654579165 393.5331515616624C369.2499967060089 392.63080778412507 367.74999666023257 402.19565182602094 372.99999682044984 402.19565182602094C378.2499969806671 402.19565182602094 376.74999693489076 393.1722140506475 381.99999709510803 393.5331515616624C387.24999725532535 393.89408907267733 385.74999720954895 402.24205807743715 390.9999973697663 403.43315186378646C396.2499975299836 404.6242456501357 394.7499974842072 398.23049545501397 399.99999764442447 397.61690168628854C405.2499978046418 397.0033079175632 403.7499977588654 402.15955807491946 408.9999979190827 401.32940179958507C414.2499980793 400.49924552425074 412.74999803352364 393.29080780426665 417.9999981937409 394.77065159942794C423.2499983539582 396.25049539458917 421.74999830818183 405.39252692358184 426.9999984683991 406.40315195442366C432.2499986286164 407.4137769852655 430.74999858284 398.1995579540698 435.99999874305735 398.23565170517134C441.2499989032746 398.2717454562728 442.3749989376069 404.1086206344001 444.99999901771554 406.5269019582002 " transform="rotate(22.5, 400, 400)"></path><path d="M362.4999962568283 404.4078350926413C364.6874963235855 401.5504131304397 365.62499635219575 395.3629129416122 369.99999648571014 394.6109597936644C374.3749966192246 393.8590066457166 373.1249965810776 401.82971001396317 377.499996714592 401.82971001396317C381.87499684810643 401.82971001396317 380.62499680995944 394.31017853448526 384.99999694347383 394.6109597936644C389.3749970769883 394.9117410528435 388.1249970388413 401.8683818901433 392.4999971723557 402.8609600454344C396.8749973058701 403.8535382007255 395.62499726772313 398.52541303812404 399.9999974012375 398.0140848975195C404.37499753475197 397.502756756915 403.124997496605 401.79963188804527 407.49999763011937 401.10783499193326C411.87499776363376 400.4160380958213 410.6249977254868 394.40900666250127 414.9999978590012 395.64220982513564C419.3749979925156 396.87541298777 418.12499795436867 404.4937725952639 422.49999808788306 405.3359601209654C426.87499822139745 406.17814764666696 425.6249981832505 398.49963178733725 429.9999983167649 398.52970991325515C434.3749984502793 398.55978803917304 435.31249847888955 403.42385068761246 437.49999854564675 405.4390851241126 " transform="rotate(18.75, 400, 400)"></path><path d="M369.9999962425232 403.5262682648479C371.74999629592895 401.24033069508664 372.4999963188171 396.2903305440246 375.99999642562864 395.6887680256664C379.4999965324402 395.08720550730817 378.4999965019226 401.4637682019054 381.99999660873414 401.4637682019054C385.49999671554565 401.4637682019054 384.4999966850281 395.4481430183231 387.99999679183964 395.6887680256664C391.49999689865115 395.92939303300966 390.49999686813356 401.49470570284956 393.9999969749451 402.2887682270824C397.49999708175665 403.08283075131527 396.499997051239 398.82033062123406 399.9999971580506 398.4112681087505C403.4999972648621 398.0022055962669 402.4999972343445 401.4397057011711 405.999997341156 400.8862681842815C409.49999744796753 400.33283066739193 408.49999741745 395.5272055207359 411.9999975242615 396.5137680508434C415.49999763107303 397.5003305809509 414.4999976005555 403.595018266946 417.999997707367 404.2687682875072C421.4999978141785 404.94251830806843 420.49999778366094 398.79970562060464 423.99999789047246 398.82376812133896C427.499997997284 398.84783062207333 428.2499980201722 402.7390807408249 429.99999807357796 404.3512682900249 " transform="rotate(15, 400, 400)"></path><path d="M377.50000004291536 402.6447014370545C378.8125000829697 400.93024825973356 379.3750001001358 397.21774814643703 382.00000018024446 396.76657625766836C384.6250002603531 396.3154043688997 383.8750002374649 401.0978263898476 386.50000031757355 401.0978263898476C389.1250003976822 401.0978263898476 388.375000374794 396.58610750216087 391.00000045490265 396.76657625766836C393.6250005350113 396.94704501317585 392.8750005121231 401.12102951555573 395.5000005922318 401.71657640873036C398.12500067234043 402.31212330190505 397.3750006494522 399.11524820434414 400.00000072956084 398.80845131998143C402.62500080966953 398.5016544356188 401.87500078678136 401.0797795142969 404.50000086689 400.6647013766297C407.1250009469986 400.2496232389625 406.37500092411045 396.6454043789705 409.0000010042191 397.3853262765511C411.6250010843277 398.12524817413174 410.87500106143955 402.6962639386281 413.5000011415482 403.20157645404896C416.1250012216568 403.7068889694699 415.37500119876864 399.0997794538721 418.00000127887733 399.1178263294228C420.62500135898597 399.13587320497356 421.1875013761521 402.05431079403724 422.5000014162064 403.26345145593723 " transform="rotate(11.25, 400, 400)"></path><path d="M385.0000000286102 401.7631336555868C385.8750000553131 400.62016487070616 386.2500000667572 398.14516479517516 388.00000012016295 397.84438353599603C389.75000017356876 397.5436022768169 389.25000015830994 400.73188362411554 391.0000002117157 400.73188362411554C392.75000026512146 400.73188362411554 392.2500002498627 397.7240710323244 394.00000030326845 397.84438353599603C395.7500003566742 397.9646960396677 395.25000034141544 400.7473523745876 397.0000003948212 401.14438363670405C398.75000044822696 401.54141489882045 398.25000043296814 399.4101648337799 400.0000004863739 399.2056335775381C401.75000053977965 399.0011023212963 401.2500005245209 400.7198523737484 403.00000057792664 400.44313361530357C404.7500006313324 400.1664148568588 404.25000061607363 397.76360228353076 406.0000006694794 398.25688354858454C407.75000072288515 398.75016481363826 407.2500007076264 401.79750865663584 409.00000076103214 402.13438366691645C410.7500008144379 402.47125867719706 410.25000079917913 399.39985233346516 412.0000008525849 399.4118835838323C413.75000090599065 399.4239148341995 414.1250009174347 401.3695398935753 415.0000009441376 402.1756336681753 " transform="rotate(7.5, 400, 400)"></path><path d="M392.5000000143051 400.8815668277934C392.93750002765654 400.3100824353531 393.12500003337857 399.07258239758755 394.0000000600815 398.922191767998C394.8750000867844 398.7718011384085 394.625000079155 400.36594181205777 395.50000010585785 400.36594181205777C396.37500013256073 400.36594181205777 396.1250001249313 398.86203551616217 397.00000015163425 398.922191767998C397.87500017833713 398.98234801983386 397.6250001707077 400.3736761872938 398.5000001974106 400.572191818352C399.3750002241135 400.7707074494102 399.12500021648407 399.7050824168899 400.00000024318695 399.602816788769C400.8750002698898 399.5005511606481 400.6250002622604 400.3599261868742 401.5000002889633 400.2215668076518C402.3750003156662 400.0832074284294 402.1250003080368 398.8818011417654 403.0000003347397 399.12844177429224C403.8750003614426 399.37508240681916 403.6250003538132 400.8987543283179 404.5000003805161 401.0671918334582C405.375000407219 401.2356293385985 405.12500039958957 399.6999261667326 406.00000042629244 399.7059417919162C406.8750004529953 399.71195741709977 407.06250045871735 400.68476994678764 407.5000004720688 401.0878168340877 " transform="rotate(3.75, 400, 400)"></path></g></svg>