<svg xmlns="http://www.w3.org/2000/svg" version="1.1" xmlns:xlink="http://www.w3.org/1999/xlink" xmlns:svgjs="http://svgjs.dev/svgjs" viewBox="0 0 800 800" opacity="0.46"><defs><linearGradient x1="50%" y1="0%" x2="50%" y2="100%" id="wwwhirl-grad"><stop stop-color="hsl(27, 98%, 48%)" stop-opacity="1" offset="45%"></stop><stop stop-color="hsl(222.2, 47.4%, 11.2%)" stop-opacity="1" offset="100%"></stop></linearGradient></defs><g stroke-width="2" stroke="url(#wwwhirl-grad)" fill="none" stroke-linecap="round"><path d="M-575.0000619021328 443.97808144425073C-523.295515013135 389.68830721080303 -501.13642348927874 274.904213117228 -397.72732971128323 257.8417126438587C-294.31823593328767 240.77921217048947 -323.8636912984292 384.7025116179354 -220.4545975204337 385.4780798212704C-117.0455037424382 386.25364802460535 -146.5909591075798 241.88716674668228 -43.18186532958407 260.50080362672145C60.22722844841144 279.1144405067607 30.681773083269945 429.13149012326704 134.09086686126534 449.2962634099762C237.49996063926085 469.46103669668537 207.95450527411936 338.1684194178374 311.36359905211475 329.6371691811528C414.7726928301104 321.10591894446816 385.22723746496877 430.9042174451756 488.6363312429644 420.046262598486C592.04542502096 409.1883077517965 562.4999696558184 262.16273549101066 665.909063433814 292.4098954210744C769.3181572118096 322.65705535113807 739.7727018466678 530.7309247601477 843.1817956246632 523.750810930133C946.5908894026591 516.7706971001182 917.0454340375175 263.0490991519649 1020.4545278155131 268.4780765753097C1123.8636215935085 273.9070539986545 1094.3181662283669 525.3019473368029 1197.7272600063623 542.3644478101721C1301.136353784358 559.4269482835415 1323.2954453082139 389.79910266842234 1374.999992197212 326.97807819829006 " transform="rotate(416, 400, 400)"></path><path d="M-556.2500620321792 443.1323434967778C-505.5398333525852 389.88660338320415 -483.8068782041878 277.3098957145055 -382.38642084499986 260.5755202502395C-280.965963485812 243.84114478597348 -309.9432370170085 384.9966884748147 -208.5227796578206 385.7573419050086C-107.10232229863266 386.5179953352025 -136.0795958298292 244.92779254339337 -34.65913847064121 263.1834748680472C66.76131888854673 281.43915719270103 37.78404535735024 428.57126354735146 139.20450271653817 448.3482527323932C240.624960075726 468.1252419174348 211.64768654452962 339.3574826631801 313.06814390371744 330.9902949310471C414.48860126290515 322.6231071989141 385.5113277317088 430.30989995922334 486.9317850908967 419.6607519365085C588.3522424500848 409.0116039137938 559.3749689188883 264.813446504177 660.7954262780761 294.47893028173945C762.2158836372641 324.14441405930194 733.2386101060674 528.2168629027536 834.6590674652552 521.3709820310085C936.0795248244433 514.5251011592633 907.1022512932468 265.6827647101129 1008.5227086524351 271.00733872147026C1109.943166011623 276.3319127328276 1080.965892480426 522.8922888913962 1182.386349839614 539.6266643556623C1283.8068071988023 556.3610398199282 1305.5397623471993 389.99526815894615 1356.2499910267934 328.3823403132394 " transform="rotate(408, 400, 400)"></path><path d="M-537.5000621622257 442.28662080809397C-487.78415169203555 390.08491481439427 -466.47733291909685 279.7155935705721 -367.04551197871655 263.3093431154093C-267.61369103833624 246.9030926602466 -296.0227827355877 385.2908805904831 -196.59096179520742 386.0366192475359C-97.15914085482706 386.7823579045888 -125.56823255207865 247.9684335988935 -26.136411611698236 265.86616136816195C73.29540932868213 283.76388913743045 44.88631763143076 428.011052230225 144.3181385718109 447.40025731359924C243.74995951219114 466.78946239697336 215.34086781493966 340.5465611673119 314.77268875532 332.3434359397305C414.20450969570027 324.1403107121492 385.7954179984488 429.71559773206013 485.22723893882903 419.2752565333202C584.6590598792095 408.8349153345803 556.2499681819581 267.4641727761324 655.6817891223384 296.5479804011936C755.1136100627186 325.63178802625487 726.704518365467 525.7028163041487 826.1363393058473 518.991168390673C925.5681602462278 512.2795204771974 897.1590685489764 268.31644552704995 996.5908894893569 273.5366161264199C1096.022710429737 278.7567867257899 1067.6136187324853 520.4826457047787 1167.0454396728658 536.8888961599415C1266.477260613246 553.2951466151043 1287.7840793861847 390.19144890825896 1337.499989856375 329.78661768697793 " transform="rotate(400, 400, 400)"></path><path d="M-518.7500622922722 441.4408847679697C-470.0284700314859 390.28321289414396 -449.14778763400597 282.12127807519823 -351.70460311243323 266.0431526291388C-254.2614185908605 249.96502718307926 -282.10232845416704 385.585059354711 -184.6591439325943 386.3158832386228C-87.21595941102163 387.0467071225346 -115.05686927432811 251.00906130295323 -17.613684752755262 268.54883451683634C79.82949976881753 286.08860773071945 51.98858990551105 427.4508275616581 149.43177442708372 446.4522485433648C246.8749589486564 465.4536695250716 219.03404908534992 341.7356263200033 316.4772336069226 333.69656359697353C413.92041812849516 325.6575008739438 386.0795082651888 429.1212821534566 483.5226927867616 418.8897477786914C580.9658773083343 408.6582134039263 553.1249674450278 270.1148856966473 650.5681519666007 298.6170171692074C748.0113364881734 327.11914864176737 720.1704266248666 523.1887563541034 817.6136111464393 516.6113413988973C915.0567956680125 510.03392644369103 887.2158858047057 270.9501129925465 984.6590703262787 276.0658801799291C1082.1022548478513 281.18164736731165 1054.2613449845446 518.0729891667208 1151.7045295061173 534.1511146127802C1249.1477140276902 550.2292400588399 1270.0283964251698 390.3876163061314 1318.7499886859564 331.19088170927597 " transform="rotate(392, 400, 400)"></path><path d="M-500.0000624223187 440.5951449131481C-452.27278837093615 390.48150715919644 -431.818242348915 284.5269587651271 -336.3636942461499 268.7769583281709C-240.90914614338482 253.02695789121466 -268.1818741727463 385.87923430424166 -172.7273260699812 386.5951434150124C-77.27277796721603 387.31105252578317 -104.5455059965775 254.0496851923157 -9.090957893812401 271.23150385081345C86.36359020895281 288.4133225093112 59.090862179591454 426.89059907839396 154.54541028235644 445.5042359584331C249.99995838512154 464.1178728384724 222.72723035576007 342.92468765799737 318.1817784585252 335.04968743951923C413.6363265612903 327.17468722104115 386.3635985319288 428.5269627601557 481.8181466346939 418.50423520936533C577.2726947374592 408.48150765857497 549.9999667080976 272.765594802465 645.4545148108627 300.6860501225238C740.9090629136281 328.6065054425826 713.6363348842663 520.6746925893607 809.0908829870314 514.231510592424C904.5454310897965 507.7883285954874 877.2727030604353 273.58377664334586 972.7272511632007 278.59514041874104C1068.1817992659658 283.6065041941362 1040.909071236604 515.6633288139656 1136.363619339369 531.4133292509217C1231.8181674421342 547.163329687878 1252.2727134641552 390.5837798893065 1299.9999875155377 332.59514191687674 " transform="rotate(384, 400, 400)"></path><path d="M-481.2500625523652 439.74942413181293C-434.51710671038643 390.6798204977352 -414.48869706382413 286.93265852854233 -321.0227853798666 271.51078310068937C-227.55687369590908 256.0889076728364 -254.26141989132554 386.17342832725865 -160.79550820736802 386.87442266488836C-67.32959652341049 387.57541700251807 -94.03414271882701 257.0903281551645 -0.5682310348693136 273.91419225827684C92.89768064908822 290.7380563613892 66.19313445367175 426.33038966861614 159.65904613762928 444.5562424469878C253.12495782158658 462.78209522535957 226.42041162617022 344.1137680694778 319.88632331012775 336.4028303555513C413.35223499408517 328.6918926416248 386.6476887986688 427.9326624403411 480.1136004826262 418.11874171352554C573.579512166584 408.30482098671007 546.8749659711675 275.41632298176904 640.340877655125 302.7551021493266C733.8067893390826 330.09388131688416 707.1022431436659 518.1606478981043 800.5681548276234 511.85169885943725C894.0340665115812 505.54274982077015 867.3295203161647 276.21745936763153 960.7954320001224 281.12441973103927C1054.2613436840797 286.03138009444706 1027.556797488663 513.2536875346966 1121.0227091726206 528.6755629625496C1214.4886208565783 544.0974383904027 1234.5170305031406 390.77996254596803 1281.2499863451192 333.99942119796384 " transform="rotate(376, 400, 400)"></path><path d="M-462.5000626824117 438.9036842769913C-416.76142504983676 390.8781147627876 -397.1591517787332 289.3383392184712 -305.6818765135833 274.2445887997215C-214.2046012484334 259.1508383809718 -240.34096560990474 386.4676032767893 -148.8636903447549 387.15368284127794C-57.386415079605 387.8397624057666 -83.52277944107647 260.13095204452696 7.954495824073547 276.59686159225396C99.4317710892235 293.06277113998095 73.29540672775215 425.770161185352 164.772681992902 443.6082298620562C256.24995725805184 461.44629853876046 230.11359289658049 345.3028294074719 321.5908681617303 337.755954198097C413.06814342688006 330.2090789887221 386.9317790654088 427.33834304704027 478.4090543305588 417.7332291441995C569.8863295957087 408.1281152413587 543.7499652342374 278.0670320875867 635.2272404993873 304.824135102643C726.7045157645373 331.5812381176994 700.5681514030655 515.6465841333618 792.0454266682154 509.47186805296417C883.5227019333654 503.29715197256655 857.386337571894 278.8511230184308 948.863612837044 283.6536799698512C1040.340888102194 288.45623692127157 1014.2045237407226 510.8440271819413 1105.6817990058723 525.9377776006911C1197.1590742710225 541.0315280194409 1216.7613475421258 390.97612612914315 1262.4999851747007 335.4036814055646 " transform="rotate(368, 400, 400)"></path><path d="M-443.7500628124582 438.0579634956561C-399.0057433892871 391.0764281013264 -379.82960649364225 291.7440389818865 -290.3409676473 276.97841357224C-200.8523288009577 262.21278816259354 -226.42051132848405 386.7617972998063 -136.93187248214178 387.4329620911539C-47.44323363579946 388.1041268825015 -73.01141616332586 263.17159500737574 16.47722268301652 279.27954999971735C105.96586152935879 295.387504992059 80.39767900183256 425.2099517755741 169.8863178481747 442.66023635061083C259.374956694517 460.1105209256476 233.80677416699064 346.4919098189523 323.2954130133329 339.1090971141291C412.7840518596752 331.72628440930583 387.2158693321488 426.74404272722575 476.7045081784911 417.34773564835973C566.1931470248337 407.9514285694938 540.6249644973072 280.7177602668907 630.1136033436494 306.89318712944583C719.6022421899918 333.06861399200096 694.0340596624653 513.1325394421054 783.5226985088075 507.0920563199773C873.0113373551499 501.0515731978492 847.4431548276236 281.4848057427165 936.931793673966 286.18295928214945C1026.4204325203084 290.88111282158246 1000.8522499927817 508.4343859026725 1090.340888839124 523.2000113123189C1179.8295276854662 537.9656367219654 1199.0056645811112 391.1723087858046 1243.7499840042822 336.8079606866517 " transform="rotate(360, 400, 400)"></path><path d="M-425.0000629425047 437.2122255481832C-381.25006172873736 391.2747242737275 -362.50006120855136 294.149721579164 -275.00005878101666 279.7122211786208C-187.50005635348197 265.27472077807755 -212.5000570470633 387.05597415668564 -125.00005461952867 387.7122241748922C-37.500052191993916 388.3684741930987 -62.500052885575315 266.2122208040868 24.999949541959495 281.9622212410431C112.49995196949419 297.7122216779993 87.49995127591285 424.6497251996586 174.99995370344755 441.71222567302783C262.4999561309821 458.77472614639714 237.4999554374009 347.680973064295 324.9999578649355 340.46222286402343C412.4999602924702 333.24347266375185 387.49995959888884 426.1497252412735 474.99996202642353 416.96222498638235C562.4999644539585 407.7747247314912 537.4999637603771 283.36847128005707 624.9999661879117 308.96222199011095C712.4999686154463 334.55597270016483 687.4999679218647 510.6184775847114 774.9999703493995 504.7122274208528C862.4999727769343 498.8059772569942 837.499972083353 284.1184713008645 924.9999745108878 288.71222142831004C1012.4999769384224 293.3059715557556 987.499976244841 506.02472745726584 1074.9999786723756 520.462227857809C1162.4999810999104 534.8997282583523 1181.2499816200966 391.3684742763284 1224.9999828338637 338.2122228016011 " transform="rotate(352, 400, 400)"></path><path d="M-406.2500630725512 436.36648569336165C-363.49438006818764 391.47301853877997 -345.1705159234604 296.5554022690929 -259.65914991473335 282.4460268776529C-174.14778390600628 268.33665148621293 -198.57960276564256 387.3501491062163 -113.0682367569155 387.99148435128177C-27.55687074818843 388.63281959634725 -51.98868960782477 269.25284469344933 33.52267640090241 284.64489057502016C119.03404240962959 300.03693645659104 94.60222354999337 424.0894967163944 180.11358955872026 440.7642130880962C265.6249555674474 457.43892945979803 241.19313670781105 348.8700344022891 326.70450271653806 341.81534670656913C412.21586872526507 334.76065901084917 387.78404986562884 425.5554058479726 473.29541587435597 416.5767124170562C558.8067818830832 407.5980189861399 534.3749630234468 286.01918038587473 619.886329032174 311.03125494342737C705.397695040901 336.04332950098006 680.9658761812645 508.1044138199688 766.4772421899916 502.3323966143797C851.9886081987188 496.56037940879065 827.5567893390826 286.75213495166383 913.0681553478096 291.241481667122C998.5795213565368 295.73082838258017 974.1477024969004 503.6150671045106 1059.6590685056274 517.7244424959506C1145.1704345143546 531.8338178873905 1163.4942986590816 391.5646378595036 1206.2499816634452 339.6164830092019 " transform="rotate(344, 400, 400)"></path><path d="M-387.50006320259774 435.5207630046778C-345.73869840763797 391.6713299699701 -327.8409706383695 298.9611001251595 -244.31824104845003 285.17984974282274C-160.79551145853054 271.39859936048606 -184.65914848422187 387.6443412218847 -101.13641889430238 388.27076169380905C-17.613689304382888 388.8971821657335 -41.47732633007416 272.2934857489495 42.045403259845386 287.32757707513497C125.56813284976488 302.36166840132046 101.70449582407366 423.5292853992679 185.2272254139931 439.81621766930226C268.7499550039124 456.10314993933656 244.8863179782212 350.0591129064209 328.40904756814064 343.1684877152526C411.9317771580602 336.2778625240842 388.06814013236885 424.96110362080947 471.5908697222883 416.1912170138679C555.113599312208 407.4213304069263 531.2499622865167 288.6699066578301 614.772691876436 313.10030506288155C698.2954214663557 337.530703467933 674.4317844406642 505.5903672213638 757.9545140305836 499.9525829740443C841.4772436205033 494.3147987267247 817.6136065948119 289.3858157686008 901.1363361847316 293.7707590720716C984.659065774651 298.1557023755424 960.7954287489595 501.20542391789303 1044.3181583388791 514.9866743002298C1127.8408879287986 528.7679246825664 1145.738615698067 391.7608186088164 1187.4999804930267 341.02076038294035 " transform="rotate(336, 400, 400)"></path><path d="M-368.75006333264423 434.6750250572049C-327.9830167470883 391.86962614237115 -310.5114253532786 301.366782722437 -228.97733218216672 287.9136573492035C-147.44323901105486 274.46053197597007 -170.73869420280107 387.938518078764 -89.20460103168926 388.5500237775473C-7.670507860577345 389.16152947633066 -30.965963052323673 275.33411154566056 50.568130118788304 290.0102483164607C132.10222328990017 304.6863850872608 108.80676809815395 422.9690588233524 190.34086126926582 438.86820699171926C271.8749544403777 454.767355160086 248.57949924863146 351.24817615176363 330.1135924197432 344.5216134651469C411.6476855908551 337.7950507785302 388.35223039910886 424.3667861348572 469.8863235702207 415.8057063518904C551.4204167413327 407.24462656892365 528.1249615495866 291.3206176709964 609.6590547206984 315.16933992354666C691.1931478918102 339.01806217609686 667.8976927000638 503.0763053639698 749.4317858711756 497.57275407491977C830.9658790422877 492.0692027858697 807.6704238505413 292.0194813267488 889.2045170216534 296.3000212182322C970.7386101927652 300.5805611097156 947.4431550010188 498.79576547248644 1028.9772481721309 512.2488908457199C1110.5113413432427 525.7020162189533 1127.9829327370524 391.9569840993402 1168.7499793226082 342.42502249788976 " transform="rotate(328, 400, 400)"></path><path d="M-350.0000634626907 433.8292890170806C-310.2273350865386 392.0679242221209 -293.18188006818764 303.77246722706315 -213.6364233158834 290.64746686293296C-134.09096656357917 277.5224664988027 -156.81823992138038 388.2326968429919 -77.27278316907609 388.82928776863423C2.2726735832281975 389.4258786942765 -20.45459977457307 278.3747392497203 59.09085697773122 292.69292146513504C138.63631373003545 307.0111036805498 115.90904037223436 422.4088341547855 195.45449712453865 437.92019822148484C274.9999538768427 453.4315622881842 252.27268051904161 352.43724130445503 331.8181372713458 345.8747411223899C411.36359402364997 339.3122409403248 388.63632066584887 423.7724705562536 468.18177741815316 415.4201975972617C547.7272341704575 407.0679246382697 524.9999608126562 293.9713305915114 604.5454175649604 317.23837669156035C684.0908743172647 340.50542279160936 661.3636009594634 500.5622454139244 740.9090577117677 495.1929270831439C820.454514464072 489.8236087523634 797.7272411062709 294.6531487922454 877.2726978585752 298.82928527174136C956.8181546108794 303.00542175123735 934.0908812530781 496.3861089344285 1013.6363380053824 509.5111092985587C1093.181794757687 522.6361096626889 1110.2272497760375 392.15315149721266 1149.9999781521897 343.8292865201878 " transform="rotate(320, 400, 400)"></path><path d="M-331.2500635927372 432.98356442104813C-292.4716534259889 392.2662337459624 -275.8523347830967 306.1781631757811 -198.2955144496001 293.38128782075415C-120.73869411610343 280.5844124657272 -142.89778563995964 388.52688705131163 -65.34096530646298 389.1085632038129C12.215855027033683 389.6902393563141 -9.943236496822522 281.4153783978718 67.61358383667414 295.3756060579012C145.17040417017097 309.3358337179306 123.01131264631476 421.8486209303104 200.56813297981137 436.9722008953422C278.12495331330797 452.09578086037413 255.96586178945188 353.62631790123817 333.52268212294837 347.2278802237247C411.0795024564451 340.8294425462112 388.9204109325889 423.1781664217418 466.4772312660855 415.0347002867246C544.0340515995823 406.89123415170747 521.8749600757262 296.6220549561181 599.4317804092227 319.3074249036659C676.9886007427194 341.99279485121366 654.8295092188632 498.04819690797086 732.3863295523597 492.8131115354598C809.9431498858564 487.57802616294885 787.7840583620005 297.2868277018338 865.3408786954972 301.3585607693424C942.8976990289937 305.430293836851 920.7386075051375 493.97646384046226 998.2954278386339 506.77333919548926C1075.8522481721309 519.5702145505162 1092.471566815023 392.34933033917684 1131.2499769817712 345.2335619865776 " transform="rotate(312, 400, 400)"></path><path d="M-312.5000637227837 432.13782838092385C-274.71597176543924 392.46453182571213 -258.5227894980058 308.58384768040725 -182.95460558331678 296.11509733448355C-107.38642166862769 283.64634698855986 -128.9773313585389 388.82106581553955 -53.40914744384986 389.3878271948997C22.15903647083917 389.95458857425996 0.5681267809280257 284.4560061019315 76.13631069561711 298.05827920657555C151.70449461030626 311.6605523112196 130.1135849203951 421.28839626174346 205.68176883508409 436.02419212510785C281.2499527497731 450.7599879884723 259.65904305986203 354.8153830539295 335.22722697455094 348.58100788096766C410.79541088924 342.3466327080058 389.2045011993289 422.5838508431382 464.7726851140179 414.6491915320958C540.3408690287071 406.71453222105345 518.7499593387961 299.27276787663305 594.3181432534849 321.37646167167964C669.8863271681739 343.48015546672616 648.2954174782626 495.5341369579255 723.8636013929518 490.43328454368395C799.4317853076409 485.33243212944245 777.8408756177298 299.9204951673304 853.409059532419 303.8878248228516C928.9772434471081 307.85515447837275 907.3863337571968 491.5668073024043 982.9545176718857 504.035557648328C1058.5227015865748 516.5043079942517 1074.715883854008 392.54549773704923 1112.4999758113527 346.63782600887566 " transform="rotate(304, 400, 400)"></path><path d="M-293.75006385283024 431.29210378489137C-256.9602901048895 392.6628413495536 -241.1932442129149 310.9895436291252 -167.61369671703346 298.84891829230475C-94.034149221152 286.70829295548435 -115.05687707711814 389.11525602385933 -41.477329581236745 389.66710263007843C32.10221791464477 390.21894923629753 11.079490058678573 287.4966452500831 84.65903755456003 300.7409637993417C158.23858505044154 313.9852823486004 137.21585719447546 420.72818303726837 210.79540469035692 435.0761947989653C284.37495218623826 449.4242065606621 263.3522243302722 356.00445965071265 336.9317718261535 349.9341469823024C410.511319322035 343.86383431389226 389.4885914660689 421.98954670862634 463.06813896195035 414.2636942215588C536.6476864578318 406.5378417344912 515.6249586018657 301.92349224123984 589.2045060977471 323.4455098837851C662.7840535936286 344.96752752633046 641.7613257376623 493.0200884519719 715.3408732335438 488.0534689959999C788.9204207294254 483.0868495400279 767.8976928734594 302.5541740769188 841.4772403693407 306.41710032045256C915.0567878652223 310.2800265639863 894.0340600092559 489.1571622084381 967.6136075051375 501.29778754525853C1041.1931550010188 513.438412882079 1056.9602008929935 392.7416765790135 1093.7499746409342 348.0421014752655 " transform="rotate(296, 400, 400)"></path><path d="M-275.0000639828767 430.44636583741845C-239.2046084443398 392.8611375219547 -223.86369892782398 313.3952262264027 -152.27278785075015 301.58272589868557C-80.68187677367632 289.77022557096836 -101.13642279569743 389.4094328807386 -29.545511718623573 389.9463647138167C42.045399358450254 390.48329654689474 21.590853336429177 290.53727104679416 93.181764413503 303.4236350406674C164.77267549057694 316.30999903454074 144.31812946855592 420.16795646135284 215.90904054562964 434.1281841213822C287.4999516227034 448.08841178141165 267.04540560068244 357.1935228960554 338.6363166777562 351.2872727321968C410.22722775482987 345.3810225683382 389.7726817328089 421.3952292226742 461.3635928098828 413.8781835595814C532.9545038869568 406.36113789648863 512.4999578649356 304.57420325440614 584.0908689420094 325.51454474445023C655.6817800190834 346.4548862344943 635.2272339970621 490.50602659457786 706.8181450741358 485.67364009687543C778.4090561512098 480.84125359917294 757.9545101291887 305.1878396350668 829.5454212062627 308.94636246661315C901.1363322833365 312.7048852981595 880.6817862613152 486.74750376303155 952.272697338389 498.5600040907487C1023.863608415463 510.3725044184659 1039.2045179319787 392.9378420695373 1074.9999734705157 349.4463635902149 " transform="rotate(288, 400, 400)"></path><path d="M-256.2500641129232 429.60062788994554C-221.4489267837901 393.0594336943558 -206.53415364273303 315.80090882368023 -136.93187898446683 304.31653350506633C-67.32960432620058 292.8321581864524 -87.21596851427665 389.7036097376179 -17.6136938560104 390.2256267975549C51.9885808022558 390.74764385749194 32.102216614179724 293.57789684350524 101.70449127244598 306.10630628199317C171.3067659307123 318.6347157204811 151.42040174263627 419.6077298854373 221.02267640090236 433.1801734437992C290.62495105916867 446.7526170021612 270.7385868710926 358.3825861413981 340.3408615293588 352.64039848209114C409.9431361876249 346.8982108227842 390.0567719995489 420.8009117367219 459.6590466578151 413.49267289760394C529.2613213160815 406.184434058486 509.37495712800535 307.22491426757244 578.9772317862715 327.58357960511535C648.5795064445379 347.9422449426582 628.6931422564616 487.9919647371839 698.295416914728 483.29381119775087C767.8976915729943 478.5956576583179 748.0113273849181 307.8215051932147 817.6136020431845 311.4756246127737C887.2158767014507 315.12974403233267 867.3295125133745 484.3378453176249 936.9317871716407 495.82222063623885C1006.5340618299072 507.30659595485275 1021.4488349709641 393.13400756006104 1056.2499723000972 350.8506257051643 " transform="rotate(280, 400, 400)"></path><path d="M-237.50006424296973 428.7549071086103C-203.69324512324042 393.25774703289454 -189.20460835764212 318.20660858709545 -121.59097011818352 307.0503582775848C-53.9773318787249 295.89410796807414 -73.29551423285594 389.9978037606349 -5.681875993397284 390.50490604743084C61.93176224606134 391.01200833422683 42.61357989193027 296.618539806354 110.22721813138895 308.7889946894566C177.84085637084758 320.95944957255915 158.52267401671662 419.04752047565944 226.1363122561752 432.2321799323539C293.7499504956337 445.4168393890484 274.43176814150274 359.5716665528785 342.04540638096137 353.9935413981232C409.6590446204199 348.4154162433679 390.3408622662889 420.2066114169073 457.95450050574755 413.1071794017642C525.5681387452062 406.007747386621 506.2499563910752 309.87564244687644 573.8635946305337 329.6526316319181C641.4772328699925 349.42962081695975 622.1590505158613 485.4779200459276 689.77268875532 480.91399946476406C757.3863269947788 476.35007888360064 738.0681446406477 310.4551879175004 805.6817828801063 314.00490392507197C873.2954211195649 317.55461993264356 853.9772387654336 481.92820403835594 921.5908770048925 493.08445434786665C989.2045152443511 504.24070465737736 1003.6931520099492 393.33019021672254 1037.4999711296787 352.2549049862514 " transform="rotate(272, 400, 400)"></path><path d="M-218.75006437301624 427.9091672537888C-185.93756346269072 393.45604129794697 -171.8750630725512 320.6122892770244 -106.2500612519002 309.7841639766169C-40.625059431249156 298.9560386762095 -59.37505995143519 390.2919787101656 6.2499418692158315 390.7841662238205C71.87494368986683 391.27635373747535 53.12494316968082 299.65916369571653 118.74994499033187 311.4716640234337C184.37494681098298 323.2841643511509 165.62494629079697 418.4872919923953 231.24994811144802 431.2841673474223C296.87494993209896 444.0810427024492 278.1249494119129 360.76072789087266 343.74995123256394 355.3466652406689C409.3749530532149 349.93260259046525 390.62495253302893 419.61229202360647 456.24995435368 412.72166683243813C521.8749561743309 405.83104164126974 503.1249556541451 312.52635155269417 568.749957474796 331.7216645852346C634.3749592954472 350.916977617775 615.624958775261 482.9638562811849 681.2499605959121 478.53416865829104C746.874962416563 474.10448103539704 728.1249618963772 313.08885156829973 793.7499637170281 316.53416416388393C859.3749655376791 319.97947675946807 840.624965017493 479.5185436856008 906.249966838144 490.3466689860082C971.8749686587953 501.1747942864156 985.9374690489346 393.5263537998977 1018.7499699592602 353.6591651938522 " transform="rotate(264, 400, 400)"></path><path d="M-200.00006450306273 427.0634312136645C-168.18188180214105 393.6543393776967 -154.54551778746028 323.01797378165054 -90.90915238561689 312.5179734903464C-27.27278698377347 302.0179731990422 -45.454605670014445 390.58615747439353 18.181759731828947 391.0634302149074C81.81812513367237 391.5407029554212 63.636306447431366 302.69979139977625 127.27267184927484 314.15433717210806C190.90903725111832 325.60888294443987 172.72721856487738 417.9270673238284 236.36358396672074 430.33615857718786C299.9999493685641 442.7452498305473 281.81813068232316 361.949793043564 345.4544960841665 356.69979289791195C409.0908614860099 351.44979275225984 390.90904279976894 419.0179764450029 454.5454082016123 412.33615807780933C518.1817736034559 405.6543397106158 499.99995491721495 315.1770644732091 563.6363203190582 333.7907013532483C627.2726857209017 352.4043382332875 609.0908670346605 480.44979633113957 672.7272324365041 476.15434166651517C736.3635978383476 471.8588870018907 718.1817791521065 315.72251903379635 781.8181445539501 319.0634282173931C845.4545099557934 322.4043374009899 827.2726912695523 477.10888714754276 890.9090566713958 487.608887438847C954.5454220732393 498.1088877301511 968.1817860879198 393.7225211977701 999.9999687888417 355.0634292161502 " transform="rotate(256, 400, 400)"></path><path d="M-181.25006463310922 426.217706617632C-150.42620014159132 393.8526489015382 -137.21597250236937 325.4236697303685 -75.56824351933355 315.2517944481676C-13.920514536297759 305.07991916596666 -31.5341513885937 390.88034768271325 30.113577594442063 391.34270565008603C91.76130657747791 391.8050636174588 74.14766972518191 305.74043054792776 135.79539870821782 316.8370217648742C197.4431276912536 327.93361298182066 179.82949083895772 417.3668540993533 241.47721982199351 429.3881612510453C303.12494880502913 441.4094684027373 285.5113119527333 363.13886964034714 347.1590409357691 358.0529319992467C408.8067699188049 352.9669943581463 391.19313306650895 418.42367231049104 452.84086204954474 411.9506607672723C514.4885910325806 405.47764922405355 496.8749541802847 317.82778883781583 558.5226831633204 335.8597495653538C620.1704121463563 353.8917102928918 602.5567752940602 477.935747825186 664.2045042770961 473.7745261188311C725.8522332601319 469.6133044124761 708.2385964078361 318.3561979433847 769.8863253908719 321.5927037149941C831.5340543739078 324.8292094866035 813.9204175216114 474.6992420535766 875.5681465046473 484.8711173357775C937.2158754876832 495.04299261797837 950.4261031269052 393.91870003973435 981.2499676184232 356.46770468254005 " transform="rotate(248, 400, 400)"></path><path d="M-162.50006476315573 425.37197057750774C-132.67051848104165 394.0509469812879 -119.88642721727844 327.82935423499464 -60.227334653050235 317.98560396189697C-0.5682420888220747 308.1418536887993 -17.61369710717298 391.1745264469412 42.045395457055236 391.6219696411729C101.7044880212834 392.06941283540465 84.65903300293252 308.7810582519875 144.31812556716073 319.51969491354856C203.977218131389 330.25833157510965 186.93176311303813 416.80662943078636 246.5908556772663 428.44015248081087C306.2499482414944 440.07367553083543 289.2044932231436 364.32793479303854 348.8635857873717 359.4060596564897C408.5226783515998 354.48418451994087 391.47722333324896 417.82935673188746 451.1363158974772 411.56515201264347C510.7954084617054 405.30094729339953 493.74995344335457 320.4785017583308 553.4090460075827 337.92878633336755C613.068138571811 355.3790709084043 596.02268355346 475.4216878751406 655.6817761176882 471.39469912705516C715.3408686819163 467.3677103789698 698.2954136635655 320.9898654088813 757.9545062277938 324.1219677685033C817.613598792022 327.2540701281253 800.5681437736707 472.2895855155186 860.2272363378991 482.13333578861625C919.8863289021274 491.9770860617139 932.6704201658904 394.11486743760673 962.4999664480047 357.8719687048381 " transform="rotate(240, 400, 400)"></path><path d="M-143.75005726380772 424.5262326300348C-114.91482919109741 394.249243153689 -102.55687430279298 330.23503683227216 -44.88641815737239 320.71941156827774C12.784037988048198 311.20378630428337 -3.6932351963576764 391.4687033038205 53.97722094906288 391.90123172491116C111.64767709448347 392.33376014600185 95.17040391007754 311.82168404869856 152.84086005549824 322.20236615487426C210.51131620091883 332.58304826105 194.034043016513 416.24640285487084 251.70449916193354 427.49214180322787C309.3749553073542 438.7378807515849 292.89768212294825 365.51699803838125 350.5681382683688 360.75918540638406C408.2385944137893 356.0013727743868 391.7613212293835 417.23503924593524 449.43177737480414 411.17964135066603C507.1022335202247 405.1242434553969 490.62496033581897 323.1292127714971 548.2954164812395 339.9978211940326C605.96587262666 356.86642961656815 589.488599442254 472.90762601774657 647.1590555876747 469.0148702279307C704.8295117330954 465.1221144381148 688.3522385486895 323.6235309670293 746.0226946941101 326.6512299146639C803.6931508395306 329.67892886229845 787.2158776551247 469.879927070112 844.8863338005453 479.3955523341064C902.5567899459659 488.91117759810083 914.9147448342703 394.31103292813054 943.7499729069807 359.27623081978754 " transform="rotate(232, 400, 400)"></path><path d="M-125.0000573938542 423.680509941351C-97.15914753054771 394.4475545848792 -85.22732901770206 332.64073468833874 -29.545509291089076 323.4532344334476C26.13631043552391 314.26573417855644 10.227219085063041 391.76289541948887 65.90903881167606 392.1805090674385C121.59085853828901 392.59812271538806 105.68176718782814 314.8623251041987 161.36358691444116 324.88505265498907C217.04540664105417 334.90778020577943 201.13631529059336 415.6861915377444 256.8181350172063 426.54414638443393C312.4999547438192 437.4021012311235 296.5908633933584 366.706076542513 352.27268311997136 362.11232641506746C407.9545028465843 357.5185762876219 392.0454114961235 416.64073701877203 447.72723122273646 410.79414594747766C503.40905094934953 404.9475548761833 487.4999595988887 325.7799390434525 543.1817793255017 342.0668713134868C598.8635990521146 358.3538035835211 582.9545077016537 470.39357941914164 638.6363274282668 466.6350565875953C694.3181471548797 462.8765337560489 678.4090558044189 326.25721178396634 734.090875531032 329.1805073196135C789.7726952576451 332.1038028552607 773.8636039071839 467.47028388349446 829.545423633797 476.65778413838564C885.2272433604098 485.84528439327676 897.1590618732557 394.50721367744336 924.999971736562 360.68050819352595 " transform="rotate(224, 400, 400)"></path><path d="M-106.25002700632258 422.83477008652943C-79.40343535241989 394.6458488499316 -67.89775321503302 335.0464153782676 -14.204569907227636 326.18704013247975C39.48861340057772 317.3276648866919 24.14770388406191 392.0570703690195 77.84088719186727 392.4597692438281C131.53407049967268 392.8624681186366 116.19316098315687 317.9029489935612 169.88634429096226 327.5677219889662C223.5795275987677 337.2324949843711 208.23861808225183 415.12596305448017 261.9318013900572 425.59613379950224C315.62498469786254 436.0663045445243 300.2840751813468 367.89513788050715 353.97725848915206 363.46545025761316C407.67044179695733 359.0357626347192 392.32953228044164 416.0464176254712 446.022715588247 410.4086333781516C499.7158988960525 404.77084913083206 484.3749893795366 328.43064814927016 538.068172687342 344.13590426680327C591.7613559951474 359.8411603843363 576.4204464786316 467.87951565439903 630.1136297864368 464.25522578112214C683.8068130942422 460.63093590784524 668.4659035777264 328.89087543476563 722.159086885532 331.7097675584254C775.8522701933374 334.5286596820852 760.5113606768214 465.06062353073924 814.2045439846268 473.9199987765271C867.8977272924321 482.779374022315 879.403409429819 394.70337726061854 906.2500010837216 362.0847684011268 " transform="rotate(216, 400, 400)"></path><path d="M-87.50002713636908 421.98903404640515C-61.64775369187021 394.8441469296813 -50.56820792994209 337.4520998828938 1.1363389590556494 328.92084964620915C52.84088584805343 320.3895994095245 38.06815816548266 392.3512491332475 89.77270505448041 392.739033234915C141.47725194347817 393.12681733658246 126.70452426090736 320.9435766976209 178.40907114990523 330.2503951376405C230.11361803890298 339.5572135776601 215.34089035633224 414.5657383859133 267.04543724532994 424.6481250292679C318.7499841343277 434.73051167262247 303.97725645175694 369.0842030331985 355.68180334075464 364.8185779148562C407.38635022975245 360.55295279651386 392.61362254718165 415.4521020468676 444.31816943617946 410.0231246235228C496.02271632517727 404.59414720017804 481.24998864260647 331.08136106978515 532.9545355316043 346.20494103481695C584.6590824206021 361.3285209998488 569.8863547380312 465.3654557043536 621.5909016270289 461.87539878934626C673.2954485160268 458.3853418743389 658.522720833456 331.52454290026225 710.2272677224538 334.23903161193465C761.9318146114515 336.953520323607 747.1590869288807 462.6509669926812 798.8636338178784 471.18221722936585C850.5681807068763 479.71346746605053 861.6477264688042 394.899544658491 887.4999999133033 363.4890324234248 " transform="rotate(208, 400, 400)"></path><path d="M-68.74999674883746 421.1433113577213C-43.892041513742384 395.0424583608715 -33.23863212727305 339.85779773896036 16.477278342917117 331.654672511379C66.19318881310727 323.4515472837976 51.98864296448153 392.64544124891586 101.70455343467168 393.01831057744226C151.4204639048619 393.3911799059687 137.2159180562361 323.9842177531211 186.93182852642627 332.9330816377553C236.64773899661645 341.8819455223895 222.44319314799077 414.0055270687868 272.15910361818084 423.70012961047394C321.87501408837096 433.394732152161 307.6704682397452 370.27328153733026 357.3863787099354 366.1717189235396C407.1022891801256 362.0701563097489 392.8977433314998 414.8577998197044 442.6136538016899 409.6376292203344C492.32956427188014 404.41745862096445 478.12501842325446 333.7320873417405 527.8409288934446 348.27399115427113C577.5568393636347 362.81589496680175 563.3522935150089 462.85140910574864 613.068203985199 459.4955851490108C662.7841144553893 456.139761192273 648.5795686067636 334.1582237171993 698.2954790769538 336.76830901688425C748.0113895471438 339.37839431656926 733.806843698518 460.2413238060637 783.5227541687083 468.44444903364507C833.2386646388984 476.64757426122645 843.8920740253677 395.0957254078038 868.7500292604628 364.8933097971633 " transform="rotate(200, 400, 400)"></path><path d="M-49.99999687888396 420.29757341024833C-26.136359853192687 395.24075453327254 -15.90908684218212 342.2634803362379 31.81818720920043 334.38848011775974C79.54546126058298 326.51347989928166 65.90909724590225 392.93961810579515 113.6363712972848 393.29757266118054C161.36364534866738 393.6555272165659 147.72728133398664 327.02484354983216 195.4545553853692 335.615752879081C243.1818294367518 344.2066622083299 229.54546542207112 413.4453004928713 277.2727394734536 422.7521189328909C325.00001352483616 432.0589373729105 311.3636495101554 371.462344782673 359.090923561538 367.52484467343396C406.8181976129206 363.5873445641949 393.1818335982398 414.26348233375217 440.90910764962234 409.252118558357C488.636381701005 404.2407547829618 475.0000176863242 336.3827983549068 522.7272917377068 350.34302601493624C570.4545657890894 364.3032536749656 556.8182017744085 460.33734724835466 604.5454758257911 457.1157562498863C652.2727498771736 453.89416525141803 638.6363858624931 336.7918892753472 686.3636599138757 339.29757116304484C734.0909339652583 341.8032530507424 720.4545699505774 457.8316653606571 768.1818440019599 465.7066655791352C815.9091180533425 473.5816657976133 826.136391064353 395.29189089832755 850.0000280900442 366.2975719121127 " transform="rotate(192, 400, 400)"></path><path d="M-31.249997008930464 419.45184309216995C-8.38067819264299 395.4390583350681 1.4204584429087959 344.6691705629099 47.159096075483745 337.1222953535351C92.8977337080587 329.5754201441602 79.82955152732302 393.23380259206897 125.56818915989794 393.5768423743133C171.30682679247286 393.9198821565576 158.2386446117372 330.0654769759378 203.97728224431216 338.2984317498013C249.71591987688714 346.53138652366476 236.64773769615147 412.8850815463503 282.3863753287264 421.8041158847024C328.1250129613013 430.7231502230545 315.05683078056563 372.65141565741027 360.79546841314055 368.8779780527228C406.5341060457154 365.1045404480354 393.4659238649798 413.6691724771945 439.2045614975548 408.8666155257741C484.94319913012976 404.0640585743537 471.8750169493941 339.0335169974677 517.6136545819691 352.41206850499583C563.352292214544 365.790620012524 550.2841100338081 457.8232930203552 596.0227476663831 454.7359349801564C641.7613852989581 451.6485769399576 628.6932031182224 339.42556246288973 674.4318407507974 341.82684093859996C720.1704783833724 344.22811941431013 707.1022962026367 455.422014544645 752.8409338352116 462.96888975401987C798.5795714677866 470.51576496339476 808.3807081033383 395.4880640182459 831.2500269196257 367.7018416564566 " transform="rotate(184, 400, 400)"></path><path d="M-12.499997138976966 418.6061089593943C9.375003467906708 395.6373583221665 18.75000372799971 347.0748569748847 62.50000494176706 339.8561067746131C106.25000615553441 332.63735657434154 93.75000580874374 393.5279832636455 137.50000702251106 393.8561082727488C181.2500082362784 394.1842332818521 168.75000788948773 333.1061065873462 212.50000910325514 340.98110680582425C256.2500103170225 348.8561070243024 243.75000997023182 412.32485878513205 287.50001118399916 420.8561090218167C331.25001239776645 429.3873592585013 318.75001205097584 373.84048271745024 362.50001326474313 370.2311076173144C406.2500144785105 366.62173251717866 393.7500141317198 413.07485880593947 437.5000153454871 408.4811086784939C481.2500165592546 403.88735855104835 468.75001621246395 341.68423182533127 512.5000174262312 354.4811071803582C556.2500186399985 367.27798253538515 543.7500182932077 455.30923497765843 587.5000195069751 452.3561098957291C631.2500207207426 449.40298481379983 618.7500203739519 342.059231835735 662.5000215877193 344.35610689945776C706.2500228014866 346.65298196318054 693.7500224546959 453.01235991393565 737.5000236684632 460.23111011420724C781.2500248822306 467.4498603144789 790.6250251423237 395.68423332346697 812.5000257492072 369.1061075861033 " transform="rotate(176, 400, 400)"></path><path d="M6.250002730976533 417.7603786413159C27.130685128456406 395.8356621239621 36.07954901309064 349.48054720155676 77.84091380805037 342.5899220103884C119.60227860301012 335.6992968192201 107.67046009016445 393.8221677499194 149.4318248851242 394.1353779858816C191.19318968008395 394.4485882218438 179.2613711672383 336.1467400134518 221.0227359621981 343.66378567654453C262.78410075715783 351.1808313396373 250.85228224431222 411.764639838611 292.61364703927194 419.90810597362815C334.3750118342316 428.05157210864536 322.443193321386 375.0295535921875 364.2045581163457 371.58424099660334C405.9659229113055 368.13892840101914 394.0341043984598 412.4805489493818 435.79546919341954 408.095605645911C477.55683398837937 403.71066234244023 465.6250154755337 344.3349504678921 507.3863802704934 356.55014967041785C549.1477450654533 368.76534887294355 537.2159265526075 452.7951807496589 578.9772913475672 449.9762886259992C620.738656142527 447.1573965023394 608.8068376296814 344.6929050232775 650.5682024246412 346.8853766750129C692.3295672196009 349.07784832674827 680.3977487067551 450.6027090979236 722.159113501715 457.49333428909193C763.9204782966747 464.3839594802603 772.8693421813089 395.88040644338525 793.7500245787887 370.5103773304472 " transform="rotate(168, 400, 400)"></path><path d="M25.00000260093003 416.91464260119164C44.886366789006104 396.0339602037118 53.40909429818156 351.8862317061829 93.18182267433369 345.3237315241178C132.9545510504858 338.7612313420527 121.5909143715852 394.1163465141473 161.36364274773734 394.4146419769685C201.1363711238895 394.71293743978964 189.77273444498886 339.1873677175115 229.54546282114097 346.3464588252189C269.3181911972931 353.5055499329263 257.95455451839257 411.2044151700441 297.7272828945447 418.9600972033938C337.50001127069675 426.71577923674346 326.1363745917962 376.2186187448789 365.9091029679483 372.9373686538463C405.6818313441004 369.6561185628138 394.3181946651998 411.8862333707782 434.09092304135197 407.7100968912822C473.8636514175041 403.5339604117862 462.5000147386035 346.98566338840703 502.2727431147556 358.61918643843154C542.0454714909077 370.25270948845605 530.6818348120071 450.2811207996136 570.4545631881592 447.5964616342233C610.2272915643114 444.91180246883306 598.8636548854108 347.32657248877405 638.636383261563 349.41464072852204C678.4091116377151 351.50270896827004 667.0454749588145 448.1930525598656 706.8182033349666 454.7555527419307C746.5909317111189 461.3180529239958 755.1136592202942 396.0765738412577 775.0000234083702 371.91464135274526 " transform="rotate(160, 400, 400)"></path><path d="M43.75000247088353 416.0689141904619C62.64204844955579 396.23226591285606 70.73863958327249 354.2919238402036 108.522731540617 348.0575486672418C146.30682349796155 341.82317349427996 135.51136865300595 394.4105329077698 173.29546061035046 394.69391359744986C211.07955256769498 394.97729428712995 200.2840977227394 342.22800305096575 238.06818968008395 349.0291396032878C275.8522816374285 355.8302761556098 265.056826792473 410.64419813087176 302.84091874981743 418.01209606255395C340.62501070716195 425.37999399423614 329.8295558622064 377.40769152696475 367.61364781955086 374.29050394048386C405.3977397768954 371.1733163540029 394.60228493193983 411.2919254215691 432.38637688928435 407.3245957660479C470.1704688466289 403.3572661105267 459.37501400167343 349.63638393831656 497.1591059590178 360.6882308358398C534.9431979163624 371.7400777333631 524.1477430714067 447.76706847896276 561.9318350287513 445.216642271842C599.7159269860958 442.6662160647212 588.9204721411403 349.9602475836652 626.7045640984849 351.9439124114258C664.4886560558294 353.92757723918635 653.6932012108738 445.78340365120215 691.4772931682182 452.017778824164C729.2613851255628 458.25215399712584 737.3579762592794 396.2727488685246 756.2500222379517 373.31891300443783 " transform="rotate(152, 400, 400)"></path><path d="M62.50000234083703 415.2231781503376C80.39773011010548 396.43056399260576 88.0681848683634 356.6976083448298 123.86364040690032 350.7913581809712C159.65909594543723 344.8851080171126 149.4318229344267 394.70471167199776 185.2272784729636 394.97317758853677C221.02273401150052 395.2416435050758 210.79546100048998 345.26863075502547 246.5909165390269 351.71181275196216C282.38637207756386 358.1549947488988 272.1590990665534 410.0839734623048 307.9545546050902 417.0640872923195C343.7500101436271 424.04420112233424 333.5227371326166 378.5967566796561 369.3181926711535 375.6436315977268C405.1136482096903 372.69050651579755 394.88637519867984 410.6976098429655 430.6818307372168 406.93908701141913C466.4772862757538 403.1805641798727 456.2500132647432 352.2870968588315 492.0454688032801 362.7572676038535C527.8409243418171 373.2274383488756 517.6136513308064 445.25300852891735 553.4091068693433 442.83681528006616C589.2045624078803 440.42062203121486 578.9772893968698 352.5939150491618 614.7727449354068 354.47317646493497C650.5682004739436 356.3524378807082 640.340927462933 443.3737471131442 676.1363830014699 449.27999727700274C711.9318385400069 455.1862474408614 719.6022932982647 396.46891626639706 737.5000210675332 374.72317702673587 " transform="rotate(144, 400, 400)"></path><path d="M81.25000221079053 414.37744973960787C98.15341177065518 396.62886970175 105.39773015345433 359.1033004788505 139.20454927318363 353.52517532409513C173.01136839291294 347.94705016933983 163.35227721584744 394.9988980656202 197.15909633557675 395.25244920901815C230.96591545530606 395.50600035241615 221.30682427824053 348.3092660884798 255.11364339796987 354.394493530031C288.9204625176992 360.4797209715823 279.2613713406337 409.52375642313245 313.068190460363 416.1160861514797C346.87500958009224 422.70841587982693 337.21591840302676 379.785829461742 371.0227375227561 376.9967668843643C404.82955664248533 374.20770430698667 395.17046546541985 410.1033018937564 428.97728458514916 406.5535858861848C462.7841037048785 403.0038698786133 453.125012527813 354.93781740874095 486.93183164754225 364.8263120012618C520.7386507672716 374.7148065937826 511.07955959020603 442.73895620826653 544.8863787099353 440.45699591768476C578.6931978296648 438.17503562710306 569.0341066525992 355.22759014405295 602.8409257723285 357.0024481478387C636.6477448920579 358.7773061516245 626.9886537149922 440.9640982044807 660.7954728347216 446.54222335923606C694.602291954451 452.1203485139914 701.84661033725 396.665091293664 718.7500198971147 376.12744867842844 " transform="rotate(136, 400, 400)"></path><path d="M100.00000208074403 413.53171751418085C115.90909343120488 396.827171596197 122.72727543854525 361.5089887981739 154.54545813946694 356.2589886525218C186.36364084038865 351.00898850686974 177.27273149726818 395.2930806445454 209.09091419818986 395.5317170148023C240.90909689911157 395.77035338505925 231.81818755599107 351.34989760723676 263.6363702569128 357.07717049340266C295.45455295783455 362.80444337956857 286.3636436147141 408.96353556926283 318.18182631563576 415.1680811959426C350.00000901655744 421.3726268226223 340.90909967343697 380.97489842913063 372.72728237435865 378.3498983563046C404.54546507528033 375.7248982834785 395.45455573215986 409.5089901298501 427.27273843308154 406.16808094625327C459.09092113400334 402.8271717626565 450.00001179088287 357.5885341439532 481.8181944918045 366.8953525839728C513.6363771927263 376.2021710239924 504.54546784960564 440.22490007291844 536.3636505505274 438.0771727406062C568.1818332514492 435.929445408294 559.0909239083287 357.8612614242468 590.9091066092504 359.5317160160452C622.7272893101721 361.2021706078436 613.6363799670515 438.55444548112 645.4545626679733 443.8044456267721C677.272745368895 449.0544457724242 684.0909273762353 396.8612625062337 700.0000187266962 377.53171651542374 " transform="rotate(128, 400, 400)"></path><path d="M118.75000195069752 412.68598528875384C133.66477509175456 397.02547349064395 140.05682072363618 363.9146771174973 169.8863670057503 358.99280198094846C199.71591328786434 354.07092684439965 191.1931857786889 395.5872632234706 221.022732060803 395.81098482058644C250.8522783429171 396.0347064177023 242.32955083374165 354.39052912599374 272.15909711585573 359.75984745677425C301.9886433979699 365.1291657875548 293.4659158887945 408.4033147153932 323.29546217090854 414.22007624040543C353.1250084530226 420.0368377654177 344.6022809438472 382.16396739651924 374.43182722596123 379.70302982824484C404.2613735080753 377.24209225997043 395.73864599889987 408.9146783659437 425.568192281014 405.78257600632173C455.3977385631281 402.65047364669977 446.8750110539527 360.2392508791654 476.7045573360667 368.96439316668375C506.5341036181809 377.68953545420214 498.01137610900537 437.7108439375703 527.8409223911194 435.6973495635276C557.6704686732335 433.6838551894849 549.1477411640581 360.49493270444066 578.9772874461723 362.06098388425164C608.8068337282864 363.6270350640626 600.2841062191108 436.1447927577593 630.1136525012249 441.0666678943081C659.9431987833391 445.98854303085693 666.3352444152206 397.0574337188034 681.2500175562777 378.93598435241904 " transform="rotate(120, 400, 400)"></path><path d="M137.50000182065102 411.84025497067546C151.42045675230426 397.2237772924396 157.3863660087271 366.32036734416937 185.2272758720336 361.7266172167238C213.06818573534008 357.13286708927825 205.11364006010965 395.8814477097444 232.95454992341615 396.09025453371925C260.79545978672263 396.29906135769403 252.8409141114922 357.43116255209935 280.6818239747987 362.44252632749453C308.5227338381052 367.4538901028897 300.5681881628748 407.84309576887216 328.40909802618125 413.27207319221696C356.25000788948773 418.7010506155617 348.2954622142573 383.35303827125654 376.1363720775638 381.05616320753376C403.9772819408703 378.759288143811 396.0227362656399 408.320368509386 423.86364612894636 405.39707297373883C451.7045559922529 402.47377743809164 443.7500103170225 362.88996952172624 471.59092018032896 371.0334356567434C499.43183004363544 379.17690179176054 491.477284368405 435.1967897095708 519.3181942317115 433.31752829379764C547.1591040950179 431.4382668780245 539.2045584197876 363.12860589198317 567.0454682830941 364.59025365980676C594.8863781464006 366.05190142763036 586.9318324711701 433.7351419417472 614.7727423344766 438.3288920691928C642.613652197783 442.9226421966384 648.579561454206 397.2536068387217 662.5000163858591 380.340254096763 " transform="rotate(112, 400, 400)"></path><path d="M156.24998643181544 410.99451702320255C169.1761231540649 397.42207346484065 174.71589603502895 368.7260499414469 200.56816947952782 364.4604248231046C226.4204429240267 360.19479970476226 219.03407908274133 396.17562456662375 244.8863525272402 396.36951661745746C270.7386259717391 396.56340866829123 263.3522621304537 360.4717883488105 289.2045355749526 365.1251975688203C315.0568090194515 369.7786067888301 307.6704451781661 407.28286919295664 333.52271862266497 412.32406251463397C359.3749920671638 417.36525583631123 351.9886282258785 384.54210151659925 377.8409016703773 382.4092889574281C403.6931751148762 380.27647639825693 396.3068112735908 407.7260510234338 422.15908471808973 405.0115623117614C448.01135816258864 402.297073600089 440.62499432130323 365.54068053489254 466.47726776580214 373.1024705174085C492.32954121030104 380.6642604999244 484.9431773690156 432.6827278521768 510.79545081351444 430.93769939467313C536.6477242580133 429.19267093716945 529.2613604167279 365.76227145013115 555.1136338612268 367.1195158059673C580.9659073057258 368.4767601618035 573.5795434644403 431.3254834963406 599.4318169089393 435.5911086146829C625.2840903534382 439.8567337330253 630.8238632344021 397.4497723292455 643.7499999566517 381.7445162117124 " transform="rotate(104, 400, 400)"></path><path d="M174.99998630176896 410.14878670512417C186.9318048146146 397.62037726663624 192.0454413201199 371.13174016811894 215.90907834581117 367.19424005887987C239.77271537150244 363.2567399496408 232.95453336416205 396.4698090528976 256.8181703898533 396.64878633059027C280.68180741554465 396.82776360828296 273.86362540820426 363.5124217749161 297.72726243389553 367.8078764395405C321.5908994595868 372.10333110416497 314.7727174522465 406.72265024643565 338.63635447793774 411.37605946644544C362.499991503629 416.02946868645523 355.6818094962887 385.7311723913365 379.5454465219799 383.76242233671695C403.40908354767123 381.7936722820974 396.59090154033083 407.13174116687605 420.4545385660221 404.6260592791785C444.31817559171344 402.12037739148093 437.49999358437304 368.19139917745343 461.3636306100643 375.1715130074681C485.22726763575565 382.1516268374828 478.4090856284152 430.16867362417736 502.2727226541065 428.55787812494316C526.1363596797978 426.947082625709 519.3181776724575 368.3959446376736 543.1818146981489 369.6487855815224C567.0454517238401 370.9016265253712 560.2272697164997 428.91583268032855 584.0909067421909 432.8533327895676C607.9545437678821 436.7908328988067 613.0681802733875 397.6459454491638 624.999998786233 383.1487859560563 " transform="rotate(96, 400, 400)"></path><path d="M193.74998617172247 409.3030563870458C204.6874864751643 397.8186810684319 209.37498660521078 373.537430394791 231.24998721209448 369.92805529465517C253.12498781897813 366.3186801945194 246.8749876455828 396.7639935391714 268.74998825246644 396.928056043723C290.62498885935014 397.0921185482747 284.3749886859548 366.5530552010217 306.2499892928385 370.4905553102608C328.1249898997222 374.42805541949986 321.8749897263268 406.16243129991466 343.7499903332105 410.428056418257C365.62499094009416 414.6936815365993 359.37499076669883 386.9202432660738 381.2499913735825 385.1155557160059C403.1249919804662 383.31086816593796 396.87499180707084 406.53743131031837 418.7499924139545 404.2405562465956C440.62499302083825 401.9436811828728 434.3749928474429 370.84211782001427 456.24999345432656 377.24055549752774C478.1249940612102 383.6389931750412 471.8749938878148 427.65461939617785 493.7499944946985 426.1780568552132C515.6249951015823 424.7014943142485 509.3749949281869 371.0296178252161 531.2499955350706 372.1780553570775C553.1249961419542 373.3264928889389 546.8749959685589 426.50618186431643 568.7499965754425 430.11555696445225C590.6249971823263 433.7249320645881 595.3124973123728 397.8421185690821 606.2499976158146 384.55305570040025 " transform="rotate(88, 400, 400)"></path><path d="M212.49998604167595 408.45732225427014C222.443168135714 398.0169810555302 226.70453189030172 375.9431168067658 246.5908960783778 372.66186671573325C266.47726026645387 369.3806166247007 260.79544192700354 397.058174210748 280.6818061150796 397.20732194215856C300.5681703031557 397.3564696735691 294.88635196370535 369.59368481243007 314.7727161517814 373.17323036628375C334.6590803398575 376.7527759201375 328.9772620004072 405.60220853869635 348.8636261884833 409.48004955537124C368.7499903765593 413.3578905720461 363.06817203710904 388.10931032611376 382.95453622518505 386.46868528059747C402.8409004132611 384.8280602350812 397.15908207381085 405.9431176390634 417.0454462618869 403.8550493993154C436.931810449963 401.7669811595674 431.2499921105127 373.49283264787783 451.13635629858874 379.3095941728901C471.0227204866648 385.12635569790234 465.3409021472145 425.14056135348113 485.22726633529055 423.798231770786C505.1136305233666 422.4559021880908 499.43181218391635 373.66328719806137 519.3181763719924 374.70732131793534C539.2045405600685 375.75135543780937 533.5227222206181 424.0965272336071 553.4090864086943 427.3777773246397C573.2954505967704 430.6590274156722 577.5568143513581 398.03828787430314 587.499996445396 385.957321630047 " transform="rotate(80, 400, 400)"></path><path d="M231.24998591162944 407.61159193619176C240.1988497962637 398.21528485732586 244.03407717539264 378.3488070334378 261.9318049446611 375.39568195150855C279.82953271392955 372.4425568695792 274.7158962084243 397.3523586970218 292.6136239776927 397.4865916552913C310.51135174696117 397.62082461356084 305.3977152414559 372.6343182385357 323.2954430107244 375.855909237004C341.1931707799929 379.07750023547237 336.0795342744876 405.04198959217536 353.977262043756 408.5320465071827C371.8749898130245 412.02210342219007 366.76135330751924 389.298381200851 384.6590810767877 387.8218186598864C402.55680884605613 386.3452561189217 397.44317234055086 405.3488077825057 415.34090010981936 403.4695463667325C433.23862787908786 401.5902849509593 428.12499137358253 376.14355129043867 446.022719142851 381.3786366629497C463.9204469121195 386.61372203546074 458.80681040661415 422.6265071254816 476.7045381758826 421.41841050105603C494.6022659451511 420.2103138766304 489.4886294396458 376.2969603856038 507.3863572089143 377.23659109349046C525.2840849781828 378.17622180137704 520.1704484726774 421.68687641759504 538.0681762419458 424.6400014995243C555.9659040112144 427.59312658145365 559.8011313903432 398.2344609942215 568.7499952749776 387.3615913743909 " transform="rotate(72, 400, 400)"></path><path d="M249.99998578158295 406.7658578034161C257.95453145681336 398.4135848444242 261.36362246048355 380.7544934454126 277.2727138109444 378.1294933725866C293.18180516140524 375.50449329976055 288.63635048984503 397.6465393685984 304.5454418403059 397.76585755372685C320.4545331907667 397.8851757388553 315.90907851920645 375.67494784994403 331.8181698696674 378.538584293027C347.7272612201282 381.40222073610994 343.181806548568 404.4817668309571 359.09089789902885 407.584039644297C374.99998924948966 410.68631245763686 370.4545345779294 390.48744826089103 386.36362592839026 389.174948224478C402.27271727885113 387.86244818806495 397.72726260729087 404.7544941112507 413.6363539577517 403.08403951945235C429.5454453082126 401.4135849276539 424.99999063665234 378.7942661183023 440.90908198711315 383.4476753383121C456.8181733375741 388.1010845583219 452.27271866601376 420.1124490827849 468.1818100164746 419.0385854166288C484.09090136693555 417.9647217504727 479.5454466953753 378.9306297584491 495.45453804583616 379.76585705434826C511.363629396297 380.60108435024745 506.8181747247367 419.27722178688566 522.7272660751976 421.90222185971174C538.6363574256584 424.52722193253777 542.0454484293286 398.43063029944256 549.999994104559 388.7658573040376 " transform="rotate(64, 400, 400)"></path><path d="M268.74998565153646 405.9201255779891C275.7102131173631 398.61188673887114 278.6931677455745 383.1601817647361 292.61362267722774 380.86330670101324C306.534077608881 378.56643163729046 302.5568047712658 397.94072194752357 316.477259702919 398.04512535951096C330.39771463457225 398.1495287714984 326.42044179695705 378.71557936870107 340.3408967286103 381.22126125639863C354.26135166026353 383.7269431440962 350.2840788226483 403.9215459770875 364.20453375430156 406.6360346887598C378.1249886859548 409.3505234004322 374.1477158483396 391.67651722827964 388.06817077999284 390.5280796964182C401.9886257116461 389.37964216455686 398.0113528740309 404.1601823473444 411.9318078056841 402.6985345795208C425.85226273733736 401.2368868116972 421.8749898997222 381.4449828535145 435.79544483137545 385.5167159210231C449.7158997630287 389.58844898853164 445.7386269254134 417.59839294743676 459.65908185706667 416.6587622395502C473.5795367887199 415.7191315316636 469.60226395110476 381.56430103864295 483.522718882758 382.29512492255475C497.44317381441124 383.02594880646654 493.465900976796 416.86756906352497 507.3863559084492 419.16444412724775C521.3068108401025 421.4613191909706 524.2897654683139 398.6268015120122 531.2499929341404 390.1701251410329 " transform="rotate(56, 400, 400)"></path><path d="M287.50000078027904 405.0743933525621C293.4659100367018 398.81018863331815 296.02272828945445 385.5658700840595 307.9545468023001 383.59712002943996C319.8863653151458 381.62836997482043 316.4772743114755 398.23490452644876 328.4090928243212 398.32439316529513C340.34091133716686 398.41388180414145 336.93182033349666 381.75621088745805 348.86363884634227 383.9039382197703C360.79545735918794 386.05166555208245 357.3863663555178 403.36132512321785 369.3181848683634 405.6880297332227C381.250003381209 408.01473434322764 377.84091237753887 392.86558619566824 389.7727308903845 391.8812111683585C401.70454940323015 390.8968361410487 398.29545839955995 403.565870583438 410.2272769124056 402.3130296395892C422.1590954252513 401.06018869574046 418.750004421581 384.0956995887267 430.6818229344267 387.58575650373405C442.61364144727236 391.0758134187414 439.2045504436021 415.0843368120887 451.13636895644777 414.2789390624716C463.06818746929343 413.4735413128545 459.6590964656233 384.19797231883683 471.59091497846896 384.8243927907612C483.52273349131457 385.4508132626856 480.11364248764437 414.4579163401643 492.04546100049 416.4266663947838C503.9772795133356 418.39541644940334 506.5340977660883 398.8229727245819 512.500007022511 391.5743929780282 " transform="rotate(48, 400, 400)"></path><path d="M306.2500006502325 404.22866112713507C311.22159169725154 399.0084905277651 313.3522735745454 387.9715584033829 323.29545566858343 386.3309333578666C333.23863776262147 384.69030831235034 330.3977285928963 398.529087105374 340.3409106869343 398.60366097107925C350.2840927809724 398.67823483678455 347.4431836112472 384.79684240621503 357.38636570528524 386.5866151831419C367.3295477993233 388.3763879600687 364.48863862959814 402.8011042693482 374.4318207236362 404.7400247776856C384.37500281767416 406.678945286023 381.534093647949 394.05465516305685 391.47727574198706 393.23434264029873C401.4204578360251 392.4140301175406 398.57954866629996 402.9715588195317 408.522730760338 401.9275246996577C418.46591285437603 400.8834905797837 415.6250036846509 386.74641632393894 425.56818577868887 389.65479708644506C435.51136787272696 392.56317784895117 432.67045870300177 412.57028067674054 442.6136407970398 411.899115885393C452.55682289107784 411.2279510940454 449.7159137213527 386.83164359903066 459.65909581539074 387.35366065896767C469.6022779094288 387.8756777189047 466.7613687397036 412.0482636168036 476.7045508337417 413.6888886623198C486.6477329277797 415.3295137078361 488.77841480507357 399.01914393715157 493.75000585209256 392.9786608150235 " transform="rotate(40, 400, 400)"></path><path d="M325.000000520186 403.38292890170806C328.9772733578012 399.20679242221206 330.68181885963634 390.37724672270633 338.63636453486674 389.0647466862933C346.59091021009715 387.75224664988025 344.318182874317 398.8232696842992 352.2727285495475 398.8829287768634C360.2272742247779 398.94258786942765 357.95454688899775 387.837473924972 365.9090925642282 389.2692921465135C373.8636382394586 390.70111036805497 371.5909109036785 402.24088341547855 379.54545657890895 403.79201982214846C387.50000225413936 405.34315622881843 385.2272749183592 395.2437241304455 393.1818205935897 394.58747411223897C401.1363662688201 393.9312240940325 398.86363893303997 402.3772470556254 406.81818460827037 401.54201975972614C414.77273028350083 400.70679246382696 412.5000029477207 389.39713305915114 420.4545486229511 391.723837669156C428.40909429818157 394.05054227916094 426.13636696240144 410.05622454139245 434.09091263763185 409.51929270831437C442.0454583128623 408.98236087523634 439.7727309770822 389.46531487922454 447.72727665231264 389.88292852717416C455.68182232754305 390.3005421751237 453.4090949917629 409.63861089344283 461.3636406669933 410.9511109298559C469.3181863422237 412.2636109662689 471.02273184405885 399.2153151497213 475.00000468167406 394.3829286520188 " transform="rotate(32, 400, 400)"></path><path d="M343.74999657544225 402.53719667628104C346.73295120365367 399.4050943166591 348.01136033002996 392.78293504202975 353.9772695864528 391.79856001471995C359.9431788428756 390.8141849874102 358.2386333410405 399.1174522632244 364.20454259746333 399.16219658264754C370.17045185388616 399.20694090207076 368.4659063520511 390.878105443729 374.43181560847387 391.9519691098851C380.3977248648967 393.0258327760412 378.69317936306163 401.6806625616089 384.65908861948446 402.84401486661136C390.62499787590724 404.0073671716138 388.92045237407217 396.4327930978341 394.886361630495 395.94060558417925C400.85227088691784 395.4484180705244 399.1477253850827 401.782935291719 405.11363464150554 401.1565148197946C411.0795438979284 400.5300943478702 409.37499839609325 392.04784979436334 415.3409076525161 393.792878251867C421.3068169089389 395.5379067093707 419.6022714071038 407.5421684060443 425.5681806635266 407.1394695312358C431.53408991994945 406.73677065642727 429.8295444181144 392.0989861594184 435.7954536745372 392.4121963953806C441.76136293096 392.7254066313428 440.0568174291249 407.22895817008214 446.0227266855477 408.2133331973919C451.98863594197053 409.19770822470167 453.2670450683469 399.41148636229093 456.24999969655823 395.7871964890141 " transform="rotate(24, 400, 400)"></path><path d="M362.4999964453957 401.691464450854C364.48863286420334 399.60339621110603 365.3409056151209 395.18862336135317 369.3181784527361 394.5323733431467C373.2954512903513 393.8761233249401 372.15908762246124 399.4116348421496 376.1363604600765 399.4414643884317C380.11363329769165 399.4712939347138 378.97726962980164 393.91873696248604 382.95454246741684 394.63464607325676C386.93181530503205 395.3505551840275 385.795451637142 401.12044170773925 389.7727244747572 401.89600991107426C393.74999731237244 402.6715781144092 392.6136336444823 397.62186206522273 396.5909064820976 397.2937370561195C400.5681793197128 396.96561204701624 399.4318156518227 401.1886235278127 403.4090884894379 400.7710098798631C407.3863613270531 400.3533962319135 406.2499976591631 394.69856652957554 410.22727049677826 395.86191883457803C414.2045433343935 397.02527113958047 413.06817966650345 405.0281122706962 417.04545250411866 404.7596463541572C421.0227253417339 404.49118043761814 419.8863616738438 394.7326574396123 423.86363451145905 394.9414642635871C427.84090734907426 395.15027108756186 426.7045436811842 404.81930544672144 430.6818165187994 405.47555546492794C434.6590893564146 406.1318054831344 435.51136210733216 399.60765757486064 437.49999852613973 397.1914643260094 " transform="rotate(16, 400, 400)"></path><path d="M381.2500001300465 400.8457312717527C382.2443183394503 399.8016971518787 382.67045471490906 397.59431072700227 384.6590911337167 397.266185717899C386.6477275525243 396.9380607087958 386.07954571857925 399.7058164674005 388.0681821373869 399.72073124054157C390.05681855619446 399.7356460136826 389.48863672224945 396.9593675275687 391.477273141057 397.31732208295404C393.46590955986466 397.6752766383394 392.8977277259196 400.5602199001953 394.8863641447272 400.9480040018628C396.87500056353485 401.33578810353026 396.3068187295898 398.8109300789371 398.2954551483974 398.64686757438545C400.284091567205 398.48280506983383 399.71590973326 400.594310810232 401.70454615206756 400.3855039862572C403.6931825708752 400.17669716228244 403.1250007369302 397.3492823111135 405.11363715573776 397.9309584636147C407.1022735745454 398.5126346161159 406.5340917406004 402.5140551816738 408.52272815940796 402.3798222234043C410.5113645782156 402.24558926513475 409.94318274427053 397.3663277661318 411.93181916307816 397.4707311781192C413.9204555818858 397.57513459010664 413.3522737479407 402.4096517696864 415.34091016674836 402.7377767787897C417.32954658555593 403.0659017878929 417.7556829610147 399.803827833756 418.7500011704185 398.5957312093304 " transform="rotate(8, 400, 400)"></path></g></svg>