<svg xmlns="http://www.w3.org/2000/svg" version="1.1" xmlns:xlink="http://www.w3.org/1999/xlink" xmlns:svgjs="http://svgjs.dev/svgjs" viewBox="0 0 800 800" opacity="0.68"><defs><linearGradient x1="50%" y1="0%" x2="50%" y2="100%" id="wwwhirl-grad"><stop stop-color="hsl(27, 98%, 48%)" stop-opacity="1" offset="45%"></stop><stop stop-color="hsl(210, 86.4%, 56%)" stop-opacity="1" offset="100%"></stop></linearGradient></defs><g stroke-width="3" stroke="url(#wwwhirl-grad)" fill="none" stroke-linecap="round"><path d="M-1458.9999964542387 509.24532817055746C-1412.5249950359344 472.8205458089613 -1180.1499879444118 199.95419373174104 -1087.1999851078028 217.84706927778828C-994.2499822711939 235.73994482383551 -808.349976597976 668.3641142764774 -715.399973761367 652.3883325389352C-622.4499709247581 636.4125508013931 -436.54996525154 103.46047203698637 -343.59996241493104 90.04081537745095C-250.64995957832207 76.62115871791553 -64.74995390510412 536.0846414896282 28.20004893150508 545.0310792626518C121.15005176811405 553.9775170356754 307.0500574413318 169.9197240651618 400.00006027794075 161.61231756163986C492.9500631145497 153.30491105811794 678.8500687877677 457.4837953409208 771.8000716243764 478.5718272344765C864.7500744609856 499.6598591280321 1050.650080134204 301.5601655825092 1143.6000829708128 330.3165727100851C1236.5500858074215 359.072979837661 1422.45009148064 738.0185226521612 1515.400094317249 708.6230842550837C1608.3500971538574 679.2276458580061 1794.2501028270758 112.40690981000999 1887.200105663685 95.15306553346446C1980.1501085002933 77.8992212569189 2212.5251155918163 511.16242197906246 2259.000117010121 570.5923300427194 " transform="rotate(195, 400, 400)"></path><path d="M-1423.2499965224265 507.14447085344403C-1377.6687451313971 471.42016507572475 -1149.76248817625 203.80124284614342 -1058.5999853941912 221.35002463168973C-967.4374826121325 238.89880641723607 -785.1124770480149 663.2032803034809 -693.9499742659561 647.5347251378146C-602.7874714838973 631.8661699721482 -420.46246591977956 109.16316964551864 -329.2999631377206 96.0015833063589C-238.13746035566191 82.83999696719917 -55.81245479154427 533.4676435317635 35.35004799051467 542.2420344245368C126.51255077257338 551.0164253173098 308.8375563366908 174.34435913469068 400.0000591187495 166.19671044854417C491.1625619008082 158.04906176239768 673.4875674649261 456.3783521166851 764.6500702469848 477.0608449353647C855.8125730290435 497.74333775404426 1038.1375785931618 303.45325369978144 1129.30008137522 331.6566529979809C1220.4625841572788 359.8600522961803 1402.7875897213971 731.5181808257862 1493.9500925034558 702.6880393209602C1585.112595285514 673.857897816134 1767.437600849632 117.93756053829179 1858.6001036316911 101.01552095937214C1949.762606413749 84.09348138045247 2177.668863368897 509.024697473324 2223.250114759926 567.3117226896029 " transform="rotate(191.25, 400, 400)"></path><path d="M-1387.4999965906143 505.04360590693625C-1342.81249522686 470.0197767130938 -1119.3749884080883 207.64828433115127 -1029.9999856805796 224.8529723561967C-940.6249829530709 242.0576603812421 -761.8749774980538 658.0424387010901 -672.4999747705452 642.6811101072996C-583.1249720430366 627.319781513509 -404.3749665880191 114.86585962465637 -314.99996386051043 101.96234360587232C-225.624961133002 89.05882758708825 -46.874955677984644 530.8506379445043 42.50004704952403 539.4529819570271C131.8750497770327 548.0553259695498 310.6250552320498 178.76898657482505 400.00005795955826 170.78109570605397C489.37506068706693 162.79320483728287 668.125066142084 455.2729012630549 757.5000688695927 475.5498550068584C846.8750715971014 495.8268087506619 1025.6250770521192 305.3463341876592 1115.0000797796279 332.9967256564821C1204.375082507136 360.6471171253051 1383.1250879621539 725.0178313700169 1472.500090689662 696.7529867574423C1561.8750934171703 668.4881421448677 1740.6250988721886 123.46820363717907 1830.0001015996972 106.87796875588529C1919.375104327205 90.2877338745915 2142.8126111459774 506.88696533819115 2187.5001125097315 564.0311077070919 " transform="rotate(187.5, 400, 400)"></path><path d="M-1351.7499966588018 502.94271807224476C-1307.9562453223227 468.6193654622792 -1088.9874886399266 211.4953029279755 -1001.399985966968 228.35589719252002C-913.8124832940096 245.21649145706454 -738.6374779480927 652.8815742105155 -651.0499752751343 637.8274721886008C-563.4624726021758 622.773370166686 -388.2874672562589 120.56852671561052 -300.69996458330024 107.92308101720214C-213.11246191034184 95.27763531879376 -37.93745656442502 528.2336094690615 49.650046108533616 536.6639066013338C137.23754878149202 545.094203733606 312.41255412740884 183.1935911267758 400.00005680036725 175.36545807538016C487.58755947332565 167.5373250239845 662.7625648192425 454.16742752124105 750.3500674922011 474.0388421901685C837.9375701651593 493.91025685909597 1013.112575511077 307.23939178735327 1100.7000781840352 334.33677542679976C1188.2875808569934 361.43415906624625 1363.4625862029106 718.5174590260638 1451.0500888758688 690.8179113057407C1538.637591548827 663.1183635854176 1713.8125968947447 128.99882384788276 1801.400099567703 112.74039366421485C1888.987602240661 96.48196348054694 2107.956358923058 504.7492103148746 2151.750110259537 560.7504698363973 " transform="rotate(183.75, 400, 400)"></path><path d="M-1315.9999967269896 500.84188364331504C-1273.0999954177855 467.2190076172263 -1058.5999888717647 215.34237493056148 -972.7999862533565 231.85887543460507C-886.9999836349482 248.37537593864866 -715.3999783981317 647.7207631257028 -629.5999757797234 632.9738876756638C-543.799973161315 618.2270122256249 -372.1999679244984 126.27124721232637 -286.39996530609005 113.88387183429367C-200.5999626876819 101.49649645626097 -28.999957450865168 525.6166343993805 56.800045167542976 533.8748846514022C142.60004778595157 542.133134903424 314.20005302276763 187.6182490844883 400.000055641176 179.94987385046807C485.8000582595844 172.2814986164478 657.4000634964009 453.062007185189 743.200066114809 472.52788277924026C829.0000687332176 491.99375837329166 1000.6000739700348 309.132502792809 1086.4000765884425 335.67687860287907C1172.2000792068507 362.2212544129492 1343.8000844436679 712.0171400878725 1429.6000870620755 684.8828892598008C1515.4000896804837 657.7486384317292 1687.0000949173009 134.52949746434817 1772.800097535709 118.60287197830613C1858.6001001541167 102.67624649226408 2073.100106700138 502.6115086973197 2116.0001080093425 557.4698853714646 " transform="rotate(180, 400, 400)"></path><path d="M-1280.2499967951774 498.7410263262017C-1238.2437455132483 465.8186268839898 -1028.212489103603 219.18942404496383 -944.1999865397449 235.3618307885065C-860.1874839758867 251.5342375320492 -692.1624788481706 642.5599291527063 -608.1499762843125 628.1202802745432C-524.1374737204544 613.68063139638 -356.11246859273797 131.97394482085863 -272.09996602887986 119.84463976320161C-188.08746346502176 107.71533470554459 -20.062458337305543 522.9996364415158 63.95004422655256 531.0858398132871C147.96254679041067 539.1720431850583 315.98755191812666 192.0428841540172 400.00005448198476 184.53426673737238C484.01255704584287 177.02564932072755 652.0375621735591 451.95656396095325 736.0500647374174 471.01690048012847C820.0625673012755 490.0772369993038 988.0875724289917 311.02559091008123 1072.1000749928498 337.01695889077484C1156.112577556708 363.0083268714684 1324.1375826844246 705.5167982614975 1408.1500852482823 678.9478443256774C1492.1625878121404 652.3788903898572 1660.187592939857 140.06014819262998 1744.2000955037151 124.46532740421381C1828.2125980675728 108.87050661579765 2038.2438544772185 500.4737841915813 2080.2501057591476 554.189278018348 " transform="rotate(176.25, 400, 400)"></path><path d="M-1244.4999968633651 496.6401003445376C-1203.387495608711 464.4181774862025 -997.8249893354412 223.03640449481543 -915.5999868261333 238.8647174778572C-833.3749843168252 254.69303046089897 -668.9249792982096 637.3990265151591 -586.6999767889016 623.2666042088717C-504.47497427959365 609.1341819025845 -340.0249692609776 137.6765737648401 -257.7999667516697 125.80533902755877C-175.57496424236183 113.93410429027745 -11.124959223745918 520.3825698191002 71.10004328556215 528.2967263106211C153.32504579487 536.2108828021421 317.7750508134857 196.46745055899527 400.00005332279375 189.1185909597259C482.2250558321016 181.7697313604565 646.6750608507175 450.8510520721667 728.9000633600253 469.50584951646596C811.1250658693334 488.1606469607652 975.5750708879496 312.9186103628026 1057.8000733972576 338.3569705141198C1140.0250759065652 363.79533066543695 1304.4750809251818 699.0163877705718 1386.7000834344894 673.012730727003C1468.925085943797 647.0090736834344 1633.3750909624132 145.590730256361 1715.6000934717213 130.3277141655707C1797.8250959810284 115.06469807478044 2003.387602254299 498.33599102129205 2044.500103508953 550.9086020006807 " transform="rotate(172.5, 400, 400)"></path><path d="M-1208.7499969315527 494.53927354500235C-1168.531245704174 463.0178272705441 -967.4374895672795 226.8834841267959 -886.9999871125217 242.36770334933675C-806.5624846577639 257.85192257187765 -645.6874797482484 632.2382230597408 -565.2499772934907 618.4130273253293C-484.8124748387329 604.5878315909179 -323.9374699292172 143.3793018909505 -243.49996747445948 131.76613747404485C-163.06246501970168 120.15297305713919 -2.1874601101860662 517.7656023788136 78.25004234457151 525.5077119900841C158.68754479932932 533.2498216013546 319.5625497088447 200.8921161461023 400.0000521636025 193.70301436420831C480.4375546183603 186.51391258231436 641.3125595278759 449.7456393655091 721.7500619826335 467.9948977349323C802.1875644373913 486.24415610435545 963.0625693469074 314.81172899765295 1043.500071801665 339.6970813195936C1123.9375742564225 364.58243364153435 1284.8125791659386 692.5160764617749 1365.2500816206962 667.0777163104577C1445.6875840754533 641.6393561591406 1606.5625889849698 151.12141150222092 1687.0000914397274 136.19020010905652C1767.4375938944845 121.25898871589212 1968.5313500313796 496.1982970331317 2008.7501012587586 547.6280251651425 " transform="rotate(168.75, 400, 400)"></path><path d="M-1172.9999969997405 492.4383780809164C-1133.6749957996367 461.61740839033496 -937.0499897991177 230.7304950942256 -858.3999873989101 245.87062055626558C-779.7499849987025 261.01074601830555 -622.4499801982873 627.0773509397717 -543.7999777980798 613.559381777236C-465.14997539787214 600.0414126147003 -307.84997059745683 149.08196135251012 -229.1999681972493 137.72686725598015C-150.54996579704175 126.37177315945016 6.750039003373558 515.1485662739763 85.4000414035811 522.7186290049963C164.05004380378864 530.2886917360163 321.3500486042037 205.31671306865854 400.00005100441126 198.28736910413997C478.65005340461903 191.25802513962142 635.9500582050341 448.64015799430075 714.6000606052417 466.48387728884785C793.2500630054494 484.3275965833949 950.5500678058647 316.7047789679525 1029.2000702060723 341.03712346051674C1107.8500726062798 365.36946795308097 1265.1500774066953 686.0156964884272 1343.8000798069029 661.1426332293616C1422.45008220711 636.2695699702961 1579.750087007526 156.65202408353008 1658.400089407733 142.05261738799155C1737.0500918079406 127.45321069245301 1933.6750978084601 494.0605343804206 1973.0000990085637 544.3473796650533 " transform="rotate(165, 400, 400)"></path><path d="M-1137.2499970679282 490.3375207638031C-1098.8187458950995 460.2170276570986 -906.662490030956 234.57754420862798 -829.7999876852984 249.37357591016706C-752.9374853396411 264.1696076117061 -599.2124806483263 621.9165169667754 -522.3499783026689 608.7057743761155C-445.4874759570114 595.4950317854557 -291.7624712656965 154.78465896104237 -214.899968920039 143.68763518488808C-138.0374665743816 132.5906114087338 15.687538116933183 512.5315683161116 92.55004046259069 519.9295841668812C169.4125428082482 527.3276000176506 323.13754749956274 209.74134813818745 400.00004984522025 202.8717619910443C476.8625521908775 196.00217584390117 630.5875568821925 447.5347147700651 707.4500592278498 464.9728949897361C784.3125615735073 482.41107520940716 938.0375662648225 318.5978670852248 1014.90006861048 342.3772037484125C1091.762570956137 366.1565404116003 1245.4875756474526 679.5153546620525 1322.3500779931096 655.2075882952383C1399.2125803387667 630.8998219284241 1552.9375850300821 162.1826748118119 1629.8000873757392 147.91507281389923C1706.6625897213967 133.6474708159866 1898.8188455855407 491.9228098746823 1937.2500967583692 541.066772311937 " transform="rotate(161.25, 400, 400)"></path><path d="M-1101.499997136116 488.23662911441426C-1063.9624959905623 458.81661259158665 -876.2749902627942 238.42455899075495 -801.1999879716869 252.8764969317931C-726.1249856805796 267.3284348728312 -575.9749810983652 616.7556486615035 -500.899978807258 603.8521326427194C-425.8249765161506 590.9486166239353 -275.67497193393604 160.48732223729925 -200.5999696428288 149.64836878152062C-125.52496735172144 138.809415325742 24.625037230493035 509.91453602597153 99.70003952160027 517.1405049964906C174.7750418127075 524.3664739670096 324.92504639492176 214.1659488754409 400.000048686029 207.4561205456732C475.07505097713624 200.7462922159055 625.2250555593507 446.42923721355396 700.300057850458 463.4618783583489C775.3750601415652 480.49451950314386 925.5250647237799 320.49092087022154 1000.6000670148874 343.71724970403284C1075.6750693059944 366.94357853784413 1225.8250738882093 673.0149785034021 1300.9000761793163 649.2725090288393C1375.9750784704233 625.5300395542768 1526.1250830526383 167.71329120781832 1601.2000853437453 153.77749390753155C1676.2750876348528 139.84169660724476 1863.9625933626212 489.7850510366684 1901.5000945081747 537.7861306265452 " transform="rotate(157.5, 400, 400)"></path><path d="M-1065.7499972043036 486.1357946854846C-1029.106246086025 457.4162547465338 -845.8874904946324 242.27163099334092 -772.5999882580753 256.3794751738782C-699.3124860215182 270.4873193544154 -552.7374815484042 611.5948375766907 -479.4499793118471 598.9985481297825C-406.16247707528987 586.4022586828743 -259.5874726021757 166.1900427340151 -186.2999703656186 155.60915959861217C-113.01246812906152 145.02827646320924 33.56253634405266 507.29756095629045 106.85003858060963 514.351483046559C180.13754081716684 521.4054051368278 326.7125452902808 218.5906068331534 400.00004752683776 212.04053632076113C473.28754976339496 205.49046580836884 619.8625542365091 445.3238168775018 693.1500564730661 461.95091894742075C766.4375587096233 478.57802101733967 913.0125631827377 322.38403187567735 986.3000654192947 345.0573528801122C1059.5875676558517 367.73067388454706 1206.1625721289665 666.5146595652106 1279.450074365523 643.3374869828995C1352.73757660208 620.1603144005883 1499.3125810751944 173.24396482428372 1572.6000833117514 159.63997222162283C1645.8875855483084 146.0359796189619 1829.1063411397013 487.6473494191136 1865.7500922579802 534.5055461616123 " transform="rotate(153.75, 400, 400)"></path><path d="M-1029.9999972724913 484.03489159200404C-994.2499961814879 456.01582823693013 -815.4999907264706 246.1186343313761 -743.9999885444638 259.8823847514124C-672.4999863624568 273.64613517144875 -529.499981998443 606.433957827327 -457.99997981643617 594.1448949522946C-386.4999776344291 581.8558320772622 -243.49997327041524 171.89269456618018 -171.99997108840842 161.56988175115293C-100.49996890640148 151.2470689361257 42.500035457612285 504.6805172220586 114.00003763961922 511.5623924320767C185.50003982162616 518.4442676420949 328.5000441856398 223.01519612631512 400.00004636764675 216.62488343129826C471.5000485496537 210.23457073628137 614.5000529136673 444.21832787689897 686.0000550956743 460.4398908719418C757.5000572776812 476.6614538669846 900.5000616416953 324.2770742165824 972.0000638237025 346.3973873916408C1043.500066005709 368.5177005666992 1186.5000703697233 660.0142719624686 1258.0000725517298 637.4023962724089C1329.5000747337363 614.7905205823492 1472.500079097751 178.77456977619835 1544.0000812797575 165.50238187116332C1615.5000834617645 152.23019396612827 1794.2500889167818 485.50957913700796 1830.0000900077853 531.2248930321286 " transform="rotate(150, 400, 400)"></path><path d="M-994.2499973406791 481.9340419042852C-959.3937462769507 454.6154551330881 -785.1124909583089 249.96569107517297 -715.3999888308522 263.3853477347084C-645.6874867033953 276.80500439424384 -506.26248244848193 601.2731314837251 -436.54998032102526 589.2912951805686C-366.8374781935685 577.309458877412 -227.412473938655 177.59539980410696 -157.69997181119822 167.53065730945542C-87.98746968374144 157.46591481480385 51.43753457117191 502.0635268935884 121.15003669862881 508.7733552233561C190.86253882608548 515.4831835531238 330.28754308099883 227.43983882523852 400.0000452084555 221.2092839475971C469.7125473359122 214.97872906995565 609.1375515908258 443.11289228205777 678.8500537182824 458.9289162022245C748.5625558457391 474.74494012239126 887.9875601006529 326.1701699632491 957.7000622281096 347.73747530893104C1027.4125643555662 369.30478065461296 1166.83756861048 653.5139377654882 1236.5500707379365 631.46735896768C1306.262572865393 609.4207801698717 1445.6875771203072 184.3052281338747 1515.4000792477636 171.36484492646554C1585.11258137522 158.42446171905635 1759.3938366938619 483.37186226066405 1794.2500877575903 527.9442933084067 " transform="rotate(146.25, 400, 400)"></path><path d="M-958.4999974088668 479.83318458717196C-924.5374963724134 453.2150743998517 -754.7249911901471 253.81274018957535 -686.7999891172406 266.88830308860986C-618.8749870443339 279.9638659876444 -483.0249828985209 596.1122975107289 -415.09998082561435 584.4376877794481C-347.17497875270783 572.7630780481672 -211.32497460689467 183.29809741263924 -143.39997253398792 173.49142523836335C-75.4749704610814 163.68475306408746 60.37503368473176 499.4465289357237 128.30003575763817 505.984310385241C196.2250378305448 512.5220918347582 332.07504197635785 231.86447389476743 400.00004404926426 225.7936768345014C467.9250461221709 219.72287977423537 603.7750502679839 442.0074490578221 671.7000523408906 457.4179339031128C739.6250544137972 472.82841874840346 875.4750585596105 328.06325808052134 943.4000606325171 349.0775555968268C1011.3250627054233 370.0918531131323 1147.1750668512368 647.0135959391132 1215.1000689241432 625.5323140335565C1283.0250709970496 604.0510321279999 1418.8750751428634 189.8358788621565 1486.8000772157698 177.22730035237322C1554.7250792886757 164.61872184258993 1724.5375844709424 481.23413775492565 1758.5000855073959 524.6636859552902 " transform="rotate(142.5, 400, 400)"></path><path d="M-922.7499974770545 477.732304381875C-889.6812464678762 451.8146707784316 -724.3374914219853 257.65976641579414 -658.1999894036289 270.39123555432775C-592.0624873852726 283.12270469286136 -459.7874833485598 590.9514406495489 -393.64998133020345 579.5840574901438C-327.5124793118471 568.2166743307389 -195.23747527513433 189.0007721329879 -129.09997325677773 179.4521702790877C-62.96247123842136 169.9035684251875 69.31253279829139 496.8295080896754 135.45003481664776 503.1952426589422C201.58753683500413 509.56097722820897 333.8625408717169 236.2890860761127 400.00004289007325 230.37804683322213C466.1375449084296 224.46700759033152 598.4125489451424 440.9019829454028 664.5500509634987 455.9069287158174C730.6875529818551 470.911874486232 862.9625570185683 329.95632330960996 929.1000590369247 350.41761299653894C995.2375610552806 370.87890268346797 1127.5125650919936 640.5132312245546 1193.65006711035 619.5972462112495C1259.7875691287063 598.6812611979442 1392.0625731654195 195.3665067022547 1458.2000751837759 183.0897328900973C1524.3375772021318 170.8129590779399 1689.681332248023 479.0963903610036 1722.7500832572014 521.3830557139902 " transform="rotate(138.75, 400, 400)"></path><path d="M-886.9999975452422 475.6314318059726C-854.8249965633391 450.414274786406 -693.9499916538235 261.5068002714074 -629.5999896900173 273.8941756494401C-565.2499877262111 286.2815510274728 -436.54998379859876 585.7905914177634 -372.19998183479254 574.7304348302341C-307.8499798709863 563.670278242705 -179.14997594337387 194.7034544827311 -114.79997397956754 185.41292294920657C-50.44997201576132 176.12239141568205 78.25003191185124 494.2124948730216 142.60003387565735 500.406182562038C206.95003583946345 506.5998702510543 335.6500397670759 240.71370588685255 400.000041730882 234.96242446133738C464.3500436946881 229.21114303582218 593.0500476223006 439.796524462378 657.4000495861069 454.39593115791655C721.750051549913 468.99533785345506 850.4500554775259 331.8493961680931 914.800057441332 351.75767802564565C979.1500594051379 371.6659598831982 1107.8500633327508 634.0128741393905 1172.2000652965567 613.6621860183369C1236.550067260363 593.3114978972833 1365.2500711879757 200.89714217174745 1429.6000731517815 188.95217305721593C1493.9500751155874 177.00720394268438 1654.8250800251035 476.9586505964761 1687.0000810070064 518.1024331020847 " transform="rotate(135, 400, 400)"></path><path d="M-851.24999761343 473.5305210830976C-819.9687466588019 449.01384064740785 -663.5624918856618 265.35379598004806 -600.9999899764057 277.3970775975799C-538.4374880671496 289.44035921511164 -413.31248424863765 580.6297040390052 -350.74998233938163 569.8767740233518C-288.18748043012556 559.1238440076985 -163.06247661161342 200.40609868550166 -100.49997470235735 191.3736374723528C-37.93747279310128 182.34117625920396 87.18753102541075 491.5954435093953 149.7500329346667 497.6170843181611C212.31253484392278 503.638725126927 337.4375386624349 245.1382875506197 400.00004057169076 239.54676394247997C462.56254248094683 233.9552403343402 587.6875462994592 438.6910278323806 650.250048208715 452.88489545304304C712.8125501179711 467.07876307370555 837.9375539364835 333.7424308796036 900.5000558457396 353.0977049077797C963.0625577549952 372.4529789359558 1088.1875615735075 627.512478907254 1150.7500634827638 607.7270876784518C1213.3125653920192 587.9416964496495 1338.4375692105323 206.42773949426754 1401.0000711197877 194.8145750773619C1463.5625730290435 183.20141066045625 1619.968827802184 474.820872684976 1651.250078756812 514.8217723432065 " transform="rotate(131.25, 400, 400)"></path><path d="M-815.4999976816176 471.42964850719517C-785.1124967542647 447.6134446553823 -633.1749921175 269.20082983566135 -572.3999902627942 280.90001769269224C-511.62498840808826 292.59920554972314 -390.0749846986766 575.4688548072197 -329.2999828439707 565.0231513634421C-268.5249809892649 554.5774479196646 -146.97497727985308 206.10878103524485 -86.19997542514704 197.3343901424717C-25.42497357044124 188.55999924969854 96.12503013897049 488.97843029274145 156.9000319936763 494.8280242212569C217.67503384838233 500.6776181497724 339.2250375577937 249.56290736135955 400.00003941249975 244.13114157059522C460.77504126720555 238.69937577983086 582.3250449766174 437.5855693493558 643.1000468313232 451.37389789514225C703.875048686029 465.16222644092863 825.4250523954411 335.63550373808675 886.2000542501469 354.43776993688635C946.9750561048525 373.240036135686 1068.5250598142645 621.01212182209 1129.3000616689703 601.7920274855392C1190.075063523676 582.5719331489886 1311.6250672330884 211.9583749637603 1372.4000690877938 200.67701524448051C1433.1750709424996 189.39565552520074 1585.1125755792646 472.6831329204485 1615.5000765066175 511.54114973130106 " transform="rotate(127.5, 400, 400)"></path><path d="M-779.7499977498054 469.32879881947633C-750.2562468497275 446.21307155154034 -602.7874923493382 273.04788657945824 -543.7999905491826 284.40298067598826C-484.81248874902684 295.7580747725182 -366.83748514871553 570.3080284636179 -307.8499833485598 560.1695515917161C-248.86248154840416 550.0310747198143 -130.88747794809262 211.81148627317162 -71.89997614793697 203.29516570077416C-12.912474347781199 194.7788451283767 105.06252925253023 486.36143996427126 164.05003105268588 492.0389870125363C223.03753285284165 497.7165340608013 341.01253645315273 253.98755006028296 400.0000382533085 248.71554208689406C458.9875400534643 243.44353411350514 576.9625436537758 436.48013375451467 635.9500454539314 449.86292322542494C694.9375472540869 463.24571269633526 812.9125508543987 337.5285994847535 871.9000526545544 355.77785785417666C930.8875544547097 374.0271162235998 1048.8625580550215 614.5117876251095 1107.8500598551773 595.8569901808103C1166.8375616553326 577.202192736511 1284.8125652556441 217.48903332143664 1343.8000670558 206.53947829978273C1402.7875688559552 195.58992327812882 1550.256323356345 470.54541604410457 1579.7500742564225 508.26055000757907 " transform="rotate(123.75, 400, 400)"></path><path d="M-743.9999978179931 467.2278957259958C-715.3999969451903 444.81264504193666 -572.3999925811765 276.89488991749346 -515.1999908355709 287.9058902535225C-457.9999890899654 298.9168905895516 -343.5999855987544 565.1471487142542 -286.3999838531489 555.3158984142283C-229.1999821075434 545.4846481142024 -114.79997861633228 217.5141381053367 -57.59997687072678 209.25588785331493C-0.3999751251211592 200.99763760129312 114.00002836608985 483.7443962300394 171.20003011169547 489.249896398054C228.40003185730097 494.75539656606844 342.80003534851176 258.4121393534447 400.00003709411726 253.29988919743118C457.20003883972277 248.1876390414177 571.600042330934 435.37464475391175 628.8000440765395 448.351895149946C686.000045822145 461.3291455459802 800.4000493133562 339.42164182565847 857.6000510589618 357.1178923657052C914.800052804567 374.81414290575185 1029.2000562957785 608.0114000223673 1086.400058041384 589.9218994703197C1143.600059786989 571.8323989182719 1258.0000632782003 223.01963827335123 1315.200065023806 212.40188794932322C1372.4000667694113 201.78413762529522 1515.4000711334252 468.40764576199894 1544.000072006228 504.9798968780954 " transform="rotate(120, 400, 400)"></path><path d="M-708.2499978861808 465.12704603827706C-680.5437470406531 443.4122719380947 -542.0124928130148 280.74194666129034 -486.59999112195936 291.4088532368185C-431.187489430904 302.07575981234663 -320.36248604879336 559.9863223706524 -264.949984357738 550.4622986425022C-209.53748266668265 540.9382749143522 -98.71247928457194 223.21684334326352 -43.29997759351659 215.2166634116174C12.112524097538767 207.2164834799713 122.93752747964959 481.12740590156926 178.35002917070494 486.46085918933335C233.7625308617603 491.79431247709744 344.5875342438708 262.8367820523681 400.00003593492625 257.88428971373C455.4125376259815 252.93179737509195 566.2375410080922 434.26920915907056 621.6500426991477 446.84092048022876C677.0625443902029 459.41263180138696 787.8875477723138 341.3147375723252 843.3000494633691 358.4579802829955C898.7125511544243 375.6012229936657 1009.5375545365353 601.511065825387 1064.9500562275907 583.9868621655908C1120.3625579186457 566.4626585057945 1231.1875613007567 228.5502966310276 1286.6000629918121 218.26435100462544C1342.012564682867 207.9784053782233 1480.5438189105057 466.2699288856551 1508.2500697560336 501.6992971543736 " transform="rotate(116.25, 400, 400)"></path><path d="M-672.4999979543685 463.02620016525543C-645.6874971361159 442.01190264895 -511.624993044853 284.5890072197845 -457.9999914083478 294.91182003481174C-404.3749897718426 305.234632849839 -297.1249864988323 554.8254998417478 -243.4999848623271 545.6087026854734C-189.874983225822 536.3919055291991 -82.62497995281149 228.91955239588756 -28.999978316306283 221.17744278461714C24.625023320198807 213.4353331733467 131.87502659320933 478.51041938779633 185.50002822971442 483.67182579531C239.12502986621962 488.8332322028236 346.3750331392298 267.2614285659888 400.000034775735 262.46869404472613C453.6250364122402 257.67595952346346 560.8750396852506 433.1637773789266 614.5000413217558 445.32994962520877C668.1250429582608 457.4961218714909 775.3750462312717 343.2078371336892 829.0000478677764 359.798072014983C882.6250495042816 376.38830689627684 989.8750527772922 595.0107354431038 1043.5000544137974 578.0518286755591C1097.1250560503024 561.0929219080143 1204.375059323313 234.0809588034012 1258.0000609598183 224.12681787462492C1311.625062596323 214.17267694584865 1445.6875666875862 464.1322158240084 1472.500067505839 498.41870124534887 " transform="rotate(112.5, 400, 400)"></path><path d="M-636.7499980225563 460.92529325707767C-610.8312472315787 440.61147232464907 -481.2374932766912 288.43600674312245 -429.3999916947362 298.41472579764877C-377.5624901127812 308.3934448521751 -273.88748694887124 549.664616277687 -222.0499853669162 540.7550456932884C-170.21248378496125 531.8454751088899 -66.53748062105115 234.6222004133554 -14.699979039096092 227.13816112246064C37.13752254285885 219.65412183156587 140.81252570676895 475.8933718388672 192.650027288724 480.8827313661304C244.48752887067894 485.87209089339353 348.1625320345888 271.6860140444532 400.00003361654376 267.053037340566C451.8375351984989 262.4200606366787 555.5125383624088 432.0582845636265 607.350039944364 443.8189177350325C659.1875415263189 455.5795509064386 762.8625446902292 345.100875659897 814.700046272184 361.1381027118143C866.5375478541389 377.1753297637316 970.2125510180492 588.5103440256644 1022.0500526000042 572.1167341503711C1073.8875541819589 555.7231242750779 1177.5625573458692 239.61155994061855 1229.4000589278241 229.98922370946815C1281.2375605097789 220.36688747831775 1410.8313144646668 461.9944417272055 1436.7500652556441 495.13804430116795 " transform="rotate(108.75, 400, 400)"></path><path d="M-600.9999980907439 458.82441686647803C-575.9749973270415 439.21107251792625 -450.84999350852945 292.2830367840385 -400.7999919811246 301.9176620780639C-350.74999045371976 311.5522873720893 -250.64998739891013 544.5037632312042 -200.59998587150528 535.9014192186814C-150.5499843441005 527.2990752061588 -50.44998128929069 240.3248789484013 -0.399979761885902 233.09890997788224C49.650021765518886 225.87294100736318 149.7500248203287 473.2763548075162 199.80002634773348 478.09366745452894C249.85002787513838 482.9109801015416 349.95003092994784 276.1106300404958 400.0000324573525 271.637411153984C450.0500339847574 267.1641922674722 550.1500370395672 430.9528222659045 600.2000385669721 442.3079163624344C650.2500400943768 453.66301045896444 750.3500431491868 346.99394470368287 800.4000446765915 362.4781639262237C850.4500462039962 377.9623831487646 950.5500492588062 582.0099831258033 1000.6000507862109 566.1816701427614C1050.6500523136156 550.3533571597196 1150.7500553684254 245.14219159541403 1200.8000568958303 235.8516600618895C1250.8500584232347 226.56112852836497 1375.9750622417473 459.85669814798075 1401.0000630054496 491.8574178745652 " transform="rotate(105, 400, 400)"></path><path d="M-565.2499981589317 456.7235595493647C-541.1187474225044 437.81069178468977 -420.4624937403677 296.1300858984408 -372.19999226751304 305.42061743196535C-323.93749079465834 314.7111489654899 -227.41248784894907 539.3429292582077 -179.14998637609438 531.0478118175608C-130.88748490323974 522.752694376914 -34.36248195753035 246.02757655693358 13.900019515324288 239.0596779067902C62.162520988178926 232.09177925664682 158.68752393388843 470.6593568496515 206.95002540674307 475.3046226164137C255.2125268795977 479.949888383176 351.73752982530686 280.5352651100247 400.0000312981615 276.2218040408883C448.26253277101614 271.9083429717519 544.7875357167254 429.8473790416688 593.0500371895803 440.7969340633226C641.3125386624349 451.7464890849766 737.8375416081444 348.8870328209551 786.1000430809988 363.8182442141195C834.3625445538535 378.7494556072839 930.887547499563 575.5096412994283 979.1500489724178 560.246625208638C1027.412550445272 544.9836091178477 1123.9375533909817 250.67284232369585 1172.2000548638364 241.7141154877972C1220.4625563366908 232.75538865189856 1341.1188100188276 457.7189736422423 1365.250060755255 488.5768105214488 " transform="rotate(101.25, 400, 400)"></path><path d="M-529.4999982271194 454.62266408527876C-506.2624975179671 436.4102729044806 -390.0749939722059 299.9770968658705 -343.5999925539014 308.9235346388941C-297.12499113559693 317.86997241191773 -204.174988298988 534.1820571382386 -157.69998688068353 526.1941662694676C-111.22498546237904 518.2062754006965 -18.274982625770008 251.7302360184932 28.20001879253448 245.02040768872547C74.67502021083897 238.31057935895777 167.62502304744794 468.0423207448141 214.10002446575254 472.5155396313259C260.575025884057 476.9887585178377 353.5250287206659 284.9598620325809 400.0000301389704 280.80615878081994C446.47503155727486 276.65245552905895 539.4250343938838 428.7418976704604 585.9000358121882 439.28591361723824C632.3750372304928 449.8299295640161 725.325040067102 350.7800827912546 771.8000414854064 365.15828635504255C818.2750429037108 379.5364899188305 911.22504574032 569.0092613260806 957.7000471586246 554.3115421275418C1004.1750485769287 539.613822929003 1097.125051413538 256.203454905005 1143.6000528318425 247.5765327667322C1190.0750542501466 238.94961062845945 1306.2625577959082 455.5812109895312 1329.5000585050605 485.2961650213597 " transform="rotate(97.5, 400, 400)"></path><path d="M-493.7499982953071 452.5218067681654C-471.4062476134299 435.00989217124413 -359.6874942040441 303.8241459802729 -314.9999928402898 312.4264899927956C-270.31249147653546 321.02883400531834 -180.9374887490269 529.0212231652423 -136.24998738527262 521.340558868347C-91.56248602151828 513.6598945714518 -2.187483294009553 257.4329336270255 42.50001806974478 250.98117561763343C87.187519433499 244.5294176082414 176.56252216100768 465.42532278694944 221.250023524762 469.7264947932108C265.93752488851635 474.0276667994722 355.3125276160249 289.3844971021098 400.00002897977913 285.39055166772425C444.68753034353347 281.39660623333873 534.062533071042 427.6364544462247 578.7500344347964 437.7749313181265C623.4375357985507 447.91340819002824 712.8125385260596 352.67317090852686 757.5000398898139 366.4983666429383C802.187541253568 380.32356237734984 891.5625439810769 562.5089194997057 936.250045344831 548.3764971934183C980.9375467085852 534.2440748871311 1070.3125494360943 261.7341056332868 1115.0000507998486 253.4389881926399C1159.6875521636025 245.143870751993 1271.4063055729887 453.44348648379287 1293.7500562548657 482.0155576682432 " transform="rotate(93.75, 400, 400)"></path><path d="M-457.9999983634948 450.4209418216575C-436.54999770889276 433.6095038086131 -329.29999443588235 307.67118746528075 -286.3999931266782 315.9294377173025C-243.4999918174741 324.1876879693243 -157.69998919906584 523.8603815628514 -114.79998788986171 516.4869438378319C-71.89998658065753 509.11350611281244 13.900016037750788 263.13562360616316 56.800017346954974 256.94193591714685C99.70001865615905 250.74824822813048 185.50002127456742 462.80831719969024 228.4000225837715 466.9374423257011C271.3000238929758 471.066567451712 357.1000265113838 293.80912454224415 400.000027820588 289.97493692523403C442.9000291297922 286.1407493082239 528.7000317482004 426.5310035925945 571.6000330574045 436.26394138962013C614.5000343666088 445.99687918664586 700.3000369850174 354.5662513964045 743.2000382942213 367.8384393014395C786.1000396034253 381.1106272064746 871.9000422218339 556.0085700439363 914.8000435310378 542.4414446299004C957.7000448402418 528.8743192158646 1043.5000474586504 267.2647487321741 1086.4000487678545 259.30143598915305C1129.3000500770584 251.33812324613206 1236.550053350069 451.3057543486599 1258.0000540046713 478.7349426857323 " transform="rotate(90, 400, 400)"></path><path d="M-422.2499984316825 448.3200845045442C-401.69374780435555 432.2091230753766 -298.9124946677206 311.5182365796831 -257.79999341306666 319.432393071204C-216.68749215841262 327.3465495627249 -134.46248964910478 518.699547589855 -93.3499883944508 511.63333643671126C-52.237487139796826 504.56712528356763 29.98751536951113 268.83832121469544 71.10001662416516 262.9027038460548C112.21251787881909 256.9670864774141 194.43752038812704 460.1913192418255 235.55002164278108 464.14839748758595C276.662522897435 468.10547573334645 358.88752540674284 298.23375961177305 400.0000266613969 294.55932981213834C441.1125279160508 290.88490001250364 523.3375304253588 425.42556036835873 564.4500316800127 434.7529590905084C605.5625329346667 444.080357812658 687.7875354439748 356.4593395136767 728.9000366986288 369.1785195893353C770.0125379532826 381.89769966499387 852.2375404625909 549.5082282175613 893.3500417172447 536.506399695777C934.4625429718985 523.5045711739926 1016.6875454812066 272.7953994604559 1057.8000467358606 265.16389141506073C1098.9125479905142 257.5323833696656 1201.6938011271495 449.16802984292144 1222.2500517544765 475.45433533261576 " transform="rotate(86.25, 400, 400)"></path><path d="M-386.49999849987023 446.2191890404582C-366.83749789981835 430.8087041951675 -268.52499489955886 315.3652475471128 -229.19999369945504 322.93531027813276C-189.87499249935126 330.5053730091528 -111.22499009914367 513.5386754698859 -71.8999888990399 506.779690888618C-32.57498769893607 500.02070630735017 46.075014701271584 274.54098067625506 85.40001590137535 268.86343362799005C124.72501710147912 263.1858865797251 203.37501950168678 457.57428313698813 242.70002070179055 461.35931450249814C282.0250219018943 465.14434586800814 360.67502430210186 302.65835653432924 400.00002550220563 299.14368455207C439.3250267023095 295.6290125698107 517.975029102517 424.3200789971504 557.3000303026208 433.24193864442395C596.6250315027246 442.16379829169745 675.2750339029324 358.35238948397625 714.6000351030361 370.5185617302584C753.9250363031399 382.6847339765405 832.5750387033477 543.0078482442136 871.9000399034514 530.5713166146809C911.225041103555 518.134784985148 989.875043503763 278.32601204176507 1029.2000447038665 271.02630869399576C1068.5250459039703 263.7266053462265 1166.83754890423 447.03026719021034 1186.5000495042818 472.17368983252663 " transform="rotate(82.5, 400, 400)"></path><path d="M-350.74999856805795 444.11831646455573C-331.98124799528114 429.4083082031419 -238.1374951313971 319.2122814027261 -200.59999398584347 326.4382503732452C-163.0624928402898 333.6642193437642 -87.98749054918261 508.3778262381004 -50.44998940362899 501.92606822870835C-12.912488258075314 495.4743102193163 62.16251403303198 280.2436630259983 99.70001517858555 274.82418629810894C137.23751632413928 269.40470957021967 212.31251861524652 454.9572699203344 249.85001976080014 458.5702544055939C287.38752090635376 462.18323889085343 362.4625231974609 307.0829763450691 400.0000243430145 303.72806218018525C437.5375254885681 300.37314801530135 512.6125277796754 423.2146205141256 550.150028925229 431.7309410865231C587.6875300707826 440.2472616589206 662.76253236189 360.2454623424594 700.3000335074437 371.85862675936505C737.8375346529972 383.4717911762707 812.9125369441047 536.5074911590497 850.4500380896582 524.6362564217683C887.9875392352117 512.765021684487 963.0625415263191 283.8566475112578 1000.6000426718726 276.8887488611144C1038.1375438174264 269.920850210971 1131.9812966813106 444.89252742568283 1150.7500472540873 468.8930672206212 " transform="rotate(78.75, 400, 400)"></path><path d="M-314.99999863624566 442.01744388865336C-297.12499809074393 428.00791221111643 -207.7499953632353 323.05931525833944 -171.99999427223187 329.9411904683576C-136.24999318122838 336.82306567837577 -64.7499909992215 503.2169770063149 -28.999989908218083 497.0724455687987C6.7500111827854425 490.9279141312825 78.25001336479238 285.94634537574143 114.00001445579579 280.78493896822783C149.7500155467992 275.62353256071424 221.25001772880614 452.34025670368067 257.0000188198096 455.7811943086897C292.7500199108131 459.22213191369883 364.2500220928199 311.5075961558089 400.0000231838234 308.3124398083005C435.75002427482684 305.11728346079207 507.25002645683367 422.1091620311008 543.0000275478371 430.21994352862225C578.7500286388406 438.3307250261437 650.2500308208478 362.13853520094256 686.0000319118512 373.19869178847176C721.7500330028545 384.25884837600097 793.2500351848616 530.0071340738857 829.0000362758649 518.7011962288558C864.7500373668681 507.395258383826 936.2500395488755 289.38728298075057 972.0000406398788 282.751189028233C1007.7500417308822 276.1150950757155 1097.125044458391 442.7547876611553 1115.0000450038926 465.6124446087157 " transform="rotate(75, 400, 400)"></path><path d="M-279.2499987044334 439.9165674980537C-262.2687481862067 426.6075124043936 -177.36249559507354 326.90634529925546 -143.39999455862028 333.4441267487727C-109.43749352216696 339.98190819828994 -41.51249144926044 498.05612395983223 -7.549990412807176 492.2188190941918C26.412510623646085 486.3815142285514 94.33751269655266 291.6490239107874 128.30001373300604 286.74568782364946C162.26251476945936 281.8423517365115 230.18751684236588 449.7232396723296 264.1500178788191 452.99213039708826C298.1125189152724 456.26102112184685 366.0375209881789 315.9322121518515 400.00002202463213 312.8968136217185C433.96252306108545 309.86141509158546 501.88752513399197 421.0036997333788 535.8500261704453 428.70894215602414C569.8125272068986 436.4141845786695 637.7375292798052 364.03160424472844 671.7000303162586 374.5387530028812C705.6625313527115 385.0459017610339 773.5875334256184 523.5067731740244 807.5500344620716 512.766132221246C841.5125354985248 502.0254912684677 909.4375375714317 294.917914635546 943.4000386078849 288.61362538065436C977.3625396443379 282.30933612576274 1062.2687922354712 440.6170440819306 1079.250042753698 462.3318181821129 " transform="rotate(71.25, 400, 400)"></path><path d="M-243.4999987726211 437.8157139956377C-227.41249828166954 425.20713548585434 -146.97499582691177 330.7533982283551 -114.79999484500868 336.94708591737145C-82.62499386310554 343.14077360638777 -18.27499189929938 492.89529380153306 13.90000908260373 487.3652155077684C46.07501006450684 481.83513721400385 110.42501202831306 297.3517253340169 142.60001301021623 292.7064595672547C174.77501399211934 288.0611938004924 239.12501595592562 447.10624552916215 271.3000169378287 450.20308937367037C303.4750179197317 453.2999332181785 367.82501988353795 320.3568510360776 400.000020865441 317.48121032332006C432.17502184734406 314.60556961056244 496.5250238111503 419.89826032384036 528.7000247930534 427.1979636716096C560.8750257749565 434.4976670193789 625.225027738763 365.9246961766979 657.400028720666 375.8788371054742C689.5750297025689 385.83297803425046 753.9250316663754 517.0064351623466 786.1000326482783 506.8310911018198C818.2750336301815 496.655747041293 882.6250355939878 300.4485691785251 914.8000365758908 294.47608462125936C946.9750375577937 288.5036000639936 1027.4125400125517 438.4793233908894 1043.5000405035032 459.0512146436937 " transform="rotate(67.5, 400, 400)"></path><path d="M-207.74999884080881 435.714822346249C-192.55624837713236 423.8067204203425 -116.58749605874999 334.60041301048204 -86.19999513139709 340.4500069389975C-55.81249420404413 346.29960086751294 4.962507650661678 487.7344254962612 35.35000857801464 482.51157377437244C65.73750950536754 477.28872205248365 126.51251136007346 303.0543886102738 156.90001228742648 298.6671931638872C187.28751321477938 294.27999771750063 248.06251506948524 444.4892132390221 278.45001599683815 447.4140102032798C308.83751692419116 450.33880716753754 369.61251877889686 324.7814517733311 400.0000197062499 322.065568877949C430.3875206336028 319.3496859825668 491.1625224883087 418.7927827673293 521.5500234156616 425.6869470402225C551.9375243430145 432.5811113131157 612.7125261977205 367.81774996169474 643.1000271250734 377.2188830610945C673.4875280524262 386.6200161604944 734.2625299071323 510.50605900369635 764.6500308344853 500.89601183542095C795.037531761838 491.28596466714566 855.8125336165442 305.9791855745315 886.2000345438969 300.33850571489165C916.5875354712498 294.6978258552517 992.5562877896323 436.34156455287564 1007.7500382533087 455.7705729583019 " transform="rotate(63.75, 400, 400)"></path><path d="M-171.99999890899653 433.6139459556492C-157.69999847259515 422.4063206136197 -86.19999629058827 338.44744305139807 -57.599995417785465 343.95294321941265C-28.999994544982712 349.45844338742717 28.200007200622792 482.57357244977845 56.800008073425545 477.6579472997655C85.4000089462283 472.74232214975257 142.60001069183386 308.75706714531975 171.2000115646366 304.6279420193088C199.80001243743942 300.49881689329794 257.0000141830449 441.8721962076711 285.60001505584773 444.6249462916784C314.2000159286505 447.37769637568556 371.4000176742559 329.2060677693737 400.00001854705863 326.64994269136696C428.6000194198614 324.0938176133602 485.800021165467 417.68732046960724 514.4000220382698 424.1759456676244C543.0000229110725 430.6645708656415 600.2000246566781 369.71081900548063 628.8000255294809 378.55894427550396C657.4000264022835 387.4070695455273 714.6000281478892 504.005698103835 743.200029020692 494.9609478278112C771.8000298934945 485.9161975517873 829.0000316391001 311.509817229327 857.600032511903 306.200942067313C886.2000333847056 300.892066905299 957.7000355667126 434.20382097365086 972.000036003114 452.48994653169905 " transform="rotate(60, 400, 400)"></path><path d="M-136.24999897718425 431.5131000826277C-122.84374856805796 421.005951324475 -55.8124965224265 342.2945036098923 -28.999995704173898 347.45591001740587C-2.1874948859212964 352.6173164249195 51.43750675058385 477.4127499208739 78.25000756883645 472.8043513427367C105.062508387089 468.19595276459955 158.68751002359426 314.45977619794377 185.50001084184686 310.58872139230857C212.3125116600994 306.7176665866734 265.93751329660466 439.25520969389817 292.7500141148572 441.835912897655C319.5625149331098 444.4166161014118 373.1875165696149 333.6307142829944 400.0000173878675 331.23434702236307C426.8125182061201 328.83797976173173 480.4375198426253 416.5818886894633 507.2500206608779 422.6649748126044C534.0625214791304 428.74806093574546 587.6875231156358 371.60391856684464 614.5000239338882 379.89903600749153C641.3125247521408 388.1941534481384 694.9375263886461 497.5053677215519 721.7500272068987 489.02591433777957C748.5625280251512 480.54646095400716 802.1875296616565 317.0404794017006 829.0000304799091 312.0634089373125C855.8125312981615 307.08633847292435 922.8437833437931 432.0661079120042 936.2500337529195 449.20935062267444 " transform="rotate(56.25, 400, 400)"></path><path d="M-100.49999904537196 429.412208433239C-87.98749866352077 419.6055362589631 -25.424996754264725 346.14151839201924 -0.39999599056230295 350.95883103903196C24.62500477314012 355.77614368604463 74.67500630054494 472.2518816156021 99.70000706424736 467.9507096093407C124.72500782794975 463.6495376030794 174.77500935535465 320.16243947420065 199.80001011905705 316.54945498894114C224.82501088275944 312.93647050368156 274.87501241016435 436.6381774037581 299.90001317386674 439.04683372726447C324.9250139375692 441.4554900507708 374.9750154649739 338.0553150202479 400.00001622867626 335.818705576992C425.0250169923787 333.58209613373606 475.0750185197836 415.47641113295225 500.10001928348606 421.1539581812172C525.1250200471884 426.8315052294822 575.1750215745934 373.49697235184146 600.2000223382958 381.23908196311186C625.2250231019981 388.9811915743823 675.2750246294031 491.00499156290164 700.3000253931054 483.0908350713807C725.3250261568078 475.1766785798598 775.3750276842127 322.571095797707 800.4000284479151 317.9258300309448C825.4250292116174 313.2805642641825 887.9875311208737 429.9283490739904 900.5000315027248 445.92870893728264 " transform="rotate(52.5, 400, 400)"></path><path d="M-64.74999911355968 427.3113396720339C-53.13124875898356 418.20514408163484 4.962503013897049 349.9885560623298 28.200003723049292 354.4617749488416C51.437504432201536 358.9349938353534 97.912505850506 467.09103619851385 121.15000655965821 463.0970907641283C144.3875072688105 459.1031453297428 190.862508687115 325.86512563864113 214.10000939626724 322.5102114737573C237.33751010541948 319.1552973088734 283.81251152372397 434.0211680018016 307.05001223287627 436.2577774450575C330.2875129420285 438.4943868883134 376.76251436033294 342.47993864568497 400.00001506948524 340.4030870198045C423.23751577863743 338.32623539392404 469.7125171969419 414.3709564646247 492.9500179060941 419.6429644380137C516.1875186152464 424.9149724114026 562.662520033551 375.3900490250218 585.9000207427032 382.57915080691583C609.1375214518554 389.7682525888098 655.61252287016 484.50463829243483 678.8500235793123 477.1557786931654C702.0875242884644 469.80691909389606 748.562525706769 328.101735081897 771.8000264159213 323.78827401276067C795.0375271250733 319.4748129436243 853.1312788979541 427.79061312416013 864.7500292525302 442.6480901400744 " transform="rotate(48.75, 400, 400)"></path><path d="M-28.9999991817474 425.2104670961315C-18.274998854446366 416.8047480896093 35.35000278205882 353.8355899179431 56.80000343666089 357.964715043954C78.25000409126295 362.0938401699649 121.15000540046708 461.93018696672846 142.60000605506914 458.24346810421866C164.05000670967127 454.556749241709 206.9500080188754 331.56780798838435 228.4000086734775 328.47096414387613C249.85000932807952 325.374120299368 292.7500106372837 431.40415478514785 314.20001129188574 433.4687173481533C335.6500119464879 435.53327991115873 378.5500132556919 346.9045584564248 400.000013910294 344.98746464791975C421.45001456489604 343.0703708394147 464.3500158741002 413.2654979816 485.80001652870226 418.1319668801128C507.2500171833044 422.99843577862566 550.1500184925087 377.283121883505 571.6000191471106 383.9192158360225C593.0500198017127 390.55530978854 635.950021110917 478.0042812072709 657.4000217655189 471.22071850025293C678.8500224201209 464.43715579323504 721.7500237293252 333.6323705513898 743.2000243839273 329.6507141798793C764.6500250385292 325.66905780836873 818.2750266750345 425.6528733596327 829.0000270023356 439.36746752816885 " transform="rotate(45, 400, 400)"></path><path d="M6.750000750064885 423.1095945202291C16.581251050090827 415.40435209758374 65.73750255022057 357.68262377355643 85.40000315027248 361.4676551390664C105.06250375032437 365.2526865045764 144.38750495042817 456.76933773494295 164.05000555048005 453.389845444309C183.71250615053196 450.01035315367506 223.0375073506358 337.2704903381275 242.70000795068768 334.431716813995C262.36250855073956 331.59294328986255 301.6875097508434 428.78714156849406 321.3500103508953 430.67965725124907C341.01251095094716 432.5721729340041 380.33751215105093 351.32917826716465 400.0000127511028 349.571842276035C419.66251335115476 347.81450628490535 458.9875145512585 412.1600394985752 478.6500151513104 416.620969322212C498.3125157513623 421.08189914584875 537.6375169514662 379.1761947419881 557.3000175515181 385.2592808651292C576.96251815157 391.3423669882702 616.2875193516738 471.5039241221068 635.9500199517257 465.28565830734044C655.6125205517775 459.067392492574 694.9375217518815 339.1630060208825 714.6000223519333 335.5131543469979C734.2625229519851 331.86330267311325 783.418774452115 423.51513359510517 793.2500247521409 436.0868449162633 " transform="rotate(41.25, 400, 400)"></path><path d="M42.50000068187717 421.0087181296294C51.437500954628035 414.003952290861 96.12500231838234 361.52965381447245 114.00000286388405 364.97059141948154C131.8750034093858 368.4115290244906 167.62500450038925 451.6084846884602 185.50000504589096 448.5362189697021C203.37500559139272 445.463953250944 239.1250066823962 342.97316887317345 257.00000722789787 340.39246566941665C274.8750077733996 337.81176246565985 310.62500886440307 426.17012453714307 328.5000094099048 427.8905933396476C346.37500995540654 429.61106214215215 382.12501104640995 355.75379426320717 400.0000115919117 354.156216089453C417.8750121374134 352.55863791569874 453.62501322841683 411.05457720085315 471.50001377391857 415.10996794961386C489.3750143194203 419.1653586983746 525.1250154104239 381.069263785774 543.0000159559256 386.5993420795386C560.8750165014272 392.1294203733032 596.6250175924308 465.0035632222456 614.5000181379324 459.35059429973063C632.3750186834341 453.69762537721573 668.1250197744378 344.693637675678 686.0000203199394 341.37559069941926C703.8750208654411 338.0575437231605 748.5625222291955 421.3773900158804 757.5000225019463 432.8062184896606 " transform="rotate(37.5, 400, 400)"></path><path d="M78.25000061368945 418.90785699781884C86.29375085916523 412.60356774292717 126.51250208654412 365.37669911417754 142.60000257749567 368.4735429586857C158.68750306844723 371.5703868031939 190.8625040503503 446.44764690076653 206.95000454130187 443.6826077538842C223.03750503225342 440.91756860700195 255.21250601415653 348.67586266700846 271.3000065051081 346.35322978362734C287.38750699605964 344.0305969002462 319.5625079779628 423.5531227645811 335.65000846891434 425.10154468683515C351.73750895986586 426.64996660908923 383.912509941769 360.1784255180388 400.0000104327205 358.74060516166C416.087510923672 357.30278480528125 448.26251190557514 409.94913016192015 464.3500123965267 413.5989818358048C480.43751288747825 417.24883350968946 512.6125138693815 382.96234808834896 528.700014360333 387.9394185527371C544.7875148512844 392.91648901712523 576.9625158331877 458.5032175811733 593.0500163241392 453.4155455509099C609.1375168150907 448.3278735206465 641.3125177969939 350.22428458926254 657.4000182879454 347.2380423106297C673.4875187788969 344.25180003199677 713.7062700062759 419.23966169544474 721.7500202517516 429.52560732184685 " transform="rotate(33.75, 400, 400)"></path><path d="M114.00000054550173 416.8069767925219C121.15000076370242 411.20316412150714 156.90000185470586 369.2237253403963 171.20000229110727 371.9764754244036C185.50000272750864 374.7292255084108 214.1000036003114 441.2867900395865 228.40000403671277 438.82897746458C242.70000447311415 436.37116488957355 271.30000534591693 354.37853738735714 285.6000057823183 352.3139748243517C299.9000062187197 350.2494122613462 328.50000709152243 420.9361019185328 342.80000752792387 422.31247696053646C357.10000796432524 423.68885200254005 385.70000883712794 364.6030376993841 400.0000092735293 363.32497516038075C414.3000097099307 362.0469126213774 442.9000105827335 408.8436640495009 457.2000110191349 412.0879766485094C471.50001145553625 415.332289247518 500.10001232833906 384.8554133174376 514.4000127647405 389.2794759524493C528.7000132011417 393.7035385874609 557.3000140739446 452.0028528666148 571.600014510346 447.48047772860286C585.9000149467472 442.9581025905909 614.5000158195501 355.75491242936073 628.8000162559515 353.10047484835377C643.1000166923528 350.44603726734675 678.8500177833563 417.1019143015227 686.000018001557 426.2449770805468 " transform="rotate(30, 400, 400)"></path><path d="M149.74998521852496 414.7061042166195C156.00623540945054 409.8027681294816 187.28748636407857 373.0707591960096 199.7999867459298 375.47941551951595C212.312487127781 377.8880718430223 237.33748789148342 436.12594080780104 249.84998827333462 433.97535480467036C262.3624886551858 431.8247688015397 287.38748941888826 360.08121973710035 299.8999898007395 358.27472749447054C312.41249018259066 356.4682352518408 337.4374909462931 418.319088701879 349.9499913281443 419.52341686363224C362.46249170999556 420.7277450253854 387.4874924736979 369.02765751012396 399.99999285554907 367.909352788496C412.5124932374003 366.79104806686803 437.53749400110274 407.73820556647615 450.04999438295397 410.57697909060863C462.56249476480514 413.4157526147411 487.58749552850765 386.74848617592073 500.0999959103588 390.61954098155593C512.6124962922099 394.4905957871912 537.6374970559125 445.5024957814508 550.1499974377637 441.5454175356904C562.6624978196148 437.5883392899299 587.6874985833173 361.2855478988535 600.1999989651686 358.9629150154724C612.7124993470196 356.6402821320912 643.9937503016478 414.9641745369952 650.2500004925733 422.9643544686413 " transform="rotate(26.25, 400, 400)"></path><path d="M185.49998515033724 412.6052354554144C190.86248531398775 408.4023759521533 217.67498613224035 376.9177968663202 228.39998645954137 378.98235942932564C239.1249867868424 381.0469219923311 260.5749874414445 430.96509539071286 271.2999877687455 429.12173595945796C282.02498809604657 427.2783765282031 303.47498875064866 365.7839059015408 314.1999890779497 364.2354839792867C324.9249894052507 362.6870620570326 346.3749900598528 415.70207929992256 357.0999903871538 416.7343605814253C367.8249907144549 417.766641862928 389.2749913690569 373.45228113556107 399.99999169635794 372.4937342313085C410.72499202365896 371.53518732705595 432.17499267826105 406.63275089814863 442.89999300556207 409.06598534740505C453.62499333286314 411.49921979666146 475.0749939874653 388.64156284910115 485.79999431476625 391.9596098253599C496.52499464206727 395.27765680161866 517.9749952966695 439.0021425109841 528.6999956239704 435.6103611574751C539.4249959512714 432.2185798039661 560.8749966058735 366.8161871830435 571.5999969331746 364.8253589972883C582.3249972604756 362.834530811533 609.1374980787282 412.82643858716494 614.4999982423788 419.68373567143306 " transform="rotate(22.5, 400, 400)"></path><path d="M221.24998508214952 410.50436097216334C225.71873521852496 407.0019780527791 248.06248590040212 380.76482881458486 256.99998617315293 382.4852976170894C265.93748644590386 384.20576641959394 283.81248699140554 425.8042442515787 292.7499872641564 424.26811139219967C301.68748753690727 422.7319785328206 319.562488082409 371.48658634393536 328.49998835515987 370.19623474205696C337.43748862791074 368.90588314017856 355.3124891734125 413.08506417592014 364.24998944616334 413.9452985771724C373.1874897189142 414.8055329784247 391.06249026441594 377.8768990389522 399.9999905371668 377.0781099520751C408.9374908099177 376.27932086519803 426.81249135541935 405.5272905077752 435.7499916281702 407.55498588215556C444.6874919009211 409.5826812565359 462.5624924464229 390.5346338002356 471.49999271917375 393.2996729471179C480.43749299192456 396.06471209400024 498.31249353742635 432.5017835184714 507.24999381017716 429.6752990572139C516.187494082928 426.84881459595647 534.0624946284298 372.34682074518764 542.9999949011806 370.68779725705826C551.9374951739314 369.0287737689289 574.2812458558087 410.68869691528886 578.749995992184 416.4031111521789 " transform="rotate(18.75, 400, 400)"></path><path d="M256.9999850139618 408.40348648891234C260.57498512306216 405.60158015340494 278.44998566856384 384.6118607628495 285.59998588676456 385.98823580485316C292.7499861049653 387.3646108468568 307.04998654136665 420.64339311244464 314.1999867595673 419.4144868249414C321.349986977768 418.1855805374381 335.6499874141694 377.18926678632994 342.79998763237006 376.1569855048272C349.9499878505708 375.1247042233245 364.24998828697215 410.4680490519178 371.39998850517287 411.15623657291957C378.54998872337353 411.8444240939214 392.8499891597749 382.3015169423434 399.99998937797557 381.66248567284174C407.1499895961763 381.02345440334005 421.4499900325777 404.4218301174018 428.5999902507784 406.0439864169061C435.74999046897904 407.6661427164104 450.04999090538047 392.42770475137013 457.1999911235812 394.639736068876C464.3499913417818 396.8517673863818 478.6499917781832 426.0014245259588 485.79999199638394 423.7402369569528C492.94999221458454 421.4790493879468 507.249992650986 377.87745430733173 514.3999928691867 376.55023551682825C521.5499930873873 375.2230167263248 539.424993632889 408.5509552434127 542.9999937419894 413.1224866329248 " transform="rotate(15, 400, 400)"></path><path d="M292.75000020456315 406.3026177277072C295.4312502863884 404.20118797607665 308.8375006955147 388.4588984331601 314.20000085916524 389.4911797146628C319.56250102281575 390.52346099616557 330.28750135011677 415.4825476953564 335.6500015137673 414.560867979729C341.01250167741784 413.63918826410156 351.73750200471886 382.8919529507704 357.1000021683694 382.1177419896434C362.4625023320199 381.3435310285163 373.1875026593209 407.85103964996125 378.55000282297146 408.36718029071267C383.912502986622 408.883320931464 394.637503313923 386.72614056778053 400.0000034775735 386.24686711565425C405.362503641224 385.767593663528 416.0875039685251 403.3163754490743 421.45000413217554 404.5329926737025C426.8125042958261 405.74960989833073 437.5375046231272 394.32078142455055 442.9000047867777 395.9798049126799C448.26250495042814 397.6388284008093 458.98750527772927 419.50107125549204 464.3500054413797 417.8051805787376C469.71250560503023 416.10928990198306 480.4375059323313 383.4080935915218 485.8000060959818 382.41267949864414C491.1625062596323 381.4172654057665 504.5687566687586 406.4132192935825 507.2500067505839 409.8418678357165 " transform="rotate(11.25, 400, 400)"></path><path d="M328.50000013637543 404.20174324445617C330.2875001909256 402.80079007670247 339.22500046367645 392.3059303814248 342.8000005727768 392.9941179024266C346.37500068187717 393.6823054234284 353.5250009000779 410.3216965562223 357.1000010091782 409.7072434124707C360.67500111827854 409.09279026871906 367.8250013364792 388.59463339316494 371.40000144557956 388.0784927524136C374.9750015546799 387.5623521116622 382.12500177288064 405.2340245259589 385.70000188198094 405.5781182864598C389.2750019910813 405.9222120469607 396.42500220928196 391.1507584711717 400.0000023183823 390.83124283642087C403.5750024274827 390.51172720167006 410.7250026456834 402.2109150587009 414.3000027547837 403.02199320845307C417.87500286388405 403.8330713582052 425.02500308208477 396.21385237568506 428.6000031911851 397.319868034438C432.1750033002854 398.42588369319094 439.32500351848614 413.0007122629794 442.9000036275865 411.8701184784764C446.4750037366868 410.7395246939734 453.6250039548875 388.93872715366587 457.2000040639879 388.2751177584141C460.7750041730882 387.6115083631624 469.71250444583904 404.27547762170633 471.50000450038925 406.56124331646237 " transform="rotate(7.5, 400, 400)"></path><path d="M364.24999625349045 402.100874483251C365.1437462807655 401.4003978993742 369.61249641714096 396.15296805173534 371.3999964716911 396.4970618122362C373.1874965262413 396.84115557273714 376.7624966353417 405.1608511391341 378.5499966898918 404.8536245672583C380.337496744442 404.5463979953825 383.91249685354234 394.2973195576054 385.69999690809254 394.03924923722974C387.4874969626427 393.78117891685406 391.06249707174305 402.61701512400236 392.8499971262932 402.78906200425286C394.6374971808434 402.9611088845033 398.2124972899437 395.5753820966088 399.99999734449386 395.4156242792334C401.78749739904407 395.255866461858 405.36249750814443 401.1054603903734 407.1499975626946 401.5109994652495C408.93749761724473 401.91653854012554 412.51249772634515 398.1069290488655 414.2999977808953 398.659936878242C416.08749783544545 399.2129447076184 419.6624979445458 406.50035899251264 421.449997999096 405.9350621002611C423.23749805364616 405.36976520800965 426.81249816274646 394.4693664378559 428.5999982172967 394.13756174023C430.3874982718468 393.8057570426041 434.85624840822226 402.13774167187614 435.74999843549733 403.28062451925416 " transform="rotate(3.75, 400, 400)"></path></g></svg>