<?xml version="1.0" encoding="UTF-8"?> <!-- Generator: Adobe Illustrator 22.1.0, SVG Export Plug-In . SVG Version: 6.00 Build 0) --> <svg xmlns:cc="http://creativecommons.org/ns#" xmlns:dc="http://purl.org/dc/elements/1.1/" xmlns:rdf="http://www.w3.org/1999/02/22-rdf-syntax-ns#" xmlns:svg="http://www.w3.org/2000/svg" xmlns="http://www.w3.org/2000/svg" xmlns:xlink="http://www.w3.org/1999/xlink" version="1.1" id="svg2" x="0px" y="0px" viewBox="0 0 2354 730" style="enable-background:new 0 0 2354 730;" height="73" width="235" xml:space="preserve"> <style type="text/css"> .st0{fill:#91C848;fill-opacity:0.9412;} .st1{fill:none;stroke:#000000;stroke-width:14;} </style> <g id="g1600" transform="matrix(0.95075123,0,0,0.95075123,-4.223294,661.175)"> <path id="path1033" d="M458,48.2c-8.8-6.9-10.7-17.3-8.3-45c1.8-20.8,1.2-34.6-1.7-38.1c-1-1.2-0.7-3.7,1.2-8.6 c4-10.4,6.7-28.1,7.6-49.4l0.8-19.1l-5.4,2.8c-16.3,8.3-30.9,5.3-31.5-6.7c-0.3-5.8,4.5-9,23.2-15.2l14.6-4.9l0-7.6 c0-9.6,2.3-14.3,6.7-13.9c3.2,0.3,9.6,6.2,10.9,9.8c0.4,1.3,4.6-0.1,15.8-5.4c33.9-15.9,84.3-34.3,97.9-35.7 c5.9-0.6,7.2-0.3,11.1,3c3.2,2.7,4.2,4.6,4,7c-0.6,4.9-5.6,7.9-18.4,11c-34.2,8.2-46.9,13.1-80.3,30.9 c-23.9,12.7-25,13.5-26.3,18.2c-1.8,6.9-6.9,50.9-6,52c0.2,0.3,8.1-3.1,17.5-7.5c24.2-11.4,47.2-19,57.3-19 c14.5,0,19.9,4,15.8,11.9c-2.7,5.2-10.5,8.9-30,14.1c-25.7,6.9-51.2,20.8-60.7,33.2c-4.5,5.9-5.9,15.9-6,43.5 c-0.1,22.7-2.5,41.3-5.3,41.3C462.1,51,460,49.8,458,48.2L458,48.2z M394.6,46c-2.8-2.8-5.8-7.4-6.6-10.3 c-2.8-9.1-3.1-34.7-0.8-64.1c2.8-36.3,5.8-84.7,6.9-113.6l0.9-23l4.5-4c7.6-6.6,12.4-4.5,15,6.7c1.5,6.8,0.8,17-5.4,76.6 c-4.8,46.1-6.5,99.1-3.9,117.7C407.8,50.8,404.2,55.6,394.6,46L394.6,46z M769.4-39c17.3-3.7,29.4-7.8,31.9-10.8 c3.7-4.5-1.2-34.1-10.8-63.8l-4.2-13.2l-5.7,14.6c-3.1,8-9.3,23.6-13.8,34.6c-8.4,20.7-15.4,42-13.9,42 C753.5-35.7,760.9-37.2,769.4-39z M831.1,68.5c-5.7-3.5-8.6-10.4-10.7-25.4c-1-7-4.7-25.8-8.2-41.8l-6.4-29.1l-4.6,0.9 c-9.9,1.8-37.1,10.2-44.9,13.9c-18.1,8.4-26.7,21.6-28.2,43.2l-0.9,12.2l-4.2,0.4c-2.9,0.3-5.3-0.6-7.8-2.7 c-3.2-2.7-3.6-4.1-3.5-10.5c0-4.1,1.6-12.1,3.5-17.9c4.1-12.7,4.1-14.7,0.7-19.9c-3-4.6-3.5-11.6-0.9-13.8c1-0.8,4.1-2.2,6.9-3.2 c6.4-2.1,6.6-2.7,27.2-62.2c18.8-54.3,30.6-84,35.8-89.8c2.6-2.9,8.8-3,11.5-0.3c2.8,2.8,4.5,9.6,6.9,28.2 c3.8,29.3,15.4,87.7,17.9,90.3c0.7,0.7,6.4-0.8,14-3.7c7-2.7,15.4-5.3,18.6-5.7c5-0.7,6.3-0.3,9.3,2.6c7,7,4,9.8-19.2,18.2 c-6.2,2.3-13.3,5.3-15.7,6.8l-4.4,2.7l0.8,9c1.6,17.2,6.2,43.8,10.7,61.3c5.3,20.7,6.5,28.9,4.9,34.4 C838.8,71.2,836.5,71.8,831.1,68.5L831.1,68.5z M616.9,70.3c-4-2.2-7.7-8.2-7.7-12.5c0-1.5,2.5-5.5,5.5-8.8 c4.3-4.7,10-8.2,26.3-16.1c23.4-11.4,32.7-17.4,41.8-26.7c7.7-7.9,10.6-14.5,10.6-24.1c0-5.8-0.7-8.2-3.5-11.8 c-7.2-9.5-26.1-17.6-63.3-27.2c-30.5-7.9-38.2-10.8-46.5-17.3c-11.6-9.1-15.8-23.6-11.7-39.8c2.6-10.1,7.1-16.9,18.3-27.6 c21.3-20.3,50.9-34.4,72.5-34.5c17.8-0.1,28.7,6.1,30.8,17.5c2.2,12-4.5,15.8-14,7.9c-3.1-2.6-7.6-5.1-10-5.5 c-9.3-1.7-26.1,4.7-48,18.4c-24.9,15.6-32.8,24.2-32.8,35.8c0,13,8.6,18.2,47.3,28.5c44.7,11.9,55.2,16.5,66.6,28.8 c14.3,15.4,16.2,36,5.1,53.7c-5.6,8.9-17.8,19.7-36.8,32.7c-10.6,7.3-20.1,14.8-23.5,18.9C634.3,71.9,625.7,75,616.9,70.3 L616.9,70.3z"></path> <path id="path4536" class="st0" d="M200.6-341.7c-20.8-3.9-37.7-14.9-43.7-28.4c-3.8-8.5-4.6-23-1.8-32.3 c3.1-10.5,9.8-18.6,25.5-30.9c10.9-8.6,13.5-11.3,12.4-12.7c-0.8-1-5.4-4.1-10.3-6.9c-12.7-7.4-15.2-10.5-15.8-19.7 c-0.4-5.7,0.2-9.5,2.3-14.8c6.4-16.1,22-35.7,37-46.4c4.7-3.3,20.6-12.3,35.5-20c29.1-15.1,41.4-22.7,42.1-26.2 c0.2-1.2-1.1-4.2-3-6.7c-8.4-11-7.4-18.4,3.9-28.7c13.4-12.3,43.7-25.1,86-36.4c13.6-3.6,37.6-10.4,53.3-15.1 c44.8-13.3,56.5-16.4,74.5-19.9c37.5-7.3,71.4-7.7,112.1-1.5c12.1,1.8,34.3,5.2,49.3,7.4c44.7,6.6,54.5,10.7,57.5,24 c1.6,6.9-0.3,14.4-5,20c-3.1,3.7-8.2,6.4-33.1,17.9l-6.6,3l16.6,0.9c40.4,2.2,57,11.4,58.3,32.1c1,15.2-6.8,30.7-23.6,47.6 c-7.3,7.3-11.6,10.2-24.2,16.3c-8.4,4.1-22.5,9.9-31.3,13c-17.2,6.1-32.8,13-37.8,17l-3.1,2.5l7.7,15.1c6.5,12.7,7.8,16.4,8.3,23.6 c0.3,5-0.1,10.1-1.1,12.5c-5.6,13.5-36,27.9-90.7,43.1c-32.1,8.9-79.3,20.3-100.3,24.1c-21.2,3.9-52.9,6.7-54.8,4.8 c-0.8-0.8,0.3-2.7,2.7-5.2c5.5-5.5,29.4-12.6,89.1-26.3c32.4-7.4,48.7-12.1,71-20.1c32.3-11.7,48.3-21.5,48.3-29.7 c0-4.1-4.2-8.5-15.5-16.6c-8.5-6.1-16.2-14.4-17.3-18.9c-1.4-5.6,2.5-9.4,15.8-15.8c67.6-32.4,78.4-38.1,99-52.1 c11.2-7.6,35.4-29.1,35.4-31.5c0-1.9-13.4-4.1-36.7-6c-12.5-1-26-2.6-30-3.4c-13.8-2.9-25.3-10.9-25.3-17.4c0-1.4,2.5-5.2,5.6-8.5 c4.3-4.7,10-8.2,25.8-15.9c14.3-7,21.5-11.3,24.4-14.7c2.3-2.6,4.2-5.2,4.2-5.8c0-1.1-17-6.8-30.2-10.2 c-31.4-8-61.4-11.6-96.5-11.6c-39.7,0-57.8,3.3-115.7,21.5c-82.3,25.8-92.6,29.4-115.6,40.9c-20.7,10.3-22.9,12.1-23.8,18.7 c-1.1,8.1-5.2,15.4-11.8,21.1c-3.1,2.7-20.4,12.7-38.4,22.3c-35.8,19-45.2,25.1-55.5,36c-9.4,9.9-11.7,14.8-11.8,24.4 c-0.1,10.7,2.7,14.4,17,22.3c6.2,3.5,13.3,8.5,15.7,11.3l4.4,5l-4.5,3.7c-2.5,2-12.2,8.3-21.7,13.9c-26.1,15.3-35.5,25.7-35.5,39 c0,6.8,2.2,11.4,8.2,17c16.1,15.1,38.5,18.5,80.8,12.3c23-3.4,46.6-3.9,54.2-1.2l5.3,1.8l-8.6,4.4 C280.5-344.1,230.2-336.1,200.6-341.7L200.6-341.7z M370.7-298.2c-5-5.4-6.9-12.1-7.7-27.7c-0.9-16.1,1.5-28.3,8.1-42.5l4.4-9.3 l4.3,4.6c2.4,2.5,5.7,7.3,7.4,10.7c2.7,5.3,2.8,6.4,1.3,8.7c-3.9,5.9-8.1,34.2-8.5,58.3C379.9-292.9,374-294.7,370.7-298.2z M314.1-226.7c1.5-3.1,6.5-11.7,11-19c9.3-15.1,9.3-15.1-5-12.7c-12,2-13.3,2.9-11,7.2c1,1.8,1.4,4.2,1,5.4 c-1,2.5-8.1,7.5-23.1,16.1l-11.6,6.7l9.2,0.8c5.1,0.4,13.1,0.9,17.9,1l8.7,0.2L314.1-226.7z M194.9-214.9 c11.2-2.4,23.3-8.7,39.6-20.7c6.9-5.1,12.3-9.3,11.9-9.3c-3.5,0-42.6,12.2-56.2,17.5c-21.2,8.3-25.2,11.8-15.7,13.5 C181-212.8,186-213.1,194.9-214.9z M116.5-113c3.7-14.1,14-36.9,22.7-49.9c4.2-6.4,12.8-16.6,19-22.8c13-12.9,13-12.9-5.9-12.9 c-20.4,0-35.9,5.8-56.9,21.6c-15.2,11.4-33.1,28.3-40.8,38.5c-6.9,9.1-16.8,27.7-15.5,29c1.6,1.6,18.6,3.2,35.7,3.3 c9.9,0.1,21.3,0.6,25.3,1.2C114.7-103,113.8-102.5,116.5-113L116.5-113z M291.9-119.5c0-23.4,1.4-40.4,5.4-65.3 c1.5-9.1,2.3-16.8,1.9-17.2c-0.4-0.4-7.2-1-15.2-1.3c-26.9-1.1-41.3,3.4-74.1,23.1c-29.1,17.5-39.5,24.9-48.4,34.5 c-10.5,11.3-17.5,26.4-17.6,38.2l0,3.5l33.7,1.7c59.2,3.1,71.9,3.6,93.3,3.8l21,0.2L291.9-119.5z M211.9,56.3 C149,47.1,121,41.5,92.6,32.1C61.2,21.7,42.1,10.7,26-6.5C8.4-25.2,1.8-43.5,3-70.3c2.5-54.5,37.3-96.8,118.2-143.9 c22.6-13.2,33.5-18.5,55.4-27.1c32.2-12.7,63-21.1,121.6-33c18.1-3.7,33-6.8,33.2-7c0.2-0.2-0.3-4.7-1.1-10 c-2-12.7,0.1-27.9,6.5-48.5c4.4-14.1,5.1-15.5,7.3-14.4c6.9,3.7,8.1,15.5,3.8,39.1c-2.7,14.7-3.5,29.5-1.6,30.5 c0.5,0.3,6.3-0.2,12.8-1.2c24.3-3.6,52.7-5,87.3-4.2c69.9,1.6,126.9,11.9,187.5,33.9c31,11.2,35.1,14.1,36.4,24.9 c0.4,3.3,0.3,6.1-0.1,6.1c-0.5,0-5.9-2.1-12.2-4.7c-69.9-29-140.1-44.9-206-46.9c-39.3-1.2-60.7,1.8-79.3,10.8 c-11.7,5.7-19.3,12.2-26,22.1c-5.2,7.7-11.3,21.1-10.1,22.3c0.3,0.3,9.8,1.2,20.9,1.8s22.7,1.9,25.8,2.7c6.9,1.8,14.1,6.2,14.1,8.5 c0,2.2-20,4.8-46.5,5.9l-19.4,0.8l-3.1,4.6c-4.1,6.1-7.9,18.9-9.8,33.1c-1.6,11.6-0.9,56.2,0.9,62.7c0.8,2.7,1.6,3,9.9,3 c6.7,0,9.8,0.6,12,2.4l3,2.4l-3.4,2.7c-1.9,1.5-6.8,3.4-11,4.4c-6.9,1.5-7.5,2-6.7,4.6c1.3,4.1,2.5,26.2,1.4,26.2 c-5.3,0-17.7-12.4-22.3-22.5l-3.2-6.9l-18.7,0c-10.3,0-36.7-0.7-58.7-1.6c-29.6-1.2-44.8-1.2-58.5-0.1c-10.2,0.8-18.8,1.8-19.2,2.2 c-1.5,1.5,12.4,19.9,19.8,26c14.5,12,28.6,19.4,68.9,35.9C264.3-9.6,269.2-7,268.3-3.8c-0.4,1.4-2.6,4.5-5,6.8l-4.4,4.2l-11.2-2.7 c-39.2-9.3-71.7-27.8-98.7-55.9c-10.5-11-24.7-29.4-26.7-34.7c-0.5-1.2-88.7-4.5-90.8-3.3c-1.7,0.9-1.1,21.9,1,31.4 C36.6-38.6,50.4-19.5,69.2-7c21.1,14,61,29.4,93.6,36c19.4,3.9,53.9,8.5,71.8,9.6c13.3,0.8,19.1,2,23.1,5.1 c2.3,1.7,2.3,2.1,0.3,5.9C253.3,58.7,240.8,60.5,211.9,56.3L211.9,56.3z"></path> </g> <path id="path1602" class="st1" d="M930,0.3V730V0.3z"></path> <g id="flowRoot1604" transform="translate(0,657)"> </g> <g id="flowRoot858" transform="matrix(3.6420777,0,0,3.6420777,-2496.9745,-229.07481)"> </g> <g> <path d="M1044.7,138.9V10.4h14.9v128.5H1044.7z"></path> <path d="M1158.6,138.9V76.6c0-7.9-1.8-13.7-5.4-17.6c-3.6-3.9-9.2-5.8-16.8-5.8c-10.1,0-17.5,2.7-22.1,8.2c-4.7,5.4-7,14.4-7,27 v50.5h-14.6V42.6h11.9l2.4,13.2h0.7c3-4.7,7.2-8.4,12.6-11c5.4-2.6,11.4-3.9,18-3.9c11.6,0,20.3,2.8,26.2,8.4 c5.9,5.6,8.8,14.5,8.8,26.9v62.8H1158.6z"></path> <path d="M1234.2,128.7c2.6,0,5.1-0.2,7.5-0.6c2.4-0.4,4.3-0.8,5.7-1.2v11.2c-1.6,0.8-3.9,1.4-7,1.9c-3.1,0.5-5.8,0.7-8.3,0.7 c-18.6,0-27.9-9.8-27.9-29.4V53.9h-13.8v-7l13.8-6.1l6.2-20.6h8.4v22.3h27.9v11.3h-27.9v56.7c0,5.8,1.4,10.3,4.1,13.4 C1225.7,127.1,1229.4,128.7,1234.2,128.7z"></path> <path d="M1307.4,140.7c-14.2,0-25.5-4.3-33.7-13c-8.2-8.7-12.3-20.7-12.3-36.1c0-15.5,3.8-27.9,11.5-37s17.9-13.7,30.8-13.7 c12.1,0,21.6,4,28.7,11.9c7,7.9,10.5,18.4,10.5,31.4v9.2h-66.4c0.3,11.3,3.1,19.9,8.6,25.8c5.4,5.9,13.1,8.8,22.9,8.8 c10.4,0,20.6-2.2,30.8-6.5v13c-5.2,2.2-10,3.8-14.6,4.8C1319.4,140.2,1313.9,140.7,1307.4,140.7z M1303.4,53.1 c-7.7,0-13.9,2.5-18.5,7.6c-4.6,5-7.3,12-8.1,20.9h50.4c0-9.2-2.1-16.2-6.2-21.1C1316.9,55.5,1311,53.1,1303.4,53.1z"></path> <path d="M1411.6,40.9c4.3,0,8.1,0.4,11.5,1.1l-2,13.5c-4-0.9-7.5-1.3-10.5-1.3c-7.8,0-14.5,3.2-20,9.5s-8.3,14.2-8.3,23.6v51.7 h-14.6V42.6h12l1.7,17.8h0.7c3.6-6.3,7.9-11.1,12.9-14.5C1400,42.6,1405.6,40.9,1411.6,40.9z"></path> <path d="M1507.1,138.9V76.6c0-7.9-1.8-13.7-5.4-17.6c-3.6-3.9-9.2-5.8-16.8-5.8c-10.1,0-17.5,2.7-22.1,8.2c-4.7,5.4-7,14.4-7,27 v50.5h-14.6V42.6h11.9l2.4,13.2h0.7c3-4.7,7.2-8.4,12.6-11c5.4-2.6,11.4-3.9,18-3.9c11.6,0,20.3,2.8,26.2,8.4 c5.9,5.6,8.8,14.5,8.8,26.9v62.8H1507.1z"></path> <path d="M1610.9,138.9l-2.9-13.7h-0.7c-4.8,6-9.6,10.1-14.4,12.3c-4.8,2.1-10.7,3.2-17.9,3.2c-9.6,0-17-2.5-22.5-7.4 c-5.4-4.9-8.1-11.9-8.1-21c0-19.5,15.6-29.6,46.7-30.6l16.3-0.5v-6c0-7.6-1.6-13.1-4.9-16.7s-8.5-5.4-15.6-5.4 c-8,0-17.1,2.5-27.2,7.4l-4.5-11.2c4.7-2.6,9.9-4.6,15.6-6.1c5.7-1.5,11.3-2.2,17-2.2c11.5,0,20,2.5,25.5,7.6s8.3,13.3,8.3,24.5 v65.7H1610.9z M1577.9,128.7c9.1,0,16.2-2.5,21.4-7.5c5.2-5,7.8-12,7.8-20.9v-8.7l-14.6,0.6c-11.6,0.4-20,2.2-25.1,5.4 c-5.1,3.2-7.7,8.2-7.7,14.9c0,5.3,1.6,9.3,4.8,12C1567.7,127.3,1572.2,128.7,1577.9,128.7z"></path> <path d="M1682.8,128.7c2.6,0,5.1-0.2,7.5-0.6c2.4-0.4,4.3-0.8,5.7-1.2v11.2c-1.6,0.8-3.9,1.4-7,1.9c-3.1,0.5-5.8,0.7-8.3,0.7 c-18.6,0-27.9-9.8-27.9-29.4V53.9H1639v-7l13.8-6.1l6.2-20.6h8.4v22.3h27.9v11.3h-27.9v56.7c0,5.8,1.4,10.3,4.1,13.4 C1674.3,127.1,1678,128.7,1682.8,128.7z"></path> <path d="M1714,16.5c0-3.3,0.8-5.8,2.5-7.3c1.6-1.6,3.7-2.3,6.2-2.3c2.3,0,4.4,0.8,6.1,2.4c1.7,1.6,2.5,4,2.5,7.3 c0,3.3-0.8,5.7-2.5,7.3c-1.7,1.6-3.7,2.4-6.1,2.4c-2.5,0-4.5-0.8-6.2-2.4C1714.9,22.2,1714,19.8,1714,16.5z M1729.9,138.9h-14.6 V42.6h14.6V138.9z"></path> <path d="M1843.9,90.7c0,15.7-4,28-11.9,36.8c-7.9,8.8-18.8,13.2-32.8,13.2c-8.6,0-16.3-2-22.9-6.1s-11.8-9.8-15.5-17.4 c-3.6-7.6-5.4-16.4-5.4-26.5c0-15.7,3.9-27.9,11.8-36.7c7.9-8.8,18.8-13.1,32.7-13.1c13.5,0,24.2,4.5,32.1,13.4 C1840,63.3,1843.9,75.4,1843.9,90.7z M1770.6,90.7c0,12.3,2.5,21.7,7.4,28.1c4.9,6.4,12.2,9.7,21.7,9.7c9.5,0,16.8-3.2,21.8-9.6 c5-6.4,7.4-15.8,7.4-28.2c0-12.2-2.5-21.5-7.4-27.9c-5-6.4-12.3-9.5-21.9-9.5c-9.6,0-16.8,3.1-21.6,9.4 C1773,68.9,1770.6,78.3,1770.6,90.7z"></path> <path d="M1935.4,138.9V76.6c0-7.9-1.8-13.7-5.4-17.6c-3.6-3.9-9.2-5.8-16.8-5.8c-10.1,0-17.5,2.7-22.1,8.2c-4.7,5.4-7,14.4-7,27 v50.5h-14.6V42.6h11.9l2.4,13.2h0.7c3-4.7,7.2-8.4,12.6-11c5.4-2.6,11.4-3.9,18-3.9c11.6,0,20.3,2.8,26.2,8.4 c5.9,5.6,8.8,14.5,8.8,26.9v62.8H1935.4z"></path> <path d="M2039.2,138.9l-2.9-13.7h-0.7c-4.8,6-9.6,10.1-14.4,12.3c-4.8,2.1-10.7,3.2-17.9,3.2c-9.6,0-17-2.5-22.5-7.4 c-5.4-4.9-8.1-11.9-8.1-21c0-19.5,15.6-29.6,46.7-30.6l16.3-0.5v-6c0-7.6-1.6-13.1-4.9-16.7s-8.5-5.4-15.6-5.4 c-8,0-17.1,2.5-27.2,7.4l-4.5-11.2c4.7-2.6,9.9-4.6,15.6-6.1c5.7-1.5,11.3-2.2,17-2.2c11.5,0,20,2.5,25.5,7.6s8.3,13.3,8.3,24.5 v65.7H2039.2z M2006.3,128.7c9.1,0,16.2-2.5,21.4-7.5c5.2-5,7.8-12,7.8-20.9v-8.7l-14.6,0.6c-11.6,0.4-20,2.2-25.1,5.4 c-5.1,3.2-7.7,8.2-7.7,14.9c0,5.3,1.6,9.3,4.8,12C1996.1,127.3,2000.5,128.7,2006.3,128.7z"></path> <path d="M2094.7,138.9h-14.6V2.2h14.6V138.9z"></path> <path d="M1070,333.9h-26.8V205.4h73.7v22.3H1070v33.1h43.6v22.2H1070V333.9z"></path> <path d="M1229.1,284.6c0,16-4.2,28.5-12.7,37.5c-8.4,9-20.2,13.5-35.2,13.5c-9.4,0-17.8-2.1-25-6.2s-12.7-10.1-16.6-17.8 s-5.8-16.8-5.8-27.1c0-16.1,4.2-28.5,12.6-37.4c8.4-8.9,20.2-13.4,35.3-13.4c9.4,0,17.8,2.1,25,6.2c7.2,4.1,12.7,10,16.6,17.7 C1227.2,265.3,1229.1,274.3,1229.1,284.6z M1161.2,284.6c0,9.7,1.6,17.1,4.8,22.1c3.2,5,8.4,7.5,15.6,7.5c7.1,0,12.3-2.5,15.4-7.4 c3.1-5,4.7-12.3,4.7-22.1c0-9.7-1.6-17-4.7-21.9c-3.2-4.9-8.3-7.3-15.6-7.3c-7.1,0-12.3,2.4-15.5,7.3S1161.2,274.8,1161.2,284.6z"></path> <path d="M1306.1,233.8c3.6,0,6.6,0.3,9.1,0.8l-2,25.1c-2.2-0.6-4.8-0.9-7.9-0.9c-8.6,0-15.2,2.2-20,6.6c-4.8,4.4-7.2,10.5-7.2,18.5 v50h-26.8v-98.3h20.3l4,16.5h1.3c3-5.5,7.2-9.9,12.3-13.3C1294.4,235.5,1300,233.8,1306.1,233.8z"></path> <path d="M1377.5,335.7c-15.8,0-28.2-4.4-37.1-13.1c-8.9-8.7-13.4-21.1-13.4-37.1c0-16.5,4.1-29.2,12.3-38.2 c8.2-9,19.6-13.5,34.1-13.5c13.9,0,24.7,4,32.4,11.9s11.6,18.8,11.6,32.8v13h-63.4c0.3,7.6,2.5,13.6,6.8,17.8 c4.2,4.3,10.1,6.4,17.8,6.4c5.9,0,11.5-0.6,16.8-1.8s10.8-3.2,16.5-5.9v20.7c-4.7,2.3-9.7,4.1-15,5.2 C1391.7,335.1,1385.2,335.7,1377.5,335.7z M1373.7,252.9c-5.7,0-10.1,1.8-13.4,5.4c-3.2,3.6-5.1,8.7-5.5,15.3h37.6 c-0.1-6.6-1.8-11.7-5.2-15.3S1379.4,252.9,1373.7,252.9z"></path> <path d="M1507.9,304.8c0,10.1-3.5,17.8-10.5,23c-7,5.3-17.5,7.9-31.4,7.9c-7.1,0-13.2-0.5-18.3-1.5c-5-1-9.8-2.4-14.2-4.3v-22.1 c5,2.3,10.6,4.3,16.8,5.9s11.7,2.4,16.5,2.4c9.7,0,14.6-2.8,14.6-8.4c0-2.1-0.6-3.8-1.9-5.1c-1.3-1.3-3.5-2.8-6.7-4.5 s-7.4-3.6-12.7-5.8c-7.6-3.2-13.1-6.1-16.7-8.8c-3.5-2.7-6.1-5.8-7.7-9.3c-1.6-3.5-2.4-7.8-2.4-12.9c0-8.7,3.4-15.5,10.2-20.3 c6.8-4.8,16.4-7.2,28.8-7.2c11.8,0,23.3,2.6,34.5,7.7l-8.1,19.3c-4.9-2.1-9.5-3.8-13.8-5.2c-4.3-1.3-8.6-2-13.1-2 c-7.9,0-11.9,2.1-11.9,6.4c0,2.4,1.3,4.5,3.8,6.2s8.1,4.4,16.7,7.8c7.7,3.1,13.3,6,16.9,8.7c3.6,2.7,6.2,5.8,7.9,9.3 C1507.1,295.7,1507.9,299.9,1507.9,304.8z"></path> <path d="M1570.3,314.3c4.7,0,10.3-1,16.9-3.1v20c-6.7,3-14.9,4.5-24.6,4.5c-10.7,0-18.5-2.7-23.4-8.1c-4.9-5.4-7.3-13.5-7.3-24.4 v-47.4h-12.8v-11.3l14.8-9l7.7-20.7h17.1v20.9h27.5v20.1h-27.5v47.4c0,3.8,1.1,6.6,3.2,8.4C1563.9,313.4,1566.7,314.3,1570.3,314.3 z"></path> <path d="M1661.8,233.8c3.6,0,6.6,0.3,9.1,0.8l-2,25.1c-2.2-0.6-4.8-0.9-7.9-0.9c-8.6,0-15.2,2.2-20,6.6c-4.8,4.4-7.2,10.5-7.2,18.5 v50H1607v-98.3h20.3l4,16.5h1.3c3-5.5,7.2-9.9,12.3-13.3C1650.1,235.5,1655.7,233.8,1661.8,233.8z"></path> <path d="M1674.7,235.7h29.4l18.5,55.3c1.6,4.8,2.7,10.5,3.3,17.1h0.5c0.6-6,1.9-11.7,3.8-17.1l18.2-55.3h28.7l-41.6,110.8 c-3.8,10.3-9.2,17.9-16.3,23c-7.1,5.1-15.3,7.6-24.7,7.6c-4.6,0-9.2-0.5-13.6-1.5v-21.3c3.2,0.8,6.7,1.1,10.5,1.1 c4.7,0,8.9-1.5,12.4-4.4c3.5-2.9,6.3-7.3,8.3-13.1l1.6-4.8L1674.7,235.7z"></path> <path d="M1119,493.3c0,11.6-4.2,20.7-12.5,27.4s-20,10-34.8,10c-13.7,0-25.8-2.6-36.4-7.7v-25.3c8.7,3.9,16,6.6,22,8.2 c6,1.6,11.5,2.4,16.5,2.4c6,0,10.6-1.1,13.8-3.4c3.2-2.3,4.8-5.7,4.8-10.2c0-2.5-0.7-4.8-2.1-6.7c-1.4-2-3.5-3.9-6.2-5.7 c-2.7-1.8-8.3-4.7-16.7-8.7c-7.9-3.7-13.7-7.2-17.7-10.6c-3.9-3.4-7.1-7.4-9.4-11.9c-2.3-4.5-3.5-9.8-3.5-15.8 c0-11.4,3.9-20.3,11.6-26.8c7.7-6.5,18.4-9.8,31.9-9.8c6.7,0,13.1,0.8,19.1,2.4s12.4,3.8,19,6.7l-8.8,21.2 c-6.9-2.8-12.5-4.8-17-5.9c-4.5-1.1-8.9-1.7-13.2-1.7c-5.2,0-9.1,1.2-11.9,3.6c-2.8,2.4-4.1,5.5-4.1,9.4c0,2.4,0.6,4.5,1.7,6.3 c1.1,1.8,2.9,3.5,5.3,5.2c2.4,1.7,8.2,4.7,17.3,9c12,5.7,20.2,11.5,24.7,17.3C1116.8,477.8,1119,484.9,1119,493.3z"></path> <path d="M1181.6,509.3c4.7,0,10.3-1,16.9-3.1v20c-6.7,3-14.9,4.5-24.6,4.5c-10.7,0-18.5-2.7-23.4-8.1c-4.9-5.4-7.3-13.5-7.3-24.4 v-47.4h-12.8v-11.3l14.8-9l7.7-20.7h17.1v20.9h27.5v20.1h-27.5v47.4c0,3.8,1.1,6.6,3.2,8.4C1175.3,508.4,1178.1,509.3,1181.6,509.3 z"></path> <path d="M1287.9,528.9l-3.6-12.6h-1.4c-2.9,4.6-6.9,8.1-12.2,10.6s-11.3,3.7-18,3.7c-11.5,0-20.2-3.1-26.1-9.3 c-5.9-6.2-8.8-15.1-8.8-26.7v-64.1h26.8v57.4c0,7.1,1.3,12.4,3.8,16c2.5,3.5,6.5,5.3,12,5.3c7.5,0,12.9-2.5,16.3-7.5s5-13.3,5-24.9 v-46.2h26.8v98.3H1287.9z"></path> <path d="M1367.8,530.7c-11.5,0-20.6-4.5-27.2-13.4s-9.9-21.4-9.9-37.3c0-16.1,3.4-28.7,10.1-37.7c6.7-9,16-13.5,27.7-13.5 c12.4,0,21.8,4.8,28.3,14.4h0.9c-1.3-7.3-2-13.9-2-19.6v-31.5h26.9v136.8h-20.6l-5.2-12.7h-1.1 C1389.5,525.9,1380.2,530.7,1367.8,530.7z M1377.2,509.3c6.9,0,11.9-2,15.1-6c3.2-4,4.9-10.8,5.2-20.3v-2.9 c0-10.5-1.6-18.1-4.9-22.7s-8.5-6.9-15.9-6.9c-6,0-10.6,2.5-13.9,7.6c-3.3,5.1-5,12.4-5,22.1s1.7,16.9,5,21.8 S1370.9,509.3,1377.2,509.3z"></path> <path d="M1495,530.7c-15.8,0-28.2-4.4-37.1-13.1c-8.9-8.7-13.4-21.1-13.4-37.1c0-16.5,4.1-29.2,12.3-38.2 c8.2-9,19.6-13.5,34.1-13.5c13.9,0,24.7,4,32.4,11.9s11.6,18.8,11.6,32.8v13h-63.4c0.3,7.6,2.5,13.6,6.8,17.8 c4.2,4.3,10.1,6.4,17.8,6.4c5.9,0,11.5-0.6,16.8-1.8s10.8-3.2,16.5-5.9v20.7c-4.7,2.3-9.7,4.1-15,5.2 C1509.2,530.1,1502.7,530.7,1495,530.7z M1491.2,447.9c-5.7,0-10.1,1.8-13.4,5.4c-3.2,3.6-5.1,8.7-5.5,15.3h37.6 c-0.1-6.6-1.8-11.7-5.2-15.3S1496.9,447.9,1491.2,447.9z"></path> <path d="M1647.6,528.9h-26.8v-57.4c0-7.1-1.3-12.4-3.8-16c-2.5-3.5-6.5-5.3-12-5.3c-7.5,0-12.9,2.5-16.3,7.5s-5,13.3-5,24.9v46.2 h-26.8v-98.3h20.5l3.6,12.6h1.5c3-4.7,7.1-8.3,12.3-10.8c5.2-2.4,11.2-3.6,17.9-3.6c11.4,0,20.1,3.1,26,9.3 c5.9,6.2,8.9,15.1,8.9,26.8V528.9z"></path> <path d="M1716.6,509.3c4.7,0,10.3-1,16.9-3.1v20c-6.7,3-14.9,4.5-24.6,4.5c-10.7,0-18.5-2.7-23.4-8.1c-4.9-5.4-7.3-13.5-7.3-24.4 v-47.4h-12.8v-11.3l14.8-9l7.7-20.7h17.1v20.9h27.5v20.1h-27.5v47.4c0,3.8,1.1,6.6,3.2,8.4C1710.2,508.4,1713.1,509.3,1716.6,509.3 z"></path> <path d="M1821.9,499.8c0,10.1-3.5,17.8-10.5,23c-7,5.3-17.5,7.9-31.4,7.9c-7.1,0-13.2-0.5-18.3-1.5c-5-1-9.8-2.4-14.2-4.3v-22.1 c5,2.3,10.6,4.3,16.8,5.9s11.7,2.4,16.5,2.4c9.7,0,14.6-2.8,14.6-8.4c0-2.1-0.6-3.8-1.9-5.1c-1.3-1.3-3.5-2.8-6.7-4.5 s-7.4-3.6-12.7-5.8c-7.6-3.2-13.1-6.1-16.7-8.8c-3.5-2.7-6.1-5.8-7.7-9.3c-1.6-3.5-2.4-7.8-2.4-12.9c0-8.7,3.4-15.5,10.2-20.3 c6.8-4.8,16.4-7.2,28.8-7.2c11.8,0,23.3,2.6,34.5,7.7l-8.1,19.3c-4.9-2.1-9.5-3.8-13.8-5.2c-4.3-1.3-8.6-2-13.1-2 c-7.9,0-11.9,2.1-11.9,6.4c0,2.4,1.3,4.5,3.8,6.2s8.1,4.4,16.7,7.8c7.7,3.1,13.3,6,16.9,8.7c3.6,2.7,6.2,5.8,7.9,9.3 C1821,490.7,1821.9,494.9,1821.9,499.8z"></path> <path d="M1864.4,400.4l1.2,1.9c-2.9,11.5-8.1,25.6-15.5,42.1h-19.2c4-17.3,7-32,8.8-44H1864.4z"></path> <path d="M1125.4,723.9l-16-40.9h-51.5l-15.8,40.9H1027l50.8-129h12.6l50.5,129H1125.4z M1104.8,669.6l-14.9-39.8 c-1.9-5-3.9-11.2-6-18.5c-1.3,5.6-3.1,11.8-5.5,18.5l-15.1,39.8H1104.8z"></path> <path d="M1218.5,697.7c0,9-3.3,15.9-10,20.7c-6.7,4.9-16.1,7.3-28.1,7.3c-12.8,0-22.7-2-29.9-6.1v-13.5c4.6,2.3,9.6,4.2,14.9,5.5 c5.3,1.3,10.4,2,15.3,2c7.6,0,13.5-1.2,17.6-3.6c4.1-2.4,6.2-6.1,6.2-11.1c0-3.7-1.6-7-4.9-9.6c-3.3-2.7-9.6-5.8-19-9.4 c-9-3.3-15.3-6.3-19.1-8.7c-3.8-2.5-6.6-5.3-8.4-8.5s-2.8-6.9-2.8-11.3c0-7.9,3.2-14,9.6-18.6c6.4-4.5,15.1-6.8,26.3-6.8 c10.4,0,20.5,2.1,30.4,6.3l-5.2,11.9c-9.7-4-18.4-6-26.3-6c-6.9,0-12.1,1.1-15.6,3.3c-3.5,2.2-5.3,5.2-5.3,9c0,2.6,0.7,4.8,2,6.6 c1.3,1.8,3.4,3.5,6.4,5.2c2.9,1.6,8.6,4,16.9,7.1c11.4,4.2,19.1,8.3,23.2,12.6C1216.5,686,1218.5,691.3,1218.5,697.7z"></path> <path d="M1304.4,697.7c0,9-3.3,15.9-10,20.7c-6.7,4.9-16.1,7.3-28.1,7.3c-12.8,0-22.7-2-29.9-6.1v-13.5c4.6,2.3,9.6,4.2,14.9,5.5 c5.3,1.3,10.4,2,15.3,2c7.6,0,13.5-1.2,17.6-3.6c4.1-2.4,6.2-6.1,6.2-11.1c0-3.7-1.6-7-4.9-9.6c-3.3-2.7-9.6-5.8-19-9.4 c-9-3.3-15.3-6.3-19.1-8.7c-3.8-2.5-6.6-5.3-8.4-8.5s-2.8-6.9-2.8-11.3c0-7.9,3.2-14,9.6-18.6c6.4-4.5,15.1-6.8,26.3-6.8 c10.4,0,20.5,2.1,30.4,6.3l-5.2,11.9c-9.7-4-18.4-6-26.3-6c-6.9,0-12.1,1.1-15.6,3.3c-3.5,2.2-5.3,5.2-5.3,9c0,2.6,0.7,4.8,2,6.6 c1.3,1.8,3.4,3.5,6.4,5.2c2.9,1.6,8.6,4,16.9,7.1c11.4,4.2,19.1,8.3,23.2,12.6C1302.4,686,1304.4,691.3,1304.4,697.7z"></path> <path d="M1411.3,675.7c0,15.7-4,28-11.9,36.8c-7.9,8.8-18.8,13.2-32.8,13.2c-8.6,0-16.3-2-22.9-6.1s-11.8-9.8-15.5-17.4 c-3.6-7.6-5.4-16.4-5.4-26.5c0-15.7,3.9-27.9,11.8-36.7c7.9-8.8,18.8-13.1,32.7-13.1c13.5,0,24.2,4.5,32.1,13.4 C1407.3,648.3,1411.3,660.4,1411.3,675.7z M1337.9,675.7c0,12.3,2.5,21.7,7.4,28.1c4.9,6.4,12.2,9.7,21.7,9.7 c9.5,0,16.8-3.2,21.8-9.6c5-6.4,7.4-15.8,7.4-28.2c0-12.2-2.5-21.5-7.4-27.9c-5-6.4-12.3-9.5-21.9-9.5c-9.6,0-16.8,3.1-21.6,9.4 C1340.3,653.9,1337.9,663.3,1337.9,675.7z"></path> <path d="M1475.3,725.7c-13.9,0-24.7-4.3-32.4-12.9c-7.6-8.6-11.5-20.7-11.5-36.4c0-16.1,3.9-28.6,11.6-37.4 c7.8-8.8,18.8-13.2,33.2-13.2c4.6,0,9.3,0.5,13.9,1.5c4.6,1,8.3,2.2,10.9,3.5l-4.5,12.4c-3.2-1.3-6.7-2.4-10.5-3.2 c-3.8-0.8-7.2-1.3-10.1-1.3c-19.6,0-29.4,12.5-29.4,37.4c0,11.8,2.4,20.9,7.2,27.2c4.8,6.3,11.9,9.5,21.2,9.5 c8,0,16.3-1.7,24.7-5.2v12.9C1493.2,724,1485.1,725.7,1475.3,725.7z"></path> <path d="M1521.3,601.5c0-3.3,0.8-5.8,2.5-7.3c1.6-1.6,3.7-2.3,6.2-2.3c2.3,0,4.4,0.8,6.1,2.4c1.7,1.6,2.5,4,2.5,7.3 c0,3.3-0.8,5.7-2.5,7.3c-1.7,1.6-3.7,2.4-6.1,2.4c-2.5,0-4.5-0.8-6.2-2.4C1522.1,607.2,1521.3,604.8,1521.3,601.5z M1537.1,723.9 h-14.6v-96.3h14.6V723.9z"></path> <path d="M1627.3,723.9l-2.9-13.7h-0.7c-4.8,6-9.6,10.1-14.4,12.3c-4.8,2.1-10.7,3.2-17.9,3.2c-9.6,0-17-2.5-22.5-7.4 c-5.4-4.9-8.1-11.9-8.1-21c0-19.5,15.6-29.6,46.7-30.6l16.3-0.5v-6c0-7.6-1.6-13.1-4.9-16.7s-8.5-5.4-15.6-5.4 c-8,0-17.1,2.5-27.2,7.4l-4.5-11.2c4.7-2.6,9.9-4.6,15.6-6.1c5.7-1.5,11.3-2.2,17-2.2c11.5,0,20,2.5,25.5,7.6s8.3,13.3,8.3,24.5 v65.7H1627.3z M1594.3,713.7c9.1,0,16.2-2.5,21.4-7.5c5.2-5,7.8-12,7.8-20.9v-8.7l-14.6,0.6c-11.6,0.4-20,2.2-25.1,5.4 c-5.1,3.2-7.7,8.2-7.7,14.9c0,5.3,1.6,9.3,4.8,12C1584.1,712.3,1588.6,713.7,1594.3,713.7z"></path> <path d="M1699.3,713.7c2.6,0,5.1-0.2,7.5-0.6c2.4-0.4,4.3-0.8,5.7-1.2v11.2c-1.6,0.8-3.9,1.4-7,1.9c-3.1,0.5-5.8,0.7-8.3,0.7 c-18.6,0-27.9-9.8-27.9-29.4v-57.3h-13.8v-7l13.8-6.1l6.2-20.6h8.4v22.3h27.9v11.3h-27.9v56.7c0,5.8,1.4,10.3,4.1,13.4 C1690.7,712.1,1694.5,713.7,1699.3,713.7z"></path> <path d="M1730.5,601.5c0-3.3,0.8-5.8,2.5-7.3c1.6-1.6,3.7-2.3,6.2-2.3c2.3,0,4.4,0.8,6.1,2.4c1.7,1.6,2.5,4,2.5,7.3 c0,3.3-0.8,5.7-2.5,7.3c-1.7,1.6-3.7,2.4-6.1,2.4c-2.5,0-4.5-0.8-6.2-2.4C1731.3,607.2,1730.5,604.8,1730.5,601.5z M1746.3,723.9 h-14.6v-96.3h14.6V723.9z"></path> <path d="M1860.4,675.7c0,15.7-4,28-11.9,36.8c-7.9,8.8-18.8,13.2-32.8,13.2c-8.6,0-16.3-2-22.9-6.1s-11.8-9.8-15.5-17.4 c-3.6-7.6-5.4-16.4-5.4-26.5c0-15.7,3.9-27.9,11.8-36.7c7.9-8.8,18.8-13.1,32.7-13.1c13.5,0,24.2,4.5,32.1,13.4 C1856.4,648.3,1860.4,660.4,1860.4,675.7z M1787,675.7c0,12.3,2.5,21.7,7.4,28.1c4.9,6.4,12.2,9.7,21.7,9.7 c9.5,0,16.8-3.2,21.8-9.6c5-6.4,7.4-15.8,7.4-28.2c0-12.2-2.5-21.5-7.4-27.9c-5-6.4-12.3-9.5-21.9-9.5c-9.6,0-16.8,3.1-21.6,9.4 C1789.4,653.9,1787,663.3,1787,675.7z"></path> <path d="M1951.9,723.9v-62.3c0-7.9-1.8-13.7-5.4-17.6c-3.6-3.9-9.2-5.8-16.8-5.8c-10.1,0-17.5,2.7-22.1,8.2c-4.7,5.4-7,14.4-7,27 v50.5H1886v-96.3h11.9l2.4,13.2h0.7c3-4.7,7.2-8.4,12.6-11c5.4-2.6,11.4-3.9,18-3.9c11.6,0,20.3,2.8,26.2,8.4 c5.9,5.6,8.8,14.5,8.8,26.9v62.8H1951.9z"></path> </g> </svg> 