<?xml version="1.0" encoding="UTF-8"?>
<svg id="Layer_2" data-name="Layer 2" xmlns="http://www.w3.org/2000/svg" viewBox="0 0 91.3 91.04">
  <defs>
    <style>
      .cls-1 {
        fill: #f27021;
      }

      .cls-1, .cls-2, .cls-3, .cls-4, .cls-5, .cls-6, .cls-7, .cls-8 {
        stroke-width: 0px;
      }

      .cls-2 {
        fill: #633917;
      }

      .cls-3 {
        fill: #a7a9ac;
      }

      .cls-4 {
        fill: #869138;
      }

      .cls-5 {
        fill: #104c33;
      }

      .cls-6 {
        fill: #f6f4b3;
      }

      .cls-7 {
        fill: #50b67c;
      }

      .cls-8 {
        fill: #4c89c8;
      }
    </style>
  </defs>
  <g id="Layer_9" data-name="Layer 9">
    <g>
      <path class="cls-3" d="M2.64,67.7l-2-8s8.42-3.28,14-7c3-2,6-6,8-14l7-1s2,8-9,20l-1,1,5,1,2,7s-13-2-24,1Z"/>
      <path class="cls-2" d="M0,30.16l4.14-4.96s7.88,3.4,14.5,4.5c6,1,9-.61,16.23-4.58l5.49,4.45s-6.22,5.63-20.79,6.99l-1.93.13,3.19,4.16-3.77,6.23S9.68,36.19,0,30.16Z"/>
      <path class="cls-4" d="M59.52,0l5.21,3.82s-2.9,8.08-3.59,14.75c-.62,6.05,1.17,8.95,5.58,15.91l-4.1,5.76s-6-5.86-8.27-20.31l-.25-1.92-3.95,3.44-6.45-3.38S54.1,10.03,59.52,0Z"/>
      <path class="cls-1" d="M29.22,91.04l-4.95-4.15s3.42-7.87,4.54-14.49c1.02-6-.58-9-4.53-16.24l4.47-5.48s5.61,6.24,6.93,20.81l.13,1.93,4.17-3.17,6.21,3.79s-10.92,7.34-16.97,17Z"/>
      <path class="cls-7" d="M91.3,61.77l-4.06,5.02s-7.93-3.28-14.56-4.29c-6.01-.91-8.99.74-16.16,4.81l-5.55-4.38s6.14-5.72,20.68-7.29l1.93-.16-3.25-4.11,3.69-6.28s7.53,10.79,17.29,16.68Z"/>
      <path class="cls-5" d="M24.03,4.11l8-2s3.28,8.42,7,14c2,3,6,6,14,8l1,7s-8,2-20-9l-1-1-1,5-7,2s2-13-1-24Z"/>
      <path class="cls-6" d="M88.99,24.44l2,8s-8.42,3.28-14,7c-3,2-6,6-8,14l-7,1s-2-8,9-20l1-1-5-1-3.16-6.69s14.16,1.69,25.16-1.31Z"/>
      <path class="cls-8" d="M67.35,88.94l-8,2s-3.28-8.42-7-14c-2-3-6-6-14-8l-1-7s8-2,20,9l1,1,1-5,7-2s-2,13,1,24Z"/>
    </g>
  </g>
</svg>